{
DisplayStrings = (
/dvMatraI.19
);
copyright = "Copyright 2014 Eczar Project Authors (info@rosettatype.com)";
customParameters = (
{
name = openTypeOS2VendorID;
value = " RST";
},
{
name = glyphOrder;
value = (
    ".notdef",
    NULL,
    CR,
    space,
    nbspace,
    enspace,
    emspace,
    thinspace,
    exclam,
    quotedbl,
    numbersign,
    dollar,
    percent,
    ampersand,
    quotesingle,
    parenleft,
    parenright,
    asterisk,
    plus,
    comma,
    hyphen,
    period,
    slash,
    zero,
    one,
    two,
    three,
    four,
    five,
    six,
    seven,
    eight,
    nine,
    colon,
    semicolon,
    less,
    equal,
    greater,
    question,
    at,
    A,
    B,
    C,
    D,
    E,
    F,
    G,
    H,
    I,
    J,
    K,
    L,
    M,
    N,
    O,
    P,
    Q,
    R,
    S,
    T,
    U,
    V,
    W,
    X,
    Y,
    Z,
    bracketleft,
    backslash,
    bracketright,
    asciicircum,
    underscore,
    grave,
    a,
    b,
    c,
    d,
    e,
    f,
    g,
    h,
    i,
    j,
    k,
    l,
    m,
    n,
    o,
    p,
    q,
    r,
    s,
    t,
    u,
    v,
    w,
    x,
    y,
    z,
    braceleft,
    bar,
    braceright,
    asciitilde,
    exclamdown,
    cent,
    sterling,
    currency,
    yen,
    brokenbar,
    section,
    dieresis,
    copyright,
    ordfeminine,
    guillemetleft,
    logicalnot,
    softhyphen,
    registered,
    macron,
    degree,
    plusminus,
    twosuperior,
    threesuperior,
    foursuperior,
    acute,
    micro,
    paragraph,
    periodcentered,
    cedilla,
    onesuperior,
    ordmasculine,
    guillemetright,
    onequarter,
    onehalf,
    threequarters,
    questiondown,
    Agrave,
    Aacute,
    Acircumflex,
    Atilde,
    Adieresis,
    Aring,
    AE,
    Ccedilla,
    Egrave,
    Eacute,
    Ecircumflex,
    Edieresis,
    Igrave,
    Iacute,
    Icircumflex,
    Idieresis,
    Eth,
    Ntilde,
    Ograve,
    Oacute,
    Ocircumflex,
    Otilde,
    Odieresis,

glyphs = (
{
glyphname = .notdef;
layers = (
{
layerId = "E4D94E08-F159-4C87-90C4-095EDBFC645B";
name = Regular;
paths = (
{
closed = 1;
nodes = (
"47 23 LINE",
"465 23 LINE",
"465 458 LINE",
"47 458 LINE"
);
},
{
closed = 1;
nodes = (
"105 393 LINE",
"409 393 LINE",
"409 89 LINE",
"105 89 LINE"
);
}
);
width = 512;
}
);
},
{
color = 3;
glyphname = exclam;
layers = (
{
layerId = "E4D94E08-F159-4C87-90C4-095EDBFC645B";
name = Regular;
paths = (
{
closed = 1;
nodes = (
"177 210 LINE",
"211 634 LINE",
"192 664 OFFCURVE",
"114 662 OFFCURVE",
"88 636 CURVE",
"120 210 LINE"
);
},
{
closed = 1;
nodes = (
"108 106 OFFCURVE",
"86 79 OFFCURVE",
"80 41 CURVE",
"94 8 OFFCURVE",
"120 -13 OFFCURVE",
"156 -20 CURVE",
"186 -6 OFFCURVE",
"207 18 OFFCURVE",
"217 52 CURVE",
"211 84 OFFCURVE",
"184 109 OFFCURVE",
"144 124 CURVE"
);
}
);
width = 297;
}
);
unicode = 0021;
},
{
color = 3;
glyphname = quotedbl;
layers = (
{
layerId = "E4D94E08-F159-4C87-90C4-095EDBFC645B";
name = Regular;
paths = (
{
closed = 1;
nodes = (
"94 454 LINE",
"157 559 OFFCURVE",
"169 678 OFFCURVE",
"169 678 CURVE",
"97 694 LINE",
"70 674 LINE",
"67 639 OFFCURVE",
"63 571 OFFCURVE",
"28 475 CURVE"
);
},
{
closed = 1;
nodes = (
"262 454 LINE",
"325 559 OFFCURVE",
"337 678 OFFCURVE",
"337 678 CURVE",
"265 694 LINE",
"238 674 LINE",
"235 639 OFFCURVE",
"231 571 OFFCURVE",
"196 475 CURVE"
);
}
);
width = 343;
}
);
unicode = 0022;
},
{
color = 3;
glyphname = numbersign;
layers = (
{
layerId = "E4D94E08-F159-4C87-90C4-095EDBFC645B";
name = Regular;
paths = (
{
closed = 1;
nodes = (
"135 0 LINE",
"198 -9 LINE",
"279 522 LINE",
"216 530 LINE"
);
},
{
closed = 1;
nodes = (
"343 0 LINE",
"406 -9 LINE",
"487 522 LINE",
"424 530 LINE"
);
},
{
closed = 1;
nodes = (
"89 355 LINE",
"562 355 LINE",
"562 407 LINE",
"89 407 LINE"
);
},
{
closed = 1;
nodes = (
"60 138 LINE",
"533 138 LINE",
"533 190 LINE",
"60 190 LINE"
);
}
);
width = 622;
}
);
leftMetricsKey = minus;
rightMetricsKey = minus;
unicode = 0023;
},
{
color = 3;
glyphname = dollar;
layers = (
{
components = (
{
name = S;
}
);
layerId = "E4D94E08-F159-4C87-90C4-095EDBFC645B";
name = Regular;
paths = (
{
closed = 1;
nodes = (
"260 633 LINE",
"322 633 LINE",
"322 785 LINE",
"260 785 LINE"
);
},
{
closed = 1;
nodes = (
"323 -145 LINE",
"323 35 LINE",
"260 35 LINE",
"260 -145 LINE"
);
}
);
width = 530;
}
);
leftKerningGroup = S;
leftMetricsKey = S;
rightKerningGroup = S;
rightMetricsKey = S;
unicode = 0024;
},
{
color = 3;
glyphname = percent;
layers = (
{
layerId = "E4D94E08-F159-4C87-90C4-095EDBFC645B";
name = Regular;
paths = (
{
closed = 1;
nodes = (
"201 -28 LINE",
"649 541 LINE",
"600 582 LINE",
"151 13 LINE"
);
},
{
closed = 1;
nodes = (
"161 330 OFFCURVE",
"128 382 OFFCURVE",
"128 437 CURVE SMOOTH",
"128 470 OFFCURVE",
"140 503 OFFCURVE",
"164 525 CURVE",
"237 543 OFFCURVE",
"274 488 OFFCURVE",
"274 431 CURVE SMOOTH",
"274 396 OFFCURVE",
"261 361 OFFCURVE",
"233 341 CURVE"
);
},
{
closed = 1;
nodes = (
"60 350 OFFCURVE",
"126 284 OFFCURVE",
"206 284 CURVE SMOOTH",
"285 284 OFFCURVE",
"343 349 OFFCURVE",
"343 431 CURVE SMOOTH",
"343 516 OFFCURVE",
"280 587 OFFCURVE",
"201 587 CURVE SMOOTH",
"122 587 OFFCURVE",
"60 515 OFFCURVE",
"60 434 CURVE SMOOTH"
);
},
{
closed = 1;
nodes = (
"581 26 OFFCURVE",
"548 78 OFFCURVE",
"548 133 CURVE SMOOTH",
"548 166 OFFCURVE",
"560 199 OFFCURVE",
"584 221 CURVE",
"657 239 OFFCURVE",
"694 184 OFFCURVE",
"694 127 CURVE SMOOTH",
"694 92 OFFCURVE",
"681 57 OFFCURVE",
"653 37 CURVE"
);
},
{
closed = 1;
nodes = (
"480 46 OFFCURVE",
"546 -20 OFFCURVE",
"626 -20 CURVE SMOOTH",
"705 -20 OFFCURVE",
"763 45 OFFCURVE",
"763 127 CURVE SMOOTH",
"763 212 OFFCURVE",
"700 283 OFFCURVE",
"621 283 CURVE SMOOTH",
"542 283 OFFCURVE",
"480 211 OFFCURVE",
"480 130 CURVE SMOOTH"
);
}
);
width = 823;
}
);
unicode = 0025;
},
{
color = 3;
glyphname = ampersand;
layers = (
{
layerId = "E4D94E08-F159-4C87-90C4-095EDBFC645B";
name = Regular;
paths = (
{
closed = 1;
nodes = (
"216 371 LINE",
"165 392 OFFCURVE",
"138 441 OFFCURVE",
"138 490 CURVE SMOOTH",
"138 536 OFFCURVE",
"161 582 OFFCURVE",
"211 606 CURVE",
"405 543 LINE",
"434 630 LINE",
"363 657 OFFCURVE",
"302 668 OFFCURVE",
"251 668 CURVE SMOOTH",
"112 668 OFFCURVE",
"44 586 OFFCURVE",
"44 504 CURVE SMOOTH",
"44 428 OFFCURVE",
"103 351 OFFCURVE",
"219 339 CURVE"
);
},
{
closed = 1;
nodes = (
"406 382 LINE",
"445 332 OFFCURVE",
"468 268 OFFCURVE",
"468 208 CURVE SMOOTH",
"468 148 OFFCURVE",
"445 91 OFFCURVE",
"391 55 CURVE",
"352 39 OFFCURVE",
"314 35 OFFCURVE",
"288 35 CURVE SMOOTH",
"198 35 OFFCURVE",
"118 81 OFFCURVE",
"118 170 CURVE SMOOTH",
"118 244 OFFCURVE",
"173 314 OFFCURVE",
"282 313 CURVE",
"291 363 LINE",
"162 395 LINE",
"162 374 LINE",
"77 352 OFFCURVE",
"23 281 OFFCURVE",
"23 193 CURVE SMOOTH",
"23 61 OFFCURVE",
"144 -25 OFFCURVE",
"292 -25 CURVE SMOOTH",
"460 -25 OFFCURVE",
"558 85 OFFCURVE",
"558 220 CURVE SMOOTH",
"558 284 OFFCURVE",
"536 354 OFFCURVE",
"489 420 CURVE"
);
},
{
closed = 1;
nodes = (
"357 306 LINE",
"530 415 OFFCURVE",
"594 368 OFFCURVE",
"663 332 CURVE",
"686 425 LINE",
"606 479 OFFCURVE",
"533 471 OFFCURVE",
"330 355 CURVE"
);
}
);
width = 666;
}
);
unicode = 0026;
},
{
color = 3;
glyphname = quotesingle;
layers = (
{
layerId = "E4D94E08-F159-4C87-90C4-095EDBFC645B";
name = Regular;
paths = (
{
closed = 1;
nodes = (
"44 504 LINE",
"85 577 OFFCURVE",
"110 651 OFFCURVE",
"119 728 CURVE",
"47 744 LINE",
"20 724 LINE",
"18 689 OFFCURVE",
"14 621 OFFCURVE",
"-21 525 CURVE"
);
}
);
width = 169;
}
);
unicode = 0027;
},
{
color = 3;
glyphname = parenleft;
layers = (
{
layerId = "E4D94E08-F159-4C87-90C4-095EDBFC645B";
name = Regular;
paths = (
{
closed = 1;
nodes = (
"244 -128 LINE",
"166 4 OFFCURVE",
"118 152 OFFCURVE",
"118 299 CURVE SMOOTH",
"118 424 OFFCURVE",
"159 566 OFFCURVE",
"253 706 CURVE",
"201 732 LINE",
"75 579 OFFCURVE",
"24 427 OFFCURVE",
"24 294 CURVE SMOOTH",
"24 135 OFFCURVE",
"88 -15 OFFCURVE",
"190 -155 CURVE"
);
}
);
width = 275;
}
);
unicode = 0028;
},
{
color = 3;
glyphname = parenright;
layers = (
{
layerId = "E4D94E08-F159-4C87-90C4-095EDBFC645B";
name = Regular;
paths = (
{
closed = 1;
nodes = (
"187 -15 OFFCURVE",
"251 135 OFFCURVE",
"251 294 CURVE SMOOTH",
"251 427 OFFCURVE",
"200 579 OFFCURVE",
"74 732 CURVE",
"22 706 LINE",
"116 566 OFFCURVE",
"157 424 OFFCURVE",
"157 299 CURVE SMOOTH",
"157 152 OFFCURVE",
"109 4 OFFCURVE",
"31 -128 CURVE",
"85 -155 LINE"
);
}
);
width = 274;
}
);
unicode = 0029;
},
{
color = 3;
glyphname = asterisk;
layers = (
{
layerId = "E4D94E08-F159-4C87-90C4-095EDBFC645B";
name = Regular;
paths = (
{
closed = 1;
nodes = (
"122 736 LINE",
"147 604 LINE",
"187 607 LINE",
"200 755 LINE"
);
},
{
closed = 1;
nodes = (
"315 681 LINE",
"198 616 LINE",
"213 579 LINE",
"357 612 LINE"
);
},
{
closed = 1;
nodes = (
"329 480 LINE",
"230 572 LINE",
"199 546 LINE",
"275 419 LINE"
);
},
{
closed = 1;
nodes = (
"139 407 LINE",
"195 530 LINE",
"161 551 LINE",
"64 439 LINE"
);
},
{
closed = 1;
nodes = (
"13 566 LINE",
"147 550 LINE",
"156 589 LINE",
"20 647 LINE"
);
}
);
width = 369;
}
);
unicode = 002A;
},
{
color = 3;
glyphname = plus;
layers = (
{
layerId = "E4D94E08-F159-4C87-90C4-095EDBFC645B";
name = Regular;
paths = (
{
closed = 1;
nodes = (
"324 265 LINE",
"324 465 LINE",
"247 465 LINE",
"247 265 LINE",
"60 265 LINE",
"60 199 LINE",
"247 199 LINE",
"247 0 LINE",
"324 0 LINE",
"324 199 LINE",
"511 199 LINE",
"511 265 LINE"
);
}
);
width = 571;
}
);
leftMetricsKey = minus;
rightMetricsKey = minus;
unicode = 002B;
},
{
color = 3;
glyphname = comma;
layers = (
{
layerId = "E4D94E08-F159-4C87-90C4-095EDBFC645B";
name = Regular;
paths = (
{
closed = 1;
nodes = (
"71 -146 LINE",
"148 -104 OFFCURVE",
"190 -34 OFFCURVE",
"190 25 CURVE SMOOTH",
"190 69 OFFCURVE",
"163 106 OFFCURVE",
"119 120 CURVE",
"87 104 OFFCURVE",
"64 78 OFFCURVE",
"58 40 CURVE",
"110 0 LINE",
"107 -36 OFFCURVE",
"85 -72 OFFCURVE",
"42 -108 CURVE"
);
}
);
width = 244;
}
);
unicode = 002C;
},
{
color = 3;
glyphname = hyphen;
layers = (
{
layerId = "E4D94E08-F159-4C87-90C4-095EDBFC645B";
name = Regular;
paths = (
{
closed = 1;
nodes = (
"314 249 LINE",
"323 269 LINE",
"293 319 LINE",
"39 319 LINE",
"30 299 LINE",
"60 249 LINE"
);
}
);
width = 353;
}
);
unicode = 002D;
},
{
color = 3;
glyphname = period;
layers = (
{
layerId = "E4D94E08-F159-4C87-90C4-095EDBFC645B";
name = Regular;
paths = (
{
closed = 1;
nodes = (
"169 -19 OFFCURVE",
"191 9 OFFCURVE",
"200 33 CURVE",
"187 50 OFFCURVE",
"159 76 OFFCURVE",
"135 85 CURVE",
"115 73 OFFCURVE",
"94 45 OFFCURVE",
"81 19 CURVE",
"95 -1 OFFCURVE",
"127 -25 OFFCURVE",
"148 -33 CURVE"
);
}
);
width = 200;
}
);
unicode = 002E;
},
{
color = 3;
glyphname = slash;
layers = (
{
layerId = "E4D94E08-F159-4C87-90C4-095EDBFC645B";
name = Regular;
paths = (
{
closed = 1;
nodes = (
"97 -125 LINE",
"403 680 LINE",
"340 707 LINE",
"33 -100 LINE"
);
}
);
width = 403;
}
);
unicode = 002F;
},
{
color = 3;
glyphname = zero;
layers = (
{
layerId = "E4D94E08-F159-4C87-90C4-095EDBFC645B";
name = Regular;
paths = (
{
closed = 1;
nodes = (
"46 158 OFFCURVE",
"116 -10 OFFCURVE",
"277 -10 CURVE SMOOTH",
"435 -10 OFFCURVE",
"515 152 OFFCURVE",
"515 341 CURVE SMOOTH",
"515 516 OFFCURVE",
"446 661 OFFCURVE",
"293 661 CURVE SMOOTH",
"122 661 OFFCURVE",
"46 481 OFFCURVE",
"46 316 CURVE SMOOTH"
);
},
{
closed = 1;
nodes = (
"237 593 OFFCURVE",
"252 595 OFFCURVE",
"266 595 CURVE SMOOTH",
"374 595 OFFCURVE",
"422 466 OFFCURVE",
"422 327 CURVE SMOOTH",
"422 243 OFFCURVE",
"403 119 OFFCURVE",
"340 62 CURVE",
"325 57 OFFCURVE",
"311 55 OFFCURVE",
"298 55 CURVE SMOOTH",
"180 55 OFFCURVE",
"138 222 OFFCURVE",
"138 330 CURVE SMOOTH",
"138 405 OFFCURVE",
"160 533 OFFCURVE",
"220 588 CURVE"
);
}
);
width = 564;
}
);
unicode = 0030;
},
{
color = 3;
glyphname = one;
layers = (
{
layerId = "E4D94E08-F159-4C87-90C4-095EDBFC645B";
name = Regular;
paths = (
{
closed = 1;
nodes = (
"200 569 LINE",
"230 645 LINE",
"217 670 LINE",
"25 544 LINE",
"53 499 LINE"
);
},
{
closed = 1;
nodes = (
"264 645 LINE",
"217 670 LINE",
"184 610 LINE"
);
},
{
closed = 1;
nodes = (
"175 0 LINE",
"264 0 LINE",
"264 645 LINE",
"175 633 LINE"
);
},
{
closed = 1;
nodes = (
"185 0 LINE",
"199 82 LINE",
"143 69 OFFCURVE",
"90 54 OFFCURVE",
"38 34 CURVE",
"44 0 LINE"
);
},
{
closed = 1;
nodes = (
"381 0 LINE",
"387 48 LINE",
"247 67 LINE",
"246 0 LINE"
);
}
);
width = 407;
}
);
unicode = 0031;
},
{
color = 3;
glyphname = two;
layers = (
{
layerId = "E4D94E08-F159-4C87-90C4-095EDBFC645B";
name = Regular;
paths = (
{
closed = 1;
nodes = (
"126 455 LINE",
"146 595 LINE",
"61 607 LINE",
"58 557 OFFCURVE",
"60 506 OFFCURVE",
"69 456 CURVE"
);
},
{
closed = 1;
nodes = (
"62 0 LINE",
"461 0 LINE",
"461 88 LINE",
"158 70 LINE",
"155 79 LINE",
"328 264 LINE",
"410 358 OFFCURVE",
"458 416 OFFCURVE",
"458 493 CURVE SMOOTH",
"458 593 OFFCURVE",
"377 665 OFFCURVE",
"280 670 CURVE SMOOTH",
"214 674 OFFCURVE",
"126 647 OFFCURVE",
"61 607 CURVE",
"99 564 LINE",
"153 587 OFFCURVE",
"220 599 OFFCURVE",
"256 599 CURVE SMOOTH",
"334 599 OFFCURVE",
"361 541 OFFCURVE",
"361 495 CURVE SMOOTH",
"361 444 OFFCURVE",
"328 383 OFFCURVE",
"252 298 CURVE SMOOTH",
"44 64 LINE"
);
},
{
closed = 1;
nodes = (
"434 173 LINE",
"386 40 LINE",
"461 0 LINE",
"472 39 OFFCURVE",
"483 107 OFFCURVE",
"488 165 CURVE"
);
}
);
width = 545;
}
);
unicode = 0032;
},
{
color = 3;
glyphname = three;
layers = (
{
layerId = "E4D94E08-F159-4C87-90C4-095EDBFC645B";
name = Regular;
paths = (
{
closed = 1;
nodes = (
"152 604 LINE",
"67 616 LINE",
"64 566 OFFCURVE",
"66 537 OFFCURVE",
"75 487 CURVE",
"133 486 LINE"
);
},
{
closed = 1;
nodes = (
"347 429 OFFCURVE",
"299 355 OFFCURVE",
"151 355 CURVE",
"159 290 LINE",
"303 330 LINE",
"303 346 LINE",
"398 373 OFFCURVE",
"442 441 OFFCURVE",
"442 508 CURVE SMOOTH",
"442 590 OFFCURVE",
"375 670 OFFCURVE",
"250 670 CURVE SMOOTH",
"187 670 OFFCURVE",
"116 650 OFFCURVE",
"67 616 CURVE",
"104 576 LINE",
"139 596 OFFCURVE",
"181 607 OFFCURVE",
"220 607 CURVE SMOOTH",
"303 607 OFFCURVE",
"347 556 OFFCURVE",
"347 494 CURVE SMOOTH"
);
},
{
closed = 1;
nodes = (
"60 28 LINE",
"115 0 OFFCURVE",
"186 -19 OFFCURVE",
"253 -19 CURVE SMOOTH",
"411 -19 OFFCURVE",
"476 85 OFFCURVE",
"476 170 CURVE SMOOTH",
"476 264 OFFCURVE",
"397 350 OFFCURVE",
"302 357 CURVE",
"288 357 LINE",
"151 355 LINE",
"147 355 LINE",
"149 287 LINE",
"220 290 LINE",
"332 290 OFFCURVE",
"386 228 OFFCURVE",
"386 161 CURVE SMOOTH",
"386 129 OFFCURVE",
"374 96 OFFCURVE",
"349 69 CURVE",
"269 51 OFFCURVE",
"156 78 OFFCURVE",
"78 118 CURVE"
);
}
);
width = 531;
}
);
unicode = 0033;
},
{
color = 3;
glyphname = four;
layers = (
{
layerId = "E4D94E08-F159-4C87-90C4-095EDBFC645B";
name = Regular;
paths = (
{
closed = 1;
nodes = (
"101 204 LINE",
"343 582 LINE",
"379 553 LINE",
"415 660 LINE",
"338 670 LINE",
"25 232 LINE",
"48 175 LINE",
"503 175 LINE",
"531 200 LINE",
"530 250 LINE",
"82 238 LINE"
);
},
{
closed = 1;
nodes = (
"326 0 LINE",
"415 0 LINE",
"415 660 LINE",
"328 635 LINE",
"342 604 LINE",
"326 483 LINE"
);
},
{
closed = 1;
nodes = (
"362 0 LINE",
"376 82 LINE",
"320 69 OFFCURVE",
"267 54 OFFCURVE",
"215 34 CURVE",
"221 0 LINE"
);
},
{
closed = 1;
nodes = (
"492 0 LINE",
"498 48 LINE",
"358 67 LINE",
"357 0 LINE"
);
}
);
width = 566;
}
);
unicode = 0034;
},
{
color = 3;
glyphname = five;
layers = (
{
layerId = "E4D94E08-F159-4C87-90C4-095EDBFC645B";
name = Regular;
paths = (
{
closed = 1;
nodes = (
"459 538 OFFCURVE",
"461 600 OFFCURVE",
"458 650 CURVE",
"373 638 LINE",
"393 487 LINE",
"450 488 LINE"
);
},
{
closed = 1;
nodes = (
"49 51 LINE",
"113 8 OFFCURVE",
"200 -20 OFFCURVE",
"272 -20 CURVE SMOOTH",
"401 -20 OFFCURVE",
"492 67 OFFCURVE",
"492 189 CURVE SMOOTH",
"492 331 OFFCURVE",
"370 391 OFFCURVE",
"260 391 CURVE SMOOTH",
"229 391 OFFCURVE",
"188 386 OFFCURVE",
"162 373 CURVE",
"182 580 LINE",
"448 568 LINE",
"458 650 LINE",
"118 650 LINE",
"83 327 LINE",
"132 284 LINE",
"165 297 OFFCURVE",
"209 307 OFFCURVE",
"248 307 CURVE SMOOTH",
"328 307 OFFCURVE",
"406 266 OFFCURVE",
"406 169 CURVE SMOOTH",
"406 140 OFFCURVE",
"399 104 OFFCURVE",
"357 66 CURVE",
"269 49 OFFCURVE",
"173 75 OFFCURVE",
"88 133 CURVE"
);
}
);
width = 547;
}
);
unicode = 0035;
},
{
color = 3;
glyphname = six;
layers = (
{
layerId = "E4D94E08-F159-4C87-90C4-095EDBFC645B";
name = Regular;
paths = (
{
closed = 1;
nodes = (
"194 284 LINE",
"230 310 OFFCURVE",
"266 323 OFFCURVE",
"295 323 CURVE SMOOTH",
"362 323 OFFCURVE",
"399 254 OFFCURVE",
"399 181 CURVE SMOOTH",
"399 119 OFFCURVE",
"372 72 OFFCURVE",
"323 47 CURVE",
"197 37 OFFCURVE",
"135 139 OFFCURVE",
"135 268 CURVE SMOOTH",
"135 387 OFFCURVE",
"187 517 OFFCURVE",
"288 563 CURVE",
"436 563 LINE",
"435 664 LINE",
"146 651 OFFCURVE",
"40 428 OFFCURVE",
"40 261 CURVE SMOOTH",
"40 98 OFFCURVE",
"141 -20 OFFCURVE",
"282 -20 CURVE SMOOTH",
"411 -20 OFFCURVE",
"494 80 OFFCURVE",
"494 196 CURVE SMOOTH",
"494 296 OFFCURVE",
"432 393 OFFCURVE",
"332 393 CURVE SMOOTH",
"298 393 OFFCURVE",
"237 382 OFFCURVE",
"171 325 CURVE"
);
}
);
width = 529;
}
);
unicode = 0036;
},
{
color = 3;
glyphname = seven;
layers = (
{
layerId = "E4D94E08-F159-4C87-90C4-095EDBFC645B";
name = Regular;
paths = (
{
closed = 1;
nodes = (
"414 650 LINE",
"26 650 LINE",
"72 565 LINE",
"360 577 LINE",
"367 568 LINE",
"255 402 OFFCURVE",
"163 215 OFFCURVE",
"91 15 CURVE",
"183 -11 LINE",
"250 194 OFFCURVE",
"333 390 OFFCURVE",
"450 575 CURVE"
);
},
{
closed = 1;
nodes = (
"91 482 LINE",
"111 638 LINE",
"26 650 LINE",
"23 600 OFFCURVE",
"25 533 OFFCURVE",
"34 483 CURVE"
);
}
);
width = 459;
}
);
unicode = 0037;
},
{
color = 3;
glyphname = eight;
layers = (
{
layerId = "E4D94E08-F159-4C87-90C4-095EDBFC645B";
name = Regular;
paths = (
{
closed = 1;
nodes = (
"397 385 OFFCURVE",
"445 450 OFFCURVE",
"445 518 CURVE SMOOTH",
"445 601 OFFCURVE",
"375 668 OFFCURVE",
"256 668 CURVE SMOOTH",
"131 668 OFFCURVE",
"55 593 OFFCURVE",
"55 502 CURVE SMOOTH",
"55 433 OFFCURVE",
"99 373 OFFCURVE",
"182 329 CURVE",
"227 307 LINE",
"329 256 OFFCURVE",
"374 206 OFFCURVE",
"374 148 CURVE SMOOTH",
"374 120 OFFCURVE",
"363 90 OFFCURVE",
"343 56 CURVE",
"313 46 OFFCURVE",
"286 41 OFFCURVE",
"262 41 CURVE SMOOTH",
"181 41 OFFCURVE",
"139 98 OFFCURVE",
"139 162 CURVE SMOOTH",
"139 217 OFFCURVE",
"170 277 OFFCURVE",
"233 309 CURVE",
"200 339 LINE",
"97 293 OFFCURVE",
"40 229 OFFCURVE",
"40 150 CURVE SMOOTH",
"40 58 OFFCURVE",
"115 -20 OFFCURVE",
"247 -20 CURVE SMOOTH",
"385 -20 OFFCURVE",
"465 66 OFFCURVE",
"465 164 CURVE SMOOTH",
"465 266 OFFCURVE",
"377 318 OFFCURVE",
"293 363 CURVE SMOOTH",
"220 402 OFFCURVE",
"144 439 OFFCURVE",
"144 512 CURVE SMOOTH",
"144 538 OFFCURVE",
"154 567 OFFCURVE",
"179 598 CURVE",
"204 608 OFFCURVE",
"227 613 OFFCURVE",
"249 613 CURVE SMOOTH",
"317 613 OFFCURVE",
"362 564 OFFCURVE",
"362 504 CURVE SMOOTH",
"362 474 OFFCURVE",
"351 418 OFFCURVE",
"258 362 CURVE",
"286 332 LINE"
);
}
);
width = 505;
}
);
unicode = 0038;
},
{
color = 3;
glyphname = nine;
layers = (
{
layerId = "E4D94E08-F159-4C87-90C4-095EDBFC645B";
name = Regular;
paths = (
{
closed = 1;
nodes = (
"211 281 OFFCURVE",
"125 355 OFFCURVE",
"125 461 CURVE SMOOTH",
"125 516 OFFCURVE",
"148 575 OFFCURVE",
"194 602 CURVE",
"326 639 OFFCURVE",
"378 511 OFFCURVE",
"378 374 CURVE SMOOTH",
"378 267 OFFCURVE",
"347 155 OFFCURVE",
"247 92 CURVE",
"89 101 LINE",
"105 -8 LINE",
"293 -6 OFFCURVE",
"472 139 OFFCURVE",
"472 381 CURVE SMOOTH",
"472 549 OFFCURVE",
"386 670 OFFCURVE",
"245 670 CURVE SMOOTH",
"131 670 OFFCURVE",
"30 591 OFFCURVE",
"30 459 CURVE SMOOTH",
"30 317 OFFCURVE",
"146 198 OFFCURVE",
"336 261 CURVE",
"325 314 LINE"
);
}
);
width = 502;
}
);
unicode = 0039;
},
{
color = 3;
glyphname = colon;
layers = (
{
layerId = "E4D94E08-F159-4C87-90C4-095EDBFC645B";
name = Regular;
paths = (
{
closed = 1;
nodes = (
"221 84 OFFCURVE",
"194 109 OFFCURVE",
"154 124 CURVE",
"118 106 OFFCURVE",
"96 79 OFFCURVE",
"90 41 CURVE",
"104 8 OFFCURVE",
"130 -13 OFFCURVE",
"166 -20 CURVE",
"196 -6 OFFCURVE",
"217 18 OFFCURVE",
"227 52 CURVE"
);
},
{
closed = 1;
nodes = (
"221 391 OFFCURVE",
"194 416 OFFCURVE",
"154 431 CURVE",
"118 413 OFFCURVE",
"96 386 OFFCURVE",
"90 348 CURVE",
"104 315 OFFCURVE",
"130 294 OFFCURVE",
"166 287 CURVE",
"196 301 OFFCURVE",
"217 325 OFFCURVE",
"227 359 CURVE"
);
}
);
width = 327;
}
);
leftMetricsKey = period;
rightMetricsKey = period;
unicode = 003A;
},
{
color = 3;
glyphname = semicolon;
layers = (
{
layerId = "E4D94E08-F159-4C87-90C4-095EDBFC645B";
name = Regular;
paths = (
{
closed = 1;
nodes = (
"185 391 OFFCURVE",
"158 416 OFFCURVE",
"118 431 CURVE",
"82 413 OFFCURVE",
"60 386 OFFCURVE",
"54 348 CURVE",
"68 315 OFFCURVE",
"94 294 OFFCURVE",
"130 287 CURVE",
"160 301 OFFCURVE",
"181 325 OFFCURVE",
"191 359 CURVE"
);
},
{
closed = 1;
nodes = (
"71 -146 LINE",
"148 -104 OFFCURVE",
"190 -34 OFFCURVE",
"190 25 CURVE SMOOTH",
"190 69 OFFCURVE",
"163 106 OFFCURVE",
"119 120 CURVE",
"87 104 OFFCURVE",
"64 78 OFFCURVE",
"58 40 CURVE",
"110 0 LINE",
"107 -36 OFFCURVE",
"85 -72 OFFCURVE",
"42 -108 CURVE"
);
}
);
width = 245;
}
);
leftMetricsKey = comma;
rightMetricsKey = comma;
unicode = 003B;
},
{
color = 3;
glyphname = less;
layers = (
{
layerId = "E4D94E08-F159-4C87-90C4-095EDBFC645B";
name = Regular;
paths = (
{
closed = 1;
nodes = (
"80 272 LINE",
"88 202 LINE",
"457 -6 LINE",
"490 52 LINE",
"165 235 LINE",
"164 241 LINE",
"493 446 LINE",
"458 500 LINE"
);
}
);
width = 573;
}
);
unicode = 003C;
},
{
color = 3;
glyphname = equal;
layers = (
{
layerId = "E4D94E08-F159-4C87-90C4-095EDBFC645B";
name = Regular;
paths = (
{
closed = 1;
nodes = (
"60 189 LINE",
"60 124 LINE",
"532 124 LINE",
"532 189 LINE"
);
},
{
closed = 1;
nodes = (
"60 369 LINE",
"60 304 LINE",
"532 304 LINE",
"532 369 LINE"
);
}
);
width = 592;
}
);
leftMetricsKey = minus;
rightMetricsKey = minus;
unicode = 003D;
},
{
color = 3;
glyphname = greater;
layers = (
{
layerId = "E4D94E08-F159-4C87-90C4-095EDBFC645B";
name = Regular;
paths = (
{
closed = 1;
nodes = (
"409 241 LINE",
"408 235 LINE",
"83 52 LINE",
"116 -6 LINE",
"485 202 LINE",
"493 272 LINE",
"115 500 LINE",
"80 446 LINE"
);
}
);
width = 573;
}
);
unicode = 003E;
},
{
color = 3;
glyphname = question;
layers = (
{
layerId = "E4D94E08-F159-4C87-90C4-095EDBFC645B";
name = Regular;
paths = (
{
closed = 1;
nodes = (
"173 465 LINE",
"186 594 LINE",
"101 606 LINE",
"101 606 OFFCURVE",
"104 540 OFFCURVE",
"116 465 CURVE"
);
},
{
closed = 1;
nodes = (
"297 337 OFFCURVE",
"469 350 OFFCURVE",
"469 493 CURVE SMOOTH",
"469 590 OFFCURVE",
"391 670 OFFCURVE",
"279 670 CURVE SMOOTH",
"224 670 OFFCURVE",
"160 651 OFFCURVE",
"101 606 CURVE",
"152 546 LINE",
"221 596 OFFCURVE",
"295 611 OFFCURVE",
"339 609 CURVE",
"368 587 OFFCURVE",
"389 556 OFFCURVE",
"389 512 CURVE SMOOTH",
"389 386 OFFCURVE",
"215 388 OFFCURVE",
"216 232 CURVE",
"297 232 LINE"
);
},
{
closed = 1;
nodes = (
"234 106 OFFCURVE",
"212 79 OFFCURVE",
"206 41 CURVE",
"220 8 OFFCURVE",
"246 -13 OFFCURVE",
"282 -20 CURVE",
"312 -6 OFFCURVE",
"333 18 OFFCURVE",
"343 52 CURVE",
"337 84 OFFCURVE",
"310 109 OFFCURVE",
"270 124 CURVE"
);
}
);
width = 582;
}
);
unicode = 003F;
},
{
color = 3;
glyphname = at;
layers = (
{
layerId = "E4D94E08-F159-4C87-90C4-095EDBFC645B";
name = Regular;
paths = (
{
closed = 1;
nodes = (
"428 409 LINE",
"455 417 OFFCURVE",
"503 425 OFFCURVE",
"541 426 CURVE",
"577 408 OFFCURVE",
"591 381 OFFCURVE",
"591 319 CURVE SMOOTH",
"591 68 LINE",
"593 61 LINE",
"605 24 OFFCURVE",
"645 -13 OFFCURVE",
"666 -15 CURVE",
"847 5 OFFCURVE",
"939 148 OFFCURVE",
"939 299 CURVE SMOOTH",
"939 478 OFFCURVE",
"809 668 OFFCURVE",
"533 668 CURVE SMOOTH",
"265 668 OFFCURVE",
"101 488 OFFCURVE",
"101 285 CURVE SMOOTH",
"101 182 OFFCURVE",
"143 73 OFFCURVE",
"232 -22 CURVE",
"293 18 LINE",
"230 100 OFFCURVE",
"200 192 OFFCURVE",
"200 279 CURVE SMOOTH",
"200 457 OFFCURVE",
"328 608 OFFCURVE",
"538 608 CURVE SMOOTH",
"755 608 OFFCURVE",
"844 448 OFFCURVE",
"844 298 CURVE SMOOTH",
"844 205 OFFCURVE",
"810 113 OFFCURVE",
"745 70 CURVE SMOOTH",
"719 53 OFFCURVE",
"680 38 OFFCURVE",
"680 89 CURVE SMOOTH",
"680 319 LINE SMOOTH",
"680 389 OFFCURVE",
"677 406 OFFCURVE",
"668 423 CURVE SMOOTH",
"653 451 OFFCURVE",
"604 493 OFFCURVE",
"561 493 CURVE SMOOTH",
"520 493 OFFCURVE",
"398 455 OFFCURVE",
"338 421 CURVE",
"340 379 OFFCURVE",
"349 345 OFFCURVE",
"367 302 CURVE",
"420 306 LINE"
);
},
{
closed = 1;
nodes = (
"346 183 OFFCURVE",
"326 142 OFFCURVE",
"326 104 CURVE SMOOTH",
"326 46 OFFCURVE",
"373 -26 OFFCURVE",
"483 -14 CURVE",
"605 60 LINE",
"605 102 LINE",
"574 87 OFFCURVE",
"504 56 OFFCURVE",
"446 58 CURVE",
"428 69 OFFCURVE",
"420 86 OFFCURVE",
"420 104 CURVE SMOOTH",
"420 168 OFFCURVE",
"522 171 OFFCURVE",
"596 164 CURVE",
"612 163 LINE",
"606 217 LINE",
"396 211 LINE"
);
}
);
width = 1036;
}
);
unicode = 0040;
},
{
color = 3;
glyphname = A;
layers = (
{
anchors = (
{
name = ogonek;
position = "{628, 1}";
},
{
name = top;
position = "{334, 650}";
}
);
layerId = "E4D94E08-F159-4C87-90C4-095EDBFC645B";
name = Regular;
paths = (
{
closed = 1;
nodes = (
"37 0 LINE",
"117 0 LINE",
"357 612 LINE",
"300 637 LINE"
);
},
{
closed = 1;
nodes = (
"290 647 LINE",
"545 0 LINE",
"646 0 LINE",
"369 674 LINE"
);
},
{
closed = 1;
nodes = (
"182 262 LINE",
"182 201 LINE",
"473 201 LINE",
"473 262 LINE"
);
},
{
closed = 1;
nodes = (
"46 57 OFFCURVE",
"10 46 OFFCURVE",
"-20 32 CURVE",
"-14 0 LINE",
"80 0 LINE",
"79 67 LINE"
);
},
{
closed = 1;
nodes = (
"104 0 LINE",
"244 0 LINE",
"245 47 LINE",
"107 63 LINE"
);
},
{
closed = 1;
nodes = (
"487 57 OFFCURVE",
"451 46 OFFCURVE",
"421 32 CURVE",
"427 0 LINE",
"573 0 LINE",
"520 67 LINE"
);
},
{
closed = 1;
nodes = (
"555 0 LINE",
"695 0 LINE",
"696 47 LINE",
"558 63 LINE"
);
}
);
width = 696;
}
);
leftKerningGroup = A;
rightKerningGroup = A;
unicode = 0041;
},
{
color = 3;
glyphname = B;
layers = (
{
layerId = "E4D94E08-F159-4C87-90C4-095EDBFC645B";
name = Regular;
paths = (
{
closed = 1;
nodes = (
"224 658 OFFCURVE",
"128 654 OFFCURVE",
"45 650 CURVE",
"195 583 LINE",
"345 599 LINE",
"404 589 OFFCURVE",
"446 538 OFFCURVE",
"446 485 CURVE SMOOTH",
"446 426 OFFCURVE",
"395 368 OFFCURVE",
"258 368 CURVE SMOOTH",
"180 368 LINE",
"180 315 LINE",
"262 323 LINE",
"393 346 LINE",
"502 352 OFFCURVE",
"549 422 OFFCURVE",
"549 492 CURVE SMOOTH",
"549 577 OFFCURVE",
"480 658 OFFCURVE",
"306 658 CURVE"
);
},
{
closed = 1;
nodes = (
"96 57 OFFCURVE",
"60 46 OFFCURVE",
"30 32 CURVE",
"36 0 LINE",
"130 0 LINE",
"129 67 LINE"
);
},
{
closed = 1;
nodes = (
"115 648 LINE",
"115 0 LINE",
"208 0 LINE",
"208 648 LINE"
);
},
{
closed = 1;
nodes = (
"204 332 LINE",
"187 314 LINE",
"306 314 LINE SMOOTH",
"418 314 OFFCURVE",
"476 243 OFFCURVE",
"476 177 CURVE SMOOTH",
"476 112 OFFCURVE",
"422 52 OFFCURVE",
"308 61 CURVE SMOOTH",
"187 71 LINE",
"184 0 LINE",
"318 0 LINE SMOOTH",
"498 0 OFFCURVE",
"584 84 OFFCURVE",
"584 179 CURVE SMOOTH",
"584 274 OFFCURVE",
"497 361 OFFCURVE",
"336 348 CURVE"
);
},
{
closed = 1;
nodes = (
"45 650 LINE",
"44 602 LINE",
"140 596 LINE",
"138 650 LINE"
);
}
);
width = 619;
}
);
leftKerningGroup = I;
leftMetricsKey = I;
unicode = 0042;
},
{
color = 3;
glyphname = C;
layers = (
{
anchors = (
{
name = bottom;
position = "{314, 0}";
},
{
name = top;
position = "{314, 650}";
}
);
layerId = "E4D94E08-F159-4C87-90C4-095EDBFC645B";
name = Regular;
paths = (
{
closed = 1;
nodes = (
"515 122 LINE",
"361 68 LINE",
"201 56 OFFCURVE",
"117 184 OFFCURVE",
"117 340 CURVE SMOOTH",
"117 434 OFFCURVE",
"147 547 OFFCURVE",
"236 597 CURVE",
"339 609 OFFCURVE",
"419 576 OFFCURVE",
"491 513 CURVE",
"517 609 LINE",
"484 634 OFFCURVE",
"417 670 OFFCURVE",
"324 670 CURVE SMOOTH",
"117 670 OFFCURVE",
"15 491 OFFCURVE",
"15 317 CURVE SMOOTH",
"15 142 OFFCURVE",
"117 -17 OFFCURVE",
"337 -15 CURVE",
"533 73 LINE"
);
},
{
closed = 1;
nodes = (
"500 454 LINE",
"519 511 OFFCURVE",
"520 576 OFFCURVE",
"517 609 CURVE",
"432 564 LINE",
"440 454 LINE"
);
}
);
width = 553;
}
);
leftKerningGroup = O;
leftMetricsKey = O;
rightKerningGroup = C;
unicode = 0043;
},
{
color = 3;
glyphname = D;
layers = (
{
anchors = (
{
name = bottom;
position = "{302, 0}";
},
{
name = center;
position = "{335, 325}";
},
{
name = top;
position = "{302, 650}";
}
);
layerId = "E4D94E08-F159-4C87-90C4-095EDBFC645B";
name = Regular;
paths = (
{
closed = 1;
nodes = (
"243 658 OFFCURVE",
"144 655 OFFCURVE",
"45 650 CURVE",
"191 583 LINE",
"392 599 LINE",
"471 558 OFFCURVE",
"531 450 OFFCURVE",
"531 329 CURVE SMOOTH",
"531 197 OFFCURVE",
"459 66 OFFCURVE",
"301 66 CURVE SMOOTH",
"264 66 OFFCURVE",
"222 73 OFFCURVE",
"176 89 CURVE",
"180 0 LINE",
"302 0 LINE SMOOTH",
"536 0 OFFCURVE",
"635 165 OFFCURVE",
"635 329 CURVE SMOOTH",
"635 493 OFFCURVE",
"525 658 OFFCURVE",
"342 658 CURVE SMOOTH"
);
},
{
closed = 1;
nodes = (
"96 57 OFFCURVE",
"60 46 OFFCURVE",
"30 32 CURVE",
"36 0 LINE",
"130 0 LINE",
"129 67 LINE"
);
},
{
closed = 1;
nodes = (
"115 648 LINE",
"115 0 LINE",
"208 0 LINE",
"208 648 LINE"
);
},
{
closed = 1;
nodes = (
"45 650 LINE",
"44 602 LINE",
"140 596 LINE",
"138 650 LINE"
);
}
);
width = 655;
}
);
leftKerningGroup = I;
leftMetricsKey = I;
rightKerningGroup = O;
rightMetricsKey = O;
unicode = 0044;
},
{
color = 3;
glyphname = E;
layers = (
{
anchors = (
{
name = bottom;
position = "{290, 0}";
},
{
name = ogonek;
position = "{502, 1}";
},
{
name = top;
position = "{290, 650}";
}
);
layerId = "E4D94E08-F159-4C87-90C4-095EDBFC645B";
name = Regular;
paths = (
{
closed = 1;
nodes = (
"115 650 LINE",
"115 0 LINE",
"208 0 LINE",
"208 650 LINE"
);
},
{
closed = 1;
nodes = (
"96 57 OFFCURVE",
"60 46 OFFCURVE",
"30 32 CURVE",
"36 0 LINE",
"130 0 LINE",
"129 67 LINE"
);
},
{
closed = 1;
nodes = (
"184 64 LINE",
"109 0 LINE",
"502 0 LINE",
"485 77 LINE"
);
},
{
closed = 1;
nodes = (
"197 353 LINE",
"197 294 LINE",
"437 284 LINE",
"437 371 LINE"
);
},
{
closed = 1;
nodes = (
"109 650 LINE",
"184 594 LINE",
"485 573 LINE",
"502 650 LINE"
);
},
{
closed = 1;
nodes = (
"45 650 LINE",
"44 602 LINE",
"140 596 LINE",
"138 650 LINE"
);
},
{
closed = 1;
nodes = (
"427 40 LINE",
"502 0 LINE",
"510 43 OFFCURVE",
"516 126 OFFCURVE",
"514 179 CURVE",
"461 183 LINE"
);
},
{
closed = 1;
nodes = (
"492 485 LINE",
"503 546 OFFCURVE",
"505 617 OFFCURVE",
"502 650 CURVE",
"422 605 LINE",
"438 485 LINE"
);
}
);
width = 563;
}
);
leftKerningGroup = I;
leftMetricsKey = I;
rightKerningGroup = E;
unicode = 0045;
},
{
color = 3;
glyphname = F;
layers = (
{
anchors = (
{
name = bottom;
position = "{290, 0}";
},
{
name = top;
position = "{290, 650}";
}
);
layerId = "E4D94E08-F159-4C87-90C4-095EDBFC645B";
name = Regular;
paths = (
{
closed = 1;
nodes = (
"115 650 LINE",
"115 0 LINE",
"208 0 LINE",
"208 650 LINE"
);
},
{
closed = 1;
nodes = (
"96 57 OFFCURVE",
"60 46 OFFCURVE",
"30 32 CURVE",
"36 0 LINE",
"130 0 LINE",
"129 67 LINE"
);
},
{
closed = 1;
nodes = (
"184 0 LINE",
"324 0 LINE",
"325 47 LINE",
"187 63 LINE"
);
},
{
closed = 1;
nodes = (
"197 333 LINE",
"197 274 LINE",
"437 264 LINE",
"437 351 LINE"
);
},
{
closed = 1;
nodes = (
"109 650 LINE",
"184 594 LINE",
"485 573 LINE",
"502 650 LINE"
);
},
{
closed = 1;
nodes = (
"45 650 LINE",
"44 602 LINE",
"140 596 LINE",
"138 650 LINE"
);
},
{
closed = 1;
nodes = (
"492 485 LINE",
"503 546 OFFCURVE",
"505 617 OFFCURVE",
"502 650 CURVE",
"422 605 LINE",
"438 485 LINE"
);
}
);
width = 552;
}
);
leftKerningGroup = I;
leftMetricsKey = I;
rightMetricsKey = E;
unicode = 0046;
},
{
color = 3;
glyphname = G;
layers = (
{
anchors = (
{
name = bottom;
position = "{339, 0}";
},
{
name = top;
position = "{339, 650}";
}
);
layerId = "E4D94E08-F159-4C87-90C4-095EDBFC645B";
name = Regular;
paths = (
{
closed = 1;
nodes = (
"126 670 OFFCURVE",
"15 491 OFFCURVE",
"15 311 CURVE SMOOTH",
"15 138 OFFCURVE",
"130 -33 OFFCURVE",
"369 -20 CURVE",
"564 71 LINE",
"520 96 LINE",
"478 75 OFFCURVE",
"407 54 OFFCURVE",
"342 54 CURVE SMOOTH",
"193 54 OFFCURVE",
"117 184 OFFCURVE",
"117 319 CURVE SMOOTH",
"117 433 OFFCURVE",
"154 547 OFFCURVE",
"245 597 CURVE",
"413 619 OFFCURVE",
"531 516 OFFCURVE",
"531 516 CURVE",
"559 609 LINE",
"528 633 OFFCURVE",
"457 670 OFFCURVE",
"359 670 CURVE SMOOTH"
);
},
{
closed = 1;
nodes = (
"361 266 LINE",
"404 246 OFFCURVE",
"457 231 OFFCURVE",
"494 221 CURVE",
"479 301 LINE",
"367 301 LINE"
);
},
{
closed = 1;
nodes = (
"471 59 LINE",
"564 71 LINE",
"564 301 LINE",
"471 301 LINE"
);
},
{
closed = 1;
nodes = (
"457 301 LINE",
"488 233 LINE",
"640 252 LINE",
"639 301 LINE"
);
},
{
closed = 1;
nodes = (
"542 464 LINE",
"559 523 OFFCURVE",
"562 576 OFFCURVE",
"559 609 CURVE",
"474 564 LINE",
"483 464 LINE"
);
}
);
width = 670;
}
);
leftKerningGroup = O;
leftMetricsKey = O;
rightKerningGroup = G;
unicode = 0047;
},
{
color = 3;
glyphname = H;
layers = (
{
anchors = (
{
name = center;
position = "{376, 325}";
},
{
name = top;
position = "{376, 650}";
}
);
layerId = "E4D94E08-F159-4C87-90C4-095EDBFC645B";
name = Regular;
paths = (
{
closed = 1;
nodes = (
"176 587 LINE",
"179 650 LINE",
"39 650 LINE",
"38 603 LINE"
);
},
{
closed = 1;
nodes = (
"115 650 LINE",
"115 0 LINE",
"208 0 LINE",
"208 650 LINE"
);
},
{
closed = 1;
nodes = (
"193 650 LINE",
"194 583 LINE",
"227 593 OFFCURVE",
"263 604 OFFCURVE",
"293 618 CURVE",
"287 650 LINE"
);
},
{
closed = 1;
nodes = (
"455 650 LINE",
"454 603 LINE",
"592 587 LINE",
"595 650 LINE"
);
},
{
closed = 1;
nodes = (
"531 650 LINE",
"531 0 LINE",
"624 0 LINE",
"624 650 LINE"
);
},
{
closed = 1;
nodes = (
"609 650 LINE",
"610 583 LINE",
"643 593 OFFCURVE",
"679 604 OFFCURVE",
"709 618 CURVE",
"703 650 LINE"
);
},
{
closed = 1;
nodes = (
"191 357 LINE",
"191 287 LINE",
"575 287 LINE",
"575 357 LINE"
);
},
{
closed = 1;
nodes = (
"96 57 OFFCURVE",
"60 46 OFFCURVE",
"30 32 CURVE",
"36 0 LINE",
"130 0 LINE",
"129 67 LINE"
);
},
{
closed = 1;
nodes = (
"164 0 LINE",
"304 0 LINE",
"305 47 LINE",
"167 63 LINE"
);
},
{
closed = 1;
nodes = (
"512 57 OFFCURVE",
"476 46 OFFCURVE",
"446 32 CURVE",
"452 0 LINE",
"546 0 LINE",
"545 67 LINE"
);
},
{
closed = 1;
nodes = (
"580 0 LINE",
"720 0 LINE",
"721 47 LINE",
"583 63 LINE"
);
}
);
width = 751;
}
);
leftKerningGroup = I;
leftMetricsKey = I;
rightKerningGroup = I;
rightMetricsKey = I;
unicode = 0048;
},
{
color = 3;
glyphname = I;
layers = (
{
anchors = (
{
name = ogonek;
position = "{232, 1}";
},
{
name = top;
position = "{162, 650}";
}
);
layerId = "E4D94E08-F159-4C87-90C4-095EDBFC645B";
name = Regular;
paths = (
{
closed = 1;
nodes = (
"208 0 LINE",
"208 650 LINE",
"115 650 LINE",
"115 0 LINE"
);
},
{
closed = 1;
nodes = (
"130 0 LINE",
"129 67 LINE",
"96 57 OFFCURVE",
"60 46 OFFCURVE",
"30 32 CURVE",
"36 0 LINE"
);
},
{
closed = 1;
nodes = (
"304 0 LINE",
"305 47 LINE",
"167 63 LINE",
"164 0 LINE"
);
},
{
closed = 1;
nodes = (
"39 650 LINE",
"38 603 LINE",
"176 587 LINE",
"179 650 LINE"
);
},
{
closed = 1;
nodes = (
"193 650 LINE",
"194 583 LINE",
"227 593 OFFCURVE",
"263 604 OFFCURVE",
"293 618 CURVE",
"287 650 LINE"
);
}
);
width = 335;
}
);
leftKerningGroup = I;
rightKerningGroup = I;
unicode = 0049;
},
{
color = 3;
glyphname = J;
layers = (
{
anchors = (
{
name = top;
position = "{184, 650}";
}
);
layerId = "E4D94E08-F159-4C87-90C4-095EDBFC645B";
name = Regular;
paths = (
{
closed = 1;
nodes = (
"43 650 LINE",
"42 603 LINE",
"180 587 LINE",
"183 650 LINE"
);
},
{
closed = 1;
nodes = (
"139 650 LINE",
"139 128 LINE SMOOTH",
"139 -16 OFFCURVE",
"80 -78 OFFCURVE",
"-4 -131 CURVE",
"32 -182 LINE",
"131 -124 OFFCURVE",
"232 -47 OFFCURVE",
"232 81 CURVE SMOOTH",
"232 650 LINE"
);
},
{
closed = 1;
nodes = (
"217 650 LINE",
"218 583 LINE",
"251 593 OFFCURVE",
"287 604 OFFCURVE",
"317 618 CURVE",
"311 650 LINE"
);
}
);
width = 347;
}
);
unicode = 004A;
},
{
color = 3;
glyphname = K;
layers = (
{
anchors = (
{
name = bottom;
position = "{365, 0}";
},
{
name = top;
position = "{325, 650}";
}
);
layerId = "E4D94E08-F159-4C87-90C4-095EDBFC645B";
name = Regular;
paths = (
{
closed = 1;
nodes = (
"506 650 LINE",
"177 297 LINE",
"189 218 LINE",
"566 621 LINE",
"566 650 LINE"
);
},
{
closed = 1;
nodes = (
"96 57 OFFCURVE",
"60 46 OFFCURVE",
"30 32 CURVE",
"36 0 LINE",
"130 0 LINE",
"129 67 LINE"
);
},
{
closed = 1;
nodes = (
"164 0 LINE",
"304 0 LINE",
"305 47 LINE",
"167 63 LINE"
);
},
{
closed = 1;
nodes = (
"115 650 LINE",
"115 0 LINE",
"208 0 LINE",
"208 650 LINE"
);
},
{
closed = 1;
nodes = (
"193 650 LINE",
"194 583 LINE",
"227 593 OFFCURVE",
"263 604 OFFCURVE",
"293 618 CURVE",
"287 650 LINE"
);
},
{
closed = 1;
nodes = (
"386 650 LINE",
"385 603 LINE",
"523 587 LINE",
"526 650 LINE"
);
},
{
closed = 1;
nodes = (
"509 650 LINE",
"510 583 LINE",
"543 593 OFFCURVE",
"579 604 OFFCURVE",
"609 618 CURVE",
"603 650 LINE"
);
},
{
closed = 1;
nodes = (
"38 650 LINE",
"37 603 LINE",
"175 587 LINE",
"178 650 LINE"
);
},
{
closed = 1;
nodes = (
"263 324 LINE",
"499 0 LINE",
"619 0 LINE",
"328 387 LINE"
);
},
{
closed = 1;
nodes = (
"544 0 LINE",
"637 0 LINE",
"638 48 LINE",
"542 54 LINE"
);
}
);
width = 651;
}
);
leftKerningGroup = I;
leftMetricsKey = I;
rightKerningGroup = K;
unicode = 004B;
},
{
color = 3;
glyphname = L;
layers = (
{
anchors = (
{
name = bottom;
position = "{272, 0}";
},
{
name = top;
position = "{160, 650}";
},
{
name = topright;
position = "{428, 650}";
}
);
layerId = "E4D94E08-F159-4C87-90C4-095EDBFC645B";
name = Regular;
paths = (
{
closed = 1;
nodes = (
"39 650 LINE",
"38 603 LINE",
"176 587 LINE",
"179 650 LINE"
);
},
{
closed = 1;
nodes = (
"193 650 LINE",
"194 583 LINE",
"227 593 OFFCURVE",
"263 604 OFFCURVE",
"293 618 CURVE",
"287 650 LINE"
);
},
{
closed = 1;
nodes = (
"96 57 OFFCURVE",
"60 46 OFFCURVE",
"30 32 CURVE",
"36 0 LINE",
"130 0 LINE",
"129 67 LINE"
);
},
{
closed = 1;
nodes = (
"184 66 LINE",
"109 0 LINE",
"522 0 LINE",
"505 79 LINE"
);
},
{
closed = 1;
nodes = (
"115 650 LINE",
"115 0 LINE",
"208 0 LINE",
"208 650 LINE"
);
},
{
closed = 1;
nodes = (
"444 40 LINE",
"522 0 LINE",
"531 48 OFFCURVE",
"535 137 OFFCURVE",
"534 199 CURVE",
"478 203 LINE"
);
}
);
width = 548;
}
);
leftKerningGroup = I;
leftMetricsKey = I;
rightKerningGroup = L;
unicode = 004C;
},
{
color = 3;
glyphname = M;
layers = (
{
layerId = "E4D94E08-F159-4C87-90C4-095EDBFC645B";
name = Regular;
paths = (
{
closed = 1;
nodes = (
"60 650 LINE",
"59 603 LINE",
"197 587 LINE",
"200 650 LINE"
);
},
{
closed = 1;
nodes = (
"140 650 LINE",
"117 0 LINE",
"196 0 LINE",
"206 420 LINE",
"184 602 LINE",
"261 650 LINE"
);
},
{
closed = 1;
nodes = (
"96 57 OFFCURVE",
"60 46 OFFCURVE",
"30 32 CURVE",
"36 0 LINE",
"130 0 LINE",
"129 67 LINE"
);
},
{
closed = 1;
nodes = (
"140 0 LINE",
"280 0 LINE",
"281 47 LINE SMOOTH",
"143 63 LINE"
);
},
{
closed = 1;
nodes = (
"177 605 LINE",
"398 -7 LINE",
"485 16 LINE",
"468 73 LINE",
"261 650 LINE"
);
},
{
closed = 1;
nodes = (
"430 36 LINE",
"485 16 LINE",
"700 613 LINE",
"648 650 LINE"
);
},
{
closed = 1;
nodes = (
"648 650 LINE",
"692 609 LINE",
"676 420 LINE",
"683 0 LINE",
"773 0 LINE",
"762 650 LINE"
);
},
{
closed = 1;
nodes = (
"737 650 LINE",
"738 583 LINE",
"771 593 OFFCURVE",
"807 604 OFFCURVE",
"837 618 CURVE",
"831 650 LINE"
);
},
{
closed = 1;
nodes = (
"662 57 OFFCURVE",
"626 46 OFFCURVE",
"596 32 CURVE",
"602 0 LINE",
"696 0 LINE",
"695 67 LINE"
);
},
{
closed = 1;
nodes = (
"730 0 LINE",
"870 0 LINE",
"871 47 LINE",
"733 63 LINE"
);
}
);
width = 901;
}
);
leftKerningGroup = I;
leftMetricsKey = I;
rightKerningGroup = I;
rightMetricsKey = I;
unicode = 004D;
},
{
color = 3;
glyphname = N;
layers = (
{
anchors = (
{
name = bottom;
position = "{383, 0}";
},
{
name = top;
position = "{353, 650}";
}
);
layerId = "E4D94E08-F159-4C87-90C4-095EDBFC645B";
name = Regular;
paths = (
{
closed = 1;
nodes = (
"138 0 LINE",
"278 0 LINE",
"279 47 LINE",
"141 63 LINE"
);
},
{
closed = 1;
nodes = (
"96 57 OFFCURVE",
"60 46 OFFCURVE",
"30 32 CURVE",
"36 0 LINE",
"130 0 LINE",
"129 67 LINE"
);
},
{
closed = 1;
nodes = (
"115 650 LINE",
"115 0 LINE",
"190 0 LINE",
"190 418 LINE",
"166 600 LINE",
"229 650 LINE"
);
},
{
closed = 1;
nodes = (
"51 650 LINE",
"50 603 LINE",
"188 587 LINE",
"191 650 LINE"
);
},
{
closed = 1;
nodes = (
"161 650 LINE",
"158 579 LINE",
"527 -11 LINE",
"594 24 LINE",
"587 73 LINE",
"229 650 LINE"
);
},
{
closed = 1;
nodes = (
"458 650 LINE",
"457 603 LINE",
"595 587 LINE",
"598 650 LINE"
);
},
{
closed = 1;
nodes = (
"554 650 LINE",
"554 232 LINE",
"579 50 LINE",
"527 -11 LINE",
"630 0 LINE",
"630 650 LINE"
);
},
{
closed = 1;
nodes = (
"615 650 LINE",
"616 583 LINE",
"649 593 OFFCURVE",
"685 604 OFFCURVE",
"715 618 CURVE",
"709 650 LINE"
);
}
);
width = 745;
}
);
leftKerningGroup = I;
leftMetricsKey = I;
rightKerningGroup = I;
rightMetricsKey = I;
unicode = 004E;
},
{
color = 3;
glyphname = O;
layers = (
{
anchors = (
{
name = top;
position = "{324, 650}";
}
);
layerId = "E4D94E08-F159-4C87-90C4-095EDBFC645B";
name = Regular;
paths = (
{
closed = 1;
nodes = (
"149 670 OFFCURVE",
"20 530 OFFCURVE",
"20 321 CURVE SMOOTH",
"20 92 OFFCURVE",
"175 -20 OFFCURVE",
"329 -20 CURVE SMOOTH",
"480 -20 OFFCURVE",
"632 87 OFFCURVE",
"632 317 CURVE SMOOTH",
"632 544 OFFCURVE",
"485 670 OFFCURVE",
"321 670 CURVE SMOOTH"
);
},
{
closed = 1;
nodes = (
"248 596 OFFCURVE",
"280 601 OFFCURVE",
"309 601 CURVE SMOOTH",
"460 601 OFFCURVE",
"529 458 OFFCURVE",
"529 312 CURVE SMOOTH",
"529 197 OFFCURVE",
"486 101 OFFCURVE",
"424 61 CURVE",
"396 54 OFFCURVE",
"371 51 OFFCURVE",
"347 51 CURVE SMOOTH",
"188 51 OFFCURVE",
"122 193 OFFCURVE",
"122 335 CURVE SMOOTH",
"122 440 OFFCURVE",
"158 542 OFFCURVE",
"213 584 CURVE"
);
}
);
width = 652;
}
);
leftKerningGroup = O;
rightKerningGroup = O;
unicode = 004F;
},
{
color = 3;
glyphname = P;
layers = (
{
layerId = "E4D94E08-F159-4C87-90C4-095EDBFC645B";
name = Regular;
paths = (
{
closed = 1;
nodes = (
"45 650 LINE",
"193 583 LINE",
"381 599 LINE",
"433 574 OFFCURVE",
"459 516 OFFCURVE",
"459 454 CURVE SMOOTH",
"459 378 OFFCURVE",
"417 303 OFFCURVE",
"310 303 CURVE SMOOTH",
"286 303 OFFCURVE",
"223 307 OFFCURVE",
"178 317 CURVE",
"175 245 LINE",
"333 245 LINE SMOOTH",
"485 245 OFFCURVE",
"561 349 OFFCURVE",
"561 451 CURVE SMOOTH",
"561 554 OFFCURVE",
"483 658 OFFCURVE",
"324 658 CURVE SMOOTH"
);
},
{
closed = 1;
nodes = (
"96 57 OFFCURVE",
"60 46 OFFCURVE",
"30 32 CURVE",
"36 0 LINE",
"130 0 LINE",
"129 67 LINE"
);
},
{
closed = 1;
nodes = (
"184 0 LINE",
"324 0 LINE",
"325 47 LINE",
"187 63 LINE"
);
},
{
closed = 1;
nodes = (
"115 650 LINE",
"115 0 LINE",
"208 0 LINE",
"208 650 LINE"
);
},
{
closed = 1;
nodes = (
"45 650 LINE",
"44 602 LINE",
"140 596 LINE",
"138 650 LINE"
);
}
);
width = 581;
}
);
leftKerningGroup = I;
leftMetricsKey = I;
unicode = 0050;
},
{
color = 3;
glyphname = Q;
layers = (
{
components = (
{
name = O;
}
);
layerId = "E4D94E08-F159-4C87-90C4-095EDBFC645B";
name = Regular;
paths = (
{
closed = 1;
nodes = (
"368 -3 LINE",
"712 -162 LINE",
"751 -64 LINE",
"403 34 LINE"
);
}
);
width = 691;
}
);
leftKerningGroup = O;
leftMetricsKey = O;
rightKerningGroup = O;
unicode = 0051;
},
{
color = 3;
glyphname = R;
layers = (
{
anchors = (
{
name = bottom;
position = "{302, 0}";
},
{
name = top;
position = "{279, 650}";
}
);
layerId = "E4D94E08-F159-4C87-90C4-095EDBFC645B";
name = Regular;
paths = (
{
closed = 1;
nodes = (
"45 650 LINE",
"196 583 LINE",
"381 599 LINE",
"435 573 OFFCURVE",
"459 523 OFFCURVE",
"459 465 CURVE SMOOTH",
"459 401 OFFCURVE",
"430 318 OFFCURVE",
"293 318 CURVE SMOOTH",
"263 318 OFFCURVE",
"221 322 OFFCURVE",
"178 331 CURVE",
"175 259 LINE",
"333 260 LINE SMOOTH",
"486 262 OFFCURVE",
"561 370 OFFCURVE",
"561 465 CURVE SMOOTH",
"561 562 OFFCURVE",
"483 658 OFFCURVE",
"324 658 CURVE"
);
},
{
closed = 1;
nodes = (
"96 57 OFFCURVE",
"60 46 OFFCURVE",
"30 32 CURVE",
"36 0 LINE",
"130 0 LINE",
"129 67 LINE"
);
},
{
closed = 1;
nodes = (
"174 0 LINE",
"314 0 LINE",
"315 47 LINE",
"177 63 LINE"
);
},
{
closed = 1;
nodes = (
"115 650 LINE",
"115 0 LINE",
"208 0 LINE",
"208 650 LINE"
);
},
{
closed = 1;
nodes = (
"45 650 LINE",
"44 602 LINE",
"140 596 LINE",
"138 650 LINE"
);
},
{
closed = 1;
nodes = (
"305 299 LINE",
"470 0 LINE",
"588 0 LINE",
"398 308 LINE"
);
},
{
closed = 1;
nodes = (
"482 0 LINE",
"622 0 LINE",
"623 47 LINE",
"485 60 LINE"
);
}
);
width = 638;
}
);
leftKerningGroup = I;
leftMetricsKey = I;
rightKerningGroup = R;
unicode = 0052;
},
{
color = 3;
glyphname = S;
layers = (
{
anchors = (
{
name = bottom;
position = "{257, 0}";
},
{
name = top;
position = "{270, 650}";
}
);
layerId = "E4D94E08-F159-4C87-90C4-095EDBFC645B";
name = Regular;
paths = (
{
closed = 1;
nodes = (
"174 670 OFFCURVE",
"60 607 OFFCURVE",
"60 489 CURVE SMOOTH",
"60 380 OFFCURVE",
"157 333 OFFCURVE",
"243 292 CURVE SMOOTH",
"332 250 OFFCURVE",
"393 220 OFFCURVE",
"393 150 CURVE SMOOTH",
"393 112 OFFCURVE",
"375 69 OFFCURVE",
"335 48 CURVE",
"259 40 OFFCURVE",
"148 56 OFFCURVE",
"79 154 CURVE",
"56 49 LINE",
"101 3 OFFCURVE",
"202 -20 OFFCURVE",
"267 -20 CURVE SMOOTH",
"382 -20 OFFCURVE",
"488 50 OFFCURVE",
"488 172 CURVE SMOOTH",
"488 285 OFFCURVE",
"396 331 OFFCURVE",
"302 375 CURVE SMOOTH",
"216 415 OFFCURVE",
"153 444 OFFCURVE",
"153 510 CURVE SMOOTH",
"153 544 OFFCURVE",
"169 582 OFFCURVE",
"201 601 CURVE",
"271 612 OFFCURVE",
"352 599 OFFCURVE",
"407 541 CURVE",
"458 639 LINE",
"418 652 OFFCURVE",
"357 670 OFFCURVE",
"293 670 CURVE SMOOTH"
);
},
{
closed = 1;
nodes = (
"448 470 LINE",
"459 531 OFFCURVE",
"461 606 OFFCURVE",
"458 639 CURVE",
"378 620 LINE",
"394 470 LINE"
);
},
{
closed = 1;
nodes = (
"55 157 OFFCURVE",
"53 82 OFFCURVE",
"56 49 CURVE",
"139 49 LINE",
"120 218 LINE",
"66 218 LINE"
);
}
);
width = 533;
}
);
leftKerningGroup = S;
rightKerningGroup = S;
unicode = 0053;
},
{
color = 3;
glyphname = T;
layers = (
{
anchors = (
{
name = bottom;
position = "{299, 0}";
},
{
name = center;
position = "{299, 325}";
},
{
name = top;
position = "{299, 650}";
}
);
layerId = "E4D94E08-F159-4C87-90C4-095EDBFC645B";
name = Regular;
paths = (
{
closed = 1;
nodes = (
"252 650 LINE",
"252 0 LINE",
"345 0 LINE",
"345 650 LINE"
);
},
{
closed = 1;
nodes = (
"224 57 OFFCURVE",
"173 46 OFFCURVE",
"143 32 CURVE",
"149 0 LINE",
"258 0 LINE",
"257 67 LINE"
);
},
{
closed = 1;
nodes = (
"318 0 LINE",
"458 0 LINE",
"459 47 LINE",
"321 63 LINE"
);
},
{
closed = 1;
nodes = (
"403 650 OFFCURVE",
"196 650 OFFCURVE",
"11 656 CURVE",
"28 585 LINE",
"299 595 LINE",
"570 585 LINE",
"586 656 LINE"
);
},
{
closed = 1;
nodes = (
"576 487 LINE",
"587 548 OFFCURVE",
"589 623 OFFCURVE",
"586 656 CURVE",
"506 611 LINE",
"522 487 LINE SMOOTH"
);
},
{
closed = 1;
nodes = (
"91 611 LINE",
"11 656 LINE",
"8 623 OFFCURVE",
"10 548 OFFCURVE",
"21 487 CURVE",
"75 487 LINE"
);
}
);
width = 597;
}
);
leftKerningGroup = T;
rightKerningGroup = T;
unicode = 0054;
},
{
color = 3;
glyphname = U;
layers = (
{
anchors = (
{
name = ogonek;
position = "{457, 1}";
},
{
name = top;
position = "{355, 650}";
}
);
layerId = "E4D94E08-F159-4C87-90C4-095EDBFC645B";
name = Regular;
paths = (
{
closed = 1;
nodes = (
"531 650 LINE",
"531 273 LINE SMOOTH",
"531 174 OFFCURVE",
"507 108 OFFCURVE",
"463 77 CURVE",
"435 65 OFFCURVE",
"406 57 OFFCURVE",
"368 57 CURVE SMOOTH",
"249 57 OFFCURVE",
"180 135 OFFCURVE",
"180 273 CURVE SMOOTH",
"180 650 LINE",
"87 650 LINE",
"87 283 LINE SMOOTH",
"87 87 OFFCURVE",
"200 -18 OFFCURVE",
"364 -18 CURVE SMOOTH",
"517 -18 OFFCURVE",
"605 73 OFFCURVE",
"605 293 CURVE SMOOTH",
"605 650 LINE"
);
},
{
closed = 1;
nodes = (
"11 650 LINE",
"10 603 LINE",
"148 587 LINE",
"151 650 LINE"
);
},
{
closed = 1;
nodes = (
"165 650 LINE",
"166 583 LINE",
"199 593 OFFCURVE",
"235 604 OFFCURVE",
"265 618 CURVE",
"259 650 LINE"
);
},
{
closed = 1;
nodes = (
"443 650 LINE",
"442 603 LINE",
"580 587 LINE",
"583 650 LINE"
);
},
{
closed = 1;
nodes = (
"590 650 LINE",
"591 583 LINE",
"624 593 OFFCURVE",
"660 604 OFFCURVE",
"690 618 CURVE",
"684 650 LINE"
);
}
);
width = 700;
}
);
leftKerningGroup = U;
rightKerningGroup = U;
unicode = 0055;
},
{
color = 3;
glyphname = V;
layers = (
{
layerId = "E4D94E08-F159-4C87-90C4-095EDBFC645B";
name = Regular;
paths = (
{
closed = 1;
nodes = (
"60 650 LINE",
"287 -10 LINE",
"320 -11 OFFCURVE",
"357 -8 OFFCURVE",
"388 -2 CURVE",
"355 59 LINE",
"335 59 LINE",
"322 177 LINE",
"161 650 LINE"
);
},
{
closed = 1;
nodes = (
"1 650 LINE",
"0 603 LINE",
"138 587 LINE",
"141 650 LINE"
);
},
{
closed = 1;
nodes = (
"388 -2 LINE",
"624 650 LINE",
"545 650 LINE",
"331 33 LINE"
);
},
{
closed = 1;
nodes = (
"154 650 LINE",
"175 583 LINE",
"208 593 OFFCURVE",
"244 604 OFFCURVE",
"274 618 CURVE",
"268 650 LINE"
);
},
{
closed = 1;
nodes = (
"435 650 LINE",
"434 603 LINE",
"572 587 LINE",
"575 650 LINE"
);
},
{
closed = 1;
nodes = (
"560 650 LINE",
"581 583 LINE",
"614 593 OFFCURVE",
"650 604 OFFCURVE",
"680 618 CURVE",
"674 650 LINE"
);
}
);
width = 680;
}
);
leftKerningGroup = V;
rightKerningGroup = V;
unicode = 0056;
},
{
color = 3;
glyphname = W;
layers = (
{
anchors = (
{
name = top;
position = "{445, 650}";
}
);
layerId = "E4D94E08-F159-4C87-90C4-095EDBFC645B";
name = Regular;
paths = (
{
closed = 1;
nodes = (
"1 650 LINE",
"0 603 LINE",
"138 587 LINE",
"141 650 LINE"
);
},
{
closed = 1;
nodes = (
"144 650 LINE",
"165 583 LINE",
"198 593 OFFCURVE",
"234 604 OFFCURVE",
"264 618 CURVE",
"258 650 LINE"
);
},
{
closed = 1;
nodes = (
"59 650 LINE",
"246 -10 LINE",
"283 -13 OFFCURVE",
"318 -10 OFFCURVE",
"353 -3 CURVE",
"325 59 LINE",
"300 59 LINE",
"289 175 LINE",
"159 650 LINE"
);
},
{
closed = 1;
nodes = (
"296 33 LINE",
"353 -3 LINE",
"435 259 LINE",
"454 372 LINE",
"471 372 LINE",
"498 442 LINE",
"428 483 LINE"
);
},
{
closed = 1;
nodes = (
"388 614 LINE",
"564 -10 LINE",
"601 -13 OFFCURVE",
"638 -10 OFFCURVE",
"673 -3 CURVE",
"645 59 LINE",
"615 59 LINE",
"601 173 LINE",
"483 639 LINE"
);
},
{
closed = 1;
nodes = (
"673 -3 LINE",
"857 650 LINE",
"780 650 LINE",
"611 33 LINE"
);
},
{
closed = 1;
nodes = (
"664 650 LINE",
"663 603 LINE",
"801 587 LINE",
"804 650 LINE"
);
},
{
closed = 1;
nodes = (
"799 650 LINE",
"820 583 LINE",
"853 593 OFFCURVE",
"889 604 OFFCURVE",
"919 618 CURVE",
"913 650 LINE"
);
}
);
width = 919;
}
);
leftKerningGroup = V;
leftMetricsKey = V;
rightKerningGroup = V;
rightMetricsKey = V;
unicode = 0057;
},
{
color = 3;
glyphname = X;
layers = (
{
layerId = "E4D94E08-F159-4C87-90C4-095EDBFC645B";
name = Regular;
paths = (
{
closed = 1;
nodes = (
"186 587 LINE",
"189 650 LINE",
"49 650 LINE",
"48 603 LINE"
);
},
{
closed = 1;
nodes = (
"162 650 LINE",
"183 583 LINE",
"216 593 OFFCURVE",
"252 604 OFFCURVE",
"282 618 CURVE",
"276 650 LINE"
);
},
{
closed = 1;
nodes = (
"399 650 LINE",
"398 603 LINE",
"536 587 LINE",
"539 650 LINE"
);
},
{
closed = 1;
nodes = (
"505 650 LINE",
"526 583 LINE",
"559 593 OFFCURVE",
"595 604 OFFCURVE",
"625 618 CURVE",
"619 650 LINE"
);
},
{
closed = 1;
nodes = (
"76 57 OFFCURVE",
"40 46 OFFCURVE",
"10 32 CURVE",
"16 0 LINE",
"130 0 LINE",
"109 67 LINE"
);
},
{
closed = 1;
nodes = (
"122 0 LINE",
"262 0 LINE",
"263 47 LINE",
"125 63 LINE"
);
},
{
closed = 1;
nodes = (
"468 57 OFFCURVE",
"432 46 OFFCURVE",
"402 32 CURVE",
"408 0 LINE",
"522 0 LINE",
"501 67 LINE"
);
},
{
closed = 1;
nodes = (
"519 0 LINE",
"659 0 LINE",
"660 47 LINE",
"502 63 LINE"
);
},
{
closed = 1;
nodes = (
"80 650 LINE",
"511 0 LINE",
"625 0 LINE",
"187 650 LINE"
);
},
{
closed = 1;
nodes = (
"505 650 LINE",
"338 370 LINE",
"383 334 LINE",
"589 650 LINE"
);
},
{
closed = 1;
nodes = (
"48 0 LINE",
"137 0 LINE",
"353 332 LINE",
"301 368 LINE"
);
}
);
width = 670;
}
);
unicode = 0058;
},
{
color = 3;
glyphname = Y;
layers = (
{
anchors = (
{
name = top;
position = "{304, 650}";
}
);
layerId = "E4D94E08-F159-4C87-90C4-095EDBFC645B";
name = Regular;
paths = (
{
closed = 1;
nodes = (
"33 650 LINE",
"262 226 LINE",
"331 282 LINE",
"318 308 LINE",
"302 307 LINE",
"276 388 LINE",
"137 650 LINE"
);
},
{
closed = 1;
nodes = (
"1 650 LINE",
"0 603 LINE",
"138 587 LINE",
"141 650 LINE"
);
},
{
closed = 1;
nodes = (
"114 650 LINE",
"135 583 LINE",
"168 593 OFFCURVE",
"204 604 OFFCURVE",
"234 618 CURVE",
"228 650 LINE"
);
},
{
closed = 1;
nodes = (
"477 650 LINE",
"288 269 LINE",
"336 240 LINE",
"558 650 LINE"
);
},
{
closed = 1;
nodes = (
"371 650 LINE",
"370 603 LINE",
"508 587 LINE",
"511 650 LINE"
);
},
{
closed = 1;
nodes = (
"477 650 LINE",
"498 583 LINE",
"531 593 OFFCURVE",
"567 604 OFFCURVE",
"597 618 CURVE",
"591 650 LINE"
);
},
{
closed = 1;
nodes = (
"248 0 LINE",
"341 0 LINE",
"341 277 LINE",
"248 277 LINE"
);
},
{
closed = 1;
nodes = (
"236 57 OFFCURVE",
"200 46 OFFCURVE",
"170 32 CURVE",
"176 0 LINE",
"270 0 LINE",
"269 67 LINE"
);
},
{
closed = 1;
nodes = (
"282 0 LINE",
"422 0 LINE",
"423 47 LINE",
"285 63 LINE"
);
}
);
width = 597;
}
);
leftKerningGroup = Y;
leftMetricsKey = V;
rightKerningGroup = Y;
rightMetricsKey = V;
unicode = 0059;
},
{
color = 3;
glyphname = Z;
layers = (
{
layerId = "E4D94E08-F159-4C87-90C4-095EDBFC645B";
name = Regular;
paths = (
{
closed = 1;
nodes = (
"79 576 LINE",
"466 590 LINE",
"509 650 LINE",
"62 650 LINE"
);
},
{
closed = 1;
nodes = (
"461 607 LINE",
"418 595 LINE",
"35 45 LINE",
"56 0 LINE",
"101 31 LINE",
"138 47 LINE",
"530 604 LINE",
"509 650 LINE"
);
},
{
closed = 1;
nodes = (
"111 74 LINE",
"56 0 LINE",
"513 0 LINE",
"508 76 LINE"
);
},
{
closed = 1;
nodes = (
"142 605 LINE",
"62 650 LINE",
"59 617 OFFCURVE",
"61 529 OFFCURVE",
"72 468 CURVE",
"126 468 LINE"
);
},
{
closed = 1;
nodes = (
"438 35 LINE",
"513 0 LINE",
"525 64 OFFCURVE",
"534 124 OFFCURVE",
"539 185 CURVE",
"481 193 LINE"
);
}
);
width = 574;
}
);
leftKerningGroup = Z;
rightKerningGroup = Z;
unicode = 005A;
},
{
color = 3;
glyphname = bracketleft;
layers = (
{
layerId = "E4D94E08-F159-4C87-90C4-095EDBFC645B";
name = Regular;
paths = (
{
closed = 1;
nodes = (
"99 712 LINE",
"99 -122 LINE",
"306 -122 LINE",
"312 -66 LINE",
"182 -44 LINE",
"182 634 LINE",
"312 656 LINE",
"306 712 LINE"
);
}
);
width = 346;
}
);
unicode = 005B;
},
{
color = 3;
glyphname = backslash;
layers = (
{
layerId = "E4D94E08-F159-4C87-90C4-095EDBFC645B";
name = Regular;
paths = (
{
closed = 1;
nodes = (
"378 -102 LINE",
"70 707 LINE",
"4 681 LINE",
"310 -126 LINE"
);
}
);
width = 388;
}
);
unicode = 005C;
},
{
color = 3;
glyphname = bracketright;
layers = (
{
layerId = "E4D94E08-F159-4C87-90C4-095EDBFC645B";
name = Regular;
paths = (
{
closed = 1;
nodes = (
"35 656 LINE",
"165 634 LINE",
"165 -44 LINE",
"35 -66 LINE",
"41 -122 LINE",
"248 -122 LINE",
"248 712 LINE",
"41 712 LINE"
);
}
);
width = 350;
}
);
unicode = 005D;
},
{
color = 3;
glyphname = asciicircum;
layers = (
{
layerId = "E4D94E08-F159-4C87-90C4-095EDBFC645B";
name = Regular;
paths = (
{
closed = 1;
nodes = (
"40 358 LINE",
"88 325 LINE",
"267 595 LINE",
"274 595 LINE",
"462 331 LINE",
"509 365 LINE",
"301 648 LINE",
"236 648 LINE"
);
}
);
width = 539;
}
);
unicode = 005E;
},
{
color = 3;
glyphname = underscore;
layers = (
{
layerId = "E4D94E08-F159-4C87-90C4-095EDBFC645B";
name = Regular;
paths = (
{
closed = 1;
nodes = (
"10 -139 LINE",
"10 -204 LINE",
"522 -204 LINE",
"522 -139 LINE"
);
}
);
width = 532;
}
);
unicode = 005F;
},
{
color = 3;
glyphname = a;
layers = (
{
anchors = (
{
name = top;
position = "{246, 468}";
}
);
layerId = "E4D94E08-F159-4C87-90C4-095EDBFC645B";
name = Regular;
paths = (
{
closed = 1;
nodes = (
"70 183 OFFCURVE",
"50 142 OFFCURVE",
"50 104 CURVE SMOOTH",
"50 46 OFFCURVE",
"97 -26 OFFCURVE",
"207 -14 CURVE",
"329 60 LINE",
"329 102 LINE",
"298 87 OFFCURVE",
"228 56 OFFCURVE",
"170 58 CURVE",
"152 69 OFFCURVE",
"144 86 OFFCURVE",
"144 104 CURVE SMOOTH",
"144 168 OFFCURVE",
"246 171 OFFCURVE",
"320 164 CURVE",
"336 163 LINE",
"340 217 LINE",
"120 211 LINE"
);
},
{
closed = 1;
nodes = (
"65 379 OFFCURVE",
"74 334 OFFCURVE",
"92 301 CURVE",
"145 305 LINE",
"153 409 LINE",
"180 417 OFFCURVE",
"228 425 OFFCURVE",
"266 426 CURVE",
"302 408 OFFCURVE",
"315 381 OFFCURVE",
"315 319 CURVE SMOOTH",
"315 82 LINE",
"315 68 LINE",
"324 29 OFFCURVE",
"369 -13 OFFCURVE",
"391 -15 CURVE",
"492 31 LINE",
"477 75 LINE",
"463 71 OFFCURVE",
"445 66 OFFCURVE",
"431 66 CURVE SMOOTH",
"416 66 OFFCURVE",
"405 71 OFFCURVE",
"405 86 CURVE",
"405 319 LINE",
"405 389 OFFCURVE",
"402 406 OFFCURVE",
"393 423 CURVE SMOOTH",
"378 451 OFFCURVE",
"329 493 OFFCURVE",
"286 493 CURVE SMOOTH",
"245 493 OFFCURVE",
"123 455 OFFCURVE",
"63 421 CURVE"
);
}
);
width = 507;
}
);
leftKerningGroup = a;
rightKerningGroup = a;
unicode = 0061;
},
{
color = 3;
glyphname = b;
layers = (
{
layerId = "E4D94E08-F159-4C87-90C4-095EDBFC645B";
name = Regular;
paths = (
{
closed = 1;
nodes = (
"116 735 LINE",
"66 698 LINE",
"66 24 LINE",
"155 47 LINE",
"155 699 LINE"
);
},
{
closed = 1;
nodes = (
"127 334 LINE",
"178 370 OFFCURVE",
"230 403 OFFCURVE",
"278 403 CURVE SMOOTH",
"352 403 OFFCURVE",
"401 320 OFFCURVE",
"401 230 CURVE SMOOTH",
"401 158 OFFCURVE",
"370 83 OFFCURVE",
"316 50 CURVE",
"213 34 OFFCURVE",
"143 84 OFFCURVE",
"128 113 CURVE",
"66 24 LINE",
"127 -4 OFFCURVE",
"183 -19 OFFCURVE",
"237 -19 CURVE SMOOTH",
"388 -19 OFFCURVE",
"495 96 OFFCURVE",
"495 250 CURVE SMOOTH",
"495 390 OFFCURVE",
"406 509 OFFCURVE",
"273 481 CURVE",
"118 383 LINE"
);
},
{
closed = 1;
nodes = (
"-8 657 LINE",
"85 664 LINE",
"129 710 LINE",
"116 735 LINE",
"74 734 OFFCURVE",
"20 722 OFFCURVE",
"-20 704 CURVE"
);
}
);
width = 520;
}
);
leftKerningGroup = b;
rightKerningGroup = o;
rightMetricsKey = o;
unicode = 0062;
},
{
color = 3;
glyphname = c;
layers = (
{
anchors = (
{
name = bottom;
position = "{236, 0}";
},
{
name = top;
position = "{236, 468}";
}
);
layerId = "E4D94E08-F159-4C87-90C4-095EDBFC645B";
name = Regular;
paths = (
{
closed = 1;
nodes = (
"377 82 LINE",
"341 66 OFFCURVE",
"302 59 OFFCURVE",
"273 59 CURVE SMOOTH",
"170 59 OFFCURVE",
"113 142 OFFCURVE",
"113 254 CURVE SMOOTH",
"113 320 OFFCURVE",
"133 376 OFFCURVE",
"175 425 CURVE",
"234 421 OFFCURVE",
"296 391 OFFCURVE",
"347 351 CURVE",
"400 422 LINE",
"356 465 OFFCURVE",
"309 488 OFFCURVE",
"248 488 CURVE SMOOTH",
"117 488 OFFCURVE",
"20 384 OFFCURVE",
"20 234 CURVE SMOOTH",
"20 97 OFFCURVE",
"101 -17 OFFCURVE",
"258 -15 CURVE",
"394 40 LINE"
);
}
);
width = 415;
}
);
leftKerningGroup = o;
leftMetricsKey = o;
rightKerningGroup = c;
unicode = 0063;
},
{
color = 3;
glyphname = d;
layers = (
{
anchors = (
{
name = center;
position = "{268, 234}";
},
{
name = topright;
position = "{520, 650}";
}
);
layerId = "E4D94E08-F159-4C87-90C4-095EDBFC645B";
name = Regular;
paths = (
{
closed = 1;
nodes = (
"516 75 LINE",
"502 71 OFFCURVE",
"484 66 OFFCURVE",
"470 66 CURVE SMOOTH",
"455 66 OFFCURVE",
"444 71 OFFCURVE",
"444 86 CURVE SMOOTH",
"444 699 LINE",
"404 735 LINE",
"355 698 LINE",
"355 82 LINE",
"355 68 LINE",
"364 29 OFFCURVE",
"408 -13 OFFCURVE",
"430 -15 CURVE",
"531 31 LINE"
);
},
{
closed = 1;
nodes = (
"407 138 LINE",
"345 89 OFFCURVE",
"292 67 OFFCURVE",
"250 67 CURVE SMOOTH",
"167 67 OFFCURVE",
"114 144 OFFCURVE",
"114 244 CURVE SMOOTH",
"114 312 OFFCURVE",
"139 379 OFFCURVE",
"185 420 CURVE",
"271 439 OFFCURVE",
"355 395 OFFCURVE",
"388 344 CURVE",
"431 417 LINE",
"409 455 OFFCURVE",
"349 490 OFFCURVE",
"272 490 CURVE SMOOTH",
"140 490 OFFCURVE",
"20 388 OFFCURVE",
"20 233 CURVE SMOOTH",
"20 96 OFFCURVE",
"114 -17 OFFCURVE",
"249 -15 CURVE",
"404 89 LINE"
);
},
{
closed = 1;
nodes = (
"373 664 LINE",
"417 710 LINE",
"404 735 LINE",
"362 734 OFFCURVE",
"308 722 OFFCURVE",
"268 704 CURVE",
"280 657 LINE"
);
}
);
width = 541;
}
);
leftKerningGroup = o;
leftMetricsKey = o;
rightKerningGroup = l;
unicode = 0064;
},
{
color = 3;
glyphname = e;
layers = (
{
anchors = (
{
name = bottom;
position = "{242, 0}";
},
{
name = ogonek;
position = "{421, 51}";
},
{
name = top;
position = "{242, 468}";
}
);
layerId = "E4D94E08-F159-4C87-90C4-095EDBFC645B";
name = Regular;
paths = (
{
closed = 1;
nodes = (
"406 94 LINE",
"361 74 OFFCURVE",
"318 61 OFFCURVE",
"278 61 CURVE SMOOTH",
"186 61 OFFCURVE",
"114 129 OFFCURVE",
"114 247 CURVE SMOOTH",
"114 314 OFFCURVE",
"137 394 OFFCURVE",
"199 427 CURVE",
"287 433 OFFCURVE",
"353 366 OFFCURVE",
"343 278 CURVE",
"428 313 LINE",
"430 414 OFFCURVE",
"353 488 OFFCURVE",
"249 488 CURVE SMOOTH",
"112 488 OFFCURVE",
"20 360 OFFCURVE",
"20 226 CURVE SMOOTH",
"20 101 OFFCURVE",
"101 -15 OFFCURVE",
"265 -15 CURVE",
"421 51 LINE"
);
},
{
closed = 1;
nodes = (
"106 262 LINE",
"371 257 LINE",
"428 313 LINE",
"417 328 LINE",
"106 314 LINE"
);
}
);
width = 451;
}
);
leftKerningGroup = o;
leftMetricsKey = o;
rightKerningGroup = e;
unicode = 0065;
},
{
color = 3;
glyphname = f;
layers = (
{
layerId = "E4D94E08-F159-4C87-90C4-095EDBFC645B";
name = Regular;
paths = (
{
closed = 1;
nodes = (
"361 702 LINE",
"328 736 OFFCURVE",
"287 751 OFFCURVE",
"248 751 CURVE SMOOTH",
"164 751 OFFCURVE",
"83 681 OFFCURVE",
"83 563 CURVE SMOOTH",
"83 0 LINE",
"172 0 LINE",
"172 435 LINE",
"178 458 LINE",
"154 663 LINE",
"202 682 OFFCURVE",
"259 667 OFFCURVE",
"305 622 CURVE"
);
},
{
closed = 1;
nodes = (
"107 394 LINE",
"150 444 LINE",
"128 468 LINE",
"93 465 OFFCURVE",
"55 458 OFFCURVE",
"15 440 CURVE",
"21 391 LINE"
);
},
{
closed = 1;
nodes = (
"99 0 LINE",
"113 67 LINE",
"88 60 OFFCURVE",
"39 45 OFFCURVE",
"15 33 CURVE",
"20 0 LINE"
);
},
{
closed = 1;
nodes = (
"257 0 LINE",
"263 48 LINE",
"240 58 OFFCURVE",
"199 64 OFFCURVE",
"165 67 CURVE",
"164 0 LINE"
);
},
{
closed = 1;
nodes = (
"128 391 LINE",
"238 391 LINE",
"285 440 LINE",
"282 468 LINE",
"128 468 LINE"
);
}
);
width = 326;
}
);
leftKerningGroup = f;
leftMetricsKey = n;
rightKerningGroup = f;
unicode = 0066;
},
{
color = 3;
glyphname = g;
layers = (
{
anchors = (
{
name = top;
position = "{254, 468}";
}
);
layerId = "E4D94E08-F159-4C87-90C4-095EDBFC645B";
name = Regular;
paths = (
{
closed = 1;
nodes = (
"435 528 OFFCURVE",
"373 473 OFFCURVE",
"370 386 CURVE",
"394 396 LINE",
"431 424 OFFCURVE",
"475 438 OFFCURVE",
"526 438 CURVE",
"507 542 LINE"
);
},
{
closed = 1;
nodes = (
"353 154 OFFCURVE",
"462 210 OFFCURVE",
"462 323 CURVE SMOOTH",
"462 434 OFFCURVE",
"358 496 OFFCURVE",
"255 496 CURVE SMOOTH",
"155 496 OFFCURVE",
"47 437 OFFCURVE",
"47 325 CURVE SMOOTH",
"47 211 OFFCURVE",
"157 154 OFFCURVE",
"255 154 CURVE SMOOTH"
);
},
{
closed = 1;
nodes = (
"282 479 OFFCURVE",
"370 402 OFFCURVE",
"370 316 CURVE SMOOTH",
"370 285 OFFCURVE",
"359 248 OFFCURVE",
"322 218 CURVE",
"208 178 OFFCURVE",
"139 238 OFFCURVE",
"139 331 CURVE SMOOTH",
"139 361 OFFCURVE",
"146 392 OFFCURVE",
"172 423 CURVE"
);
},
{
closed = 1;
nodes = (
"187 52 LINE",
"34 -89 LINE",
"23 -182 OFFCURVE",
"116 -231 OFFCURVE",
"220 -231 CURVE SMOOTH",
"369 -231 OFFCURVE",
"533 -131 OFFCURVE",
"498 28 CURVE",
"410 62 OFFCURVE",
"247 94 OFFCURVE",
"150 96 CURVE",
"174 123 OFFCURVE",
"217 158 OFFCURVE",
"255 183 CURVE",
"207 199 LINE",
"163 179 OFFCURVE",
"95 119 OFFCURVE",
"56 72 CURVE",
"74 25 LINE",
"221 22 OFFCURVE",
"384 -9 OFFCURVE",
"444 -45 CURVE",
"406 -115 OFFCURVE",
"307 -150 OFFCURVE",
"226 -150 CURVE SMOOTH",
"162 -150 OFFCURVE",
"115 -129 OFFCURVE",
"115 -95 CURVE SMOOTH",
"115 -51 OFFCURVE",
"196 9 OFFCURVE",
"270 49 CURVE"
);
}
);
width = 546;
}
);
leftKerningGroup = g;
rightKerningGroup = g;
unicode = 0067;
},
{
color = 3;
glyphname = h;
layers = (
{
anchors = (
{
name = center;
position = "{294, 234}";
},
{
name = top;
position = "{111, 715}";
}
);
layerId = "E4D94E08-F159-4C87-90C4-095EDBFC645B";
name = Regular;
paths = (
{
closed = 1;
nodes = (
"120 664 LINE",
"164 710 LINE",
"151 735 LINE",
"109 734 OFFCURVE",
"55 722 OFFCURVE",
"15 704 CURVE",
"27 657 LINE"
);
},
{
closed = 1;
nodes = (
"102 0 LINE",
"191 0 LINE",
"191 700 LINE",
"151 735 LINE",
"102 698 LINE"
);
},
{
closed = 1;
nodes = (
"112 0 LINE",
"126 67 LINE",
"101 60 OFFCURVE",
"52 45 OFFCURVE",
"28 33 CURVE",
"33 0 LINE"
);
},
{
closed = 1;
nodes = (
"250 0 LINE",
"256 48 LINE",
"233 58 OFFCURVE",
"192 64 OFFCURVE",
"158 67 CURVE",
"157 0 LINE"
);
},
{
closed = 1;
nodes = (
"434 0 LINE",
"448 67 LINE",
"423 60 OFFCURVE",
"374 45 OFFCURVE",
"350 33 CURVE",
"355 0 LINE"
);
},
{
closed = 1;
nodes = (
"562 0 LINE",
"568 48 LINE",
"545 58 OFFCURVE",
"504 64 OFFCURVE",
"470 67 CURVE",
"469 0 LINE"
);
},
{
closed = 1;
nodes = (
"407 0 LINE",
"496 0 LINE",
"496 300 LINE SMOOTH",
"496 370 OFFCURVE",
"492 398 OFFCURVE",
"482 417 CURVE SMOOTH",
"467 445 OFFCURVE",
"429 477 OFFCURVE",
"391 484 CURVE",
"355 484 OFFCURVE",
"262 435 OFFCURVE",
"168 370 CURVE",
"186 328 LINE",
"234 365 OFFCURVE",
"303 404 OFFCURVE",
"343 404 CURVE SMOOTH",
"377 404 OFFCURVE",
"407 377 OFFCURVE",
"407 296 CURVE SMOOTH"
);
}
);
width = 588;
}
);
leftKerningGroup = l;
leftMetricsKey = n;
rightKerningGroup = n;
rightMetricsKey = n;
unicode = 0068;
},
{
color = 3;
glyphname = i;
layers = (
{
anchors = (
{
name = ogonek;
position = "{230, 0}";
}
);
layerId = "E4D94E08-F159-4C87-90C4-095EDBFC645B";
name = Regular;
paths = (
{
closed = 1;
nodes = (
"174 589 OFFCURVE",
"200 622 OFFCURVE",
"210 649 CURVE",
"195 669 OFFCURVE",
"163 698 OFFCURVE",
"135 709 CURVE",
"113 695 OFFCURVE",
"88 663 OFFCURVE",
"74 633 CURVE",
"90 610 OFFCURVE",
"126 583 OFFCURVE",
"151 573 CURVE"
);
},
{
closed = 1;
nodes = (
"120 413 LINE",
"164 459 LINE",
"151 484 LINE",
"109 483 OFFCURVE",
"55 471 OFFCURVE",
"15 453 CURVE",
"27 406 LINE"
);
},
{
closed = 1;
nodes = (
"102 0 LINE",
"191 0 LINE",
"191 449 LINE",
"151 484 LINE",
"102 447 LINE"
);
},
{
closed = 1;
nodes = (
"257 0 LINE",
"263 48 LINE",
"240 58 OFFCURVE",
"199 64 OFFCURVE",
"165 67 CURVE",
"164 0 LINE"
);
},
{
closed = 1;
nodes = (
"110 0 LINE",
"124 67 LINE",
"99 60 OFFCURVE",
"50 45 OFFCURVE",
"26 33 CURVE",
"31 0 LINE"
);
}
);
width = 283;
}
);
leftKerningGroup = n;
leftMetricsKey = n;
rightKerningGroup = i;
rightMetricsKey = n;
unicode = 0069;
},
{
color = 3;
glyphname = j;
layers = (
{
anchors = (
{
name = top;
position = "{149, 500}";
}
);
layerId = "E4D94E08-F159-4C87-90C4-095EDBFC645B";
name = Regular;
paths = (
{
closed = 1;
nodes = (
"178 588 OFFCURVE",
"204 621 OFFCURVE",
"214 648 CURVE",
"199 668 OFFCURVE",
"167 697 OFFCURVE",
"139 708 CURVE",
"117 694 OFFCURVE",
"92 662 OFFCURVE",
"78 632 CURVE",
"94 609 OFFCURVE",
"130 582 OFFCURVE",
"155 572 CURVE"
);
},
{
closed = 1;
nodes = (
"155 484 LINE",
"106 447 LINE",
"106 -11 LINE SMOOTH",
"106 -94 OFFCURVE",
"86 -136 OFFCURVE",
"0 -165 CURVE",
"13 -210 LINE",
"154 -176 OFFCURVE",
"195 -103 OFFCURVE",
"195 -61 CURVE SMOOTH",
"195 449 LINE"
);
},
{
closed = 1;
nodes = (
"124 413 LINE",
"168 459 LINE",
"155 484 LINE",
"113 483 OFFCURVE",
"59 471 OFFCURVE",
"19 453 CURVE",
"31 406 LINE"
);
}
);
width = 272;
}
);
leftKerningGroup = j;
rightKerningGroup = j;
unicode = 006A;
},
{
color = 3;
glyphname = k;
layers = (
{
anchors = (
{
name = bottom;
position = "{279, 0}";
}
);
layerId = "E4D94E08-F159-4C87-90C4-095EDBFC645B";
name = Regular;
paths = (
{
closed = 1;
nodes = (
"120 664 LINE",
"164 710 LINE",
"151 735 LINE",
"109 734 OFFCURVE",
"55 722 OFFCURVE",
"15 704 CURVE",
"27 657 LINE"
);
},
{
closed = 1;
nodes = (
"102 0 LINE",
"191 0 LINE",
"191 700 LINE",
"151 735 LINE",
"102 698 LINE"
);
},
{
closed = 1;
nodes = (
"112 0 LINE",
"126 67 LINE",
"101 60 OFFCURVE",
"52 45 OFFCURVE",
"28 33 CURVE",
"33 0 LINE"
);
},
{
closed = 1;
nodes = (
"240 0 LINE",
"246 48 LINE",
"223 58 OFFCURVE",
"182 64 OFFCURVE",
"148 67 CURVE",
"147 0 LINE"
);
},
{
closed = 1;
nodes = (
"304 406 LINE",
"430 423 LINE",
"461 450 LINE",
"460 484 LINE",
"419 483 OFFCURVE",
"341 471 OFFCURVE",
"292 453 CURVE"
);
},
{
closed = 1;
nodes = (
"460 484 LINE",
"414 448 LINE",
"267 276 LINE",
"121 195 LINE",
"128 176 LINE",
"289 200 LINE",
"491 434 LINE"
);
},
{
closed = 1;
nodes = (
"484 62 OFFCURVE",
"464 62 OFFCURVE",
"455 75 CURVE SMOOTH",
"323 265 LINE",
"250 227 LINE",
"367 47 LINE SMOOTH",
"392 9 OFFCURVE",
"408 -8 OFFCURVE",
"439 -15 CURVE",
"534 28 LINE",
"519 72 LINE"
);
}
);
width = 564;
}
);
leftKerningGroup = l;
leftMetricsKey = n;
rightKerningGroup = k;
unicode = 006B;
},
{
color = 3;
glyphname = l;
layers = (
{
anchors = (
{
name = bottom;
position = "{150, 0}";
},
{
name = top;
position = "{141, 735}";
},
{
name = topright;
position = "{266, 468}";
}
);
layerId = "E4D94E08-F159-4C87-90C4-095EDBFC645B";
name = Regular;
paths = (
{
closed = 1;
nodes = (
"102 0 LINE",
"191 0 LINE",
"191 700 LINE",
"151 735 LINE",
"102 698 LINE"
);
},
{
closed = 1;
nodes = (
"120 664 LINE",
"164 710 LINE",
"151 735 LINE",
"109 734 OFFCURVE",
"55 722 OFFCURVE",
"15 704 CURVE",
"27 657 LINE"
);
},
{
closed = 1;
nodes = (
"257 0 LINE",
"263 48 LINE",
"240 58 OFFCURVE",
"199 64 OFFCURVE",
"165 67 CURVE",
"164 0 LINE"
);
},
{
closed = 1;
nodes = (
"110 0 LINE",
"124 67 LINE",
"99 60 OFFCURVE",
"50 45 OFFCURVE",
"26 33 CURVE",
"31 0 LINE"
);
}
);
width = 298;
}
);
leftKerningGroup = l;
leftMetricsKey = n;
rightKerningGroup = l;
unicode = 006C;
},
{
color = 3;
glyphname = m;
layers = (
{
layerId = "E4D94E08-F159-4C87-90C4-095EDBFC645B";
name = Regular;
paths = (
{
closed = 1;
nodes = (
"120 413 LINE",
"164 459 LINE",
"151 484 LINE",
"109 483 OFFCURVE",
"55 471 OFFCURVE",
"15 453 CURVE",
"27 406 LINE"
);
},
{
closed = 1;
nodes = (
"102 0 LINE",
"191 0 LINE",
"191 449 LINE",
"151 484 LINE",
"102 447 LINE"
);
},
{
closed = 1;
nodes = (
"400 0 LINE",
"489 0 LINE",
"489 300 LINE SMOOTH",
"489 370 OFFCURVE",
"485 398 OFFCURVE",
"475 417 CURVE SMOOTH",
"460 445 OFFCURVE",
"422 477 OFFCURVE",
"384 484 CURVE",
"348 484 OFFCURVE",
"255 435 OFFCURVE",
"161 370 CURVE",
"179 328 LINE",
"227 365 OFFCURVE",
"296 404 OFFCURVE",
"336 404 CURVE SMOOTH",
"370 404 OFFCURVE",
"400 377 OFFCURVE",
"400 296 CURVE SMOOTH"
);
},
{
closed = 1;
nodes = (
"699 0 LINE",
"788 0 LINE",
"788 300 LINE SMOOTH",
"788 370 OFFCURVE",
"784 398 OFFCURVE",
"774 417 CURVE SMOOTH",
"759 445 OFFCURVE",
"721 477 OFFCURVE",
"683 484 CURVE",
"647 484 OFFCURVE",
"554 435 OFFCURVE",
"460 370 CURVE",
"478 328 LINE",
"526 365 OFFCURVE",
"595 404 OFFCURVE",
"635 404 CURVE SMOOTH",
"669 404 OFFCURVE",
"699 377 OFFCURVE",
"699 296 CURVE SMOOTH"
);
},
{
closed = 1;
nodes = (
"115 0 LINE",
"129 67 LINE",
"104 60 OFFCURVE",
"55 45 OFFCURVE",
"31 33 CURVE",
"36 0 LINE"
);
},
{
closed = 1;
nodes = (
"250 0 LINE",
"256 48 LINE",
"233 58 OFFCURVE",
"192 64 OFFCURVE",
"158 67 CURVE",
"157 0 LINE"
);
},
{
closed = 1;
nodes = (
"427 0 LINE",
"441 67 LINE",
"416 60 OFFCURVE",
"367 45 OFFCURVE",
"343 33 CURVE",
"348 0 LINE"
);
},
{
closed = 1;
nodes = (
"553 0 LINE",
"559 48 LINE",
"536 58 OFFCURVE",
"491 64 OFFCURVE",
"457 67 CURVE",
"456 0 LINE"
);
},
{
closed = 1;
nodes = (
"726 0 LINE",
"740 67 LINE",
"715 60 OFFCURVE",
"666 45 OFFCURVE",
"642 33 CURVE",
"647 0 LINE"
);
},
{
closed = 1;
nodes = (
"852 0 LINE",
"858 48 LINE",
"835 58 OFFCURVE",
"790 64 OFFCURVE",
"756 67 CURVE",
"755 0 LINE"
);
}
);
width = 878;
}
);
leftKerningGroup = n;
leftMetricsKey = n;
rightKerningGroup = n;
rightMetricsKey = n;
unicode = 006D;
},
{
color = 3;
glyphname = n;
layers = (
{
anchors = (
{
name = bottom;
position = "{311, 0}";
},
{
name = top;
position = "{291, 468}";
}
);
layerId = "E4D94E08-F159-4C87-90C4-095EDBFC645B";
name = Regular;
paths = (
{
closed = 1;
nodes = (
"120 413 LINE",
"164 459 LINE",
"151 484 LINE",
"109 483 OFFCURVE",
"55 471 OFFCURVE",
"15 453 CURVE",
"27 406 LINE"
);
},
{
closed = 1;
nodes = (
"102 0 LINE",
"191 0 LINE",
"191 449 LINE",
"151 484 LINE",
"102 447 LINE"
);
},
{
closed = 1;
nodes = (
"115 0 LINE",
"129 67 LINE",
"104 60 OFFCURVE",
"55 45 OFFCURVE",
"31 33 CURVE",
"36 0 LINE"
);
},
{
closed = 1;
nodes = (
"250 0 LINE",
"256 48 LINE",
"233 58 OFFCURVE",
"192 64 OFFCURVE",
"158 67 CURVE",
"157 0 LINE"
);
},
{
closed = 1;
nodes = (
"438 0 LINE",
"452 67 LINE",
"427 60 OFFCURVE",
"378 45 OFFCURVE",
"354 33 CURVE",
"359 0 LINE"
);
},
{
closed = 1;
nodes = (
"564 0 LINE",
"570 48 LINE",
"547 58 OFFCURVE",
"502 64 OFFCURVE",
"468 67 CURVE",
"467 0 LINE"
);
},
{
closed = 1;
nodes = (
"411 0 LINE",
"500 0 LINE",
"500 300 LINE SMOOTH",
"500 370 OFFCURVE",
"496 398 OFFCURVE",
"486 417 CURVE SMOOTH",
"471 445 OFFCURVE",
"433 477 OFFCURVE",
"395 484 CURVE",
"359 484 OFFCURVE",
"266 435 OFFCURVE",
"172 370 CURVE",
"190 328 LINE",
"238 365 OFFCURVE",
"307 404 OFFCURVE",
"347 404 CURVE SMOOTH",
"381 404 OFFCURVE",
"411 377 OFFCURVE",
"411 296 CURVE SMOOTH"
);
}
);
width = 590;
}
);
leftKerningGroup = n;
rightKerningGroup = n;
unicode = 006E;
},
{
color = 3;
glyphname = o;
layers = (
{
anchors = (
{
name = top;
position = "{242, 468}";
}
);
layerId = "E4D94E08-F159-4C87-90C4-095EDBFC645B";
name = Regular;
paths = (
{
closed = 1;
nodes = (
"20 79 OFFCURVE",
"122 -20 OFFCURVE",
"248 -20 CURVE SMOOTH",
"365 -20 OFFCURVE",
"466 64 OFFCURVE",
"466 230 CURVE SMOOTH",
"466 393 OFFCURVE",
"369 488 OFFCURVE",
"246 488 CURVE SMOOTH",
"125 488 OFFCURVE",
"20 396 OFFCURVE",
"20 236 CURVE SMOOTH"
);
},
{
closed = 1;
nodes = (
"289 47 OFFCURVE",
"273 45 OFFCURVE",
"259 45 CURVE SMOOTH",
"158 45 OFFCURVE",
"115 142 OFFCURVE",
"115 247 CURVE SMOOTH",
"115 302 OFFCURVE",
"127 362 OFFCURVE",
"162 404 CURVE",
"179 416 OFFCURVE",
"207 426 OFFCURVE",
"238 426 CURVE SMOOTH",
"334 426 OFFCURVE",
"372 328 OFFCURVE",
"372 219 CURVE SMOOTH",
"372 166 OFFCURVE",
"363 89 OFFCURVE",
"307 52 CURVE"
);
}
);
width = 491;
}
);
leftKerningGroup = o;
rightKerningGroup = o;
unicode = 006F;
},
{
color = 3;
glyphname = p;
layers = (
{
layerId = "E4D94E08-F159-4C87-90C4-095EDBFC645B";
name = Regular;
paths = (
{
closed = 1;
nodes = (
"101 -204 LINE",
"190 -204 LINE",
"190 449 LINE",
"151 484 LINE",
"101 447 LINE"
);
},
{
closed = 1;
nodes = (
"119 -204 LINE",
"133 -137 LINE",
"108 -144 OFFCURVE",
"59 -159 OFFCURVE",
"35 -171 CURVE",
"40 -204 LINE"
);
},
{
closed = 1;
nodes = (
"266 -204 LINE",
"272 -156 LINE",
"249 -146 OFFCURVE",
"208 -140 OFFCURVE",
"174 -137 CURVE",
"173 -204 LINE"
);
},
{
closed = 1;
nodes = (
"157 333 LINE",
"208 369 OFFCURVE",
"260 403 OFFCURVE",
"308 403 CURVE SMOOTH",
"382 403 OFFCURVE",
"431 320 OFFCURVE",
"431 230 CURVE SMOOTH",
"431 158 OFFCURVE",
"400 83 OFFCURVE",
"346 50 CURVE",
"255 36 OFFCURVE",
"190 73 OFFCURVE",
"165 102 CURVE",
"120 13 LINE",
"172 -8 OFFCURVE",
"220 -19 OFFCURVE",
"267 -19 CURVE SMOOTH",
"418 -19 OFFCURVE",
"525 96 OFFCURVE",
"525 250 CURVE SMOOTH",
"525 390 OFFCURVE",
"436 509 OFFCURVE",
"303 481 CURVE",
"148 380 LINE"
);
},
{
closed = 1;
nodes = (
"120 413 LINE",
"164 459 LINE",
"151 484 LINE",
"109 483 OFFCURVE",
"55 471 OFFCURVE",
"15 453 CURVE",
"27 406 LINE"
);
}
);
width = 550;
}
);
leftKerningGroup = n;
leftMetricsKey = n;
rightKerningGroup = o;
rightMetricsKey = o;
unicode = 0070;
},
{
color = 3;
glyphname = q;
layers = (
{
layerId = "E4D94E08-F159-4C87-90C4-095EDBFC645B";
name = Regular;
paths = (
{
closed = 1;
nodes = (
"491 420 LINE",
"474 468 LINE",
"364 450 LINE",
"352 415 LINE",
"352 -204 LINE",
"441 -204 LINE",
"441 388 LINE"
);
},
{
closed = 1;
nodes = (
"356 -204 LINE",
"356 -137 LINE",
"331 -144 OFFCURVE",
"282 -159 OFFCURVE",
"258 -171 CURVE",
"263 -204 LINE"
);
},
{
closed = 1;
nodes = (
"492 -204 LINE",
"498 -156 LINE",
"475 -146 OFFCURVE",
"434 -140 OFFCURVE",
"400 -137 CURVE",
"399 -204 LINE"
);
},
{
closed = 1;
nodes = (
"408 138 LINE",
"346 89 OFFCURVE",
"293 67 OFFCURVE",
"251 67 CURVE SMOOTH",
"168 67 OFFCURVE",
"115 144 OFFCURVE",
"115 244 CURVE SMOOTH",
"115 312 OFFCURVE",
"140 379 OFFCURVE",
"186 420 CURVE",
"272 439 OFFCURVE",
"356 395 OFFCURVE",
"389 344 CURVE",
"432 417 LINE",
"410 455 OFFCURVE",
"350 490 OFFCURVE",
"273 490 CURVE SMOOTH",
"141 490 OFFCURVE",
"20 388 OFFCURVE",
"20 233 CURVE SMOOTH",
"20 96 OFFCURVE",
"115 -17 OFFCURVE",
"250 -15 CURVE",
"405 89 LINE"
);
}
);
width = 528;
}
);
leftKerningGroup = o;
leftMetricsKey = o;
unicode = 0071;
},
{
color = 3;
glyphname = r;
layers = (
{
anchors = (
{
name = bottom;
position = "{179, 0}";
},
{
name = top;
position = "{222, 468}";
}
);
layerId = "E4D94E08-F159-4C87-90C4-095EDBFC645B";
name = Regular;
paths = (
{
closed = 1;
nodes = (
"120 413 LINE",
"164 459 LINE",
"151 484 LINE",
"109 483 OFFCURVE",
"55 471 OFFCURVE",
"15 453 CURVE",
"27 406 LINE"
);
},
{
closed = 1;
nodes = (
"102 0 LINE",
"191 0 LINE",
"191 449 LINE",
"151 484 LINE",
"102 447 LINE"
);
},
{
closed = 1;
nodes = (
"113 0 LINE",
"127 67 LINE",
"102 60 OFFCURVE",
"53 45 OFFCURVE",
"29 33 CURVE",
"34 0 LINE"
);
},
{
closed = 1;
nodes = (
"288 0 LINE",
"294 48 LINE",
"271 58 OFFCURVE",
"210 66 OFFCURVE",
"176 67 CURVE",
"175 0 LINE"
);
},
{
closed = 1;
nodes = (
"142 306 LINE",
"162 248 LINE",
"204 324 OFFCURVE",
"278 382 OFFCURVE",
"328 411 CURVE",
"339 301 LINE",
"393 301 LINE",
"406 352 OFFCURVE",
"414 412 OFFCURVE",
"411 463 CURVE",
"379 483 OFFCURVE",
"341 489 OFFCURVE",
"296 470 CURVE"
);
}
);
width = 427;
}
);
leftKerningGroup = n;
leftMetricsKey = n;
rightKerningGroup = r;
unicode = 0072;
},
{
color = 3;
glyphname = s;
layers = (
{
layerId = "E4D94E08-F159-4C87-90C4-095EDBFC645B";
name = Regular;
paths = (
{
closed = 1;
nodes = (
"25 32 LINE",
"90 -4 OFFCURVE",
"149 -20 OFFCURVE",
"202 -20 CURVE SMOOTH",
"303 -20 OFFCURVE",
"374 39 OFFCURVE",
"374 125 CURVE SMOOTH",
"374 286 OFFCURVE",
"123 263 OFFCURVE",
"123 370 CURVE SMOOTH",
"123 388 OFFCURVE",
"130 411 OFFCURVE",
"155 427 CURVE",
"208 432 OFFCURVE",
"281 416 OFFCURVE",
"326 378 CURVE",
"357 458 LINE",
"320 477 OFFCURVE",
"275 488 OFFCURVE",
"229 488 CURVE SMOOTH",
"131 488 OFFCURVE",
"39 439 OFFCURVE",
"39 345 CURVE SMOOTH",
"39 190 OFFCURVE",
"287 217 OFFCURVE",
"287 100 CURVE SMOOTH",
"287 76 OFFCURVE",
"277 57 OFFCURVE",
"260 42 CURVE",
"185 52 OFFCURVE",
"112 86 OFFCURVE",
"62 120 CURVE"
);
},
{
closed = 1;
nodes = (
"340 329 LINE",
"355 370 OFFCURVE",
"359 415 OFFCURVE",
"357 458 CURVE",
"275 452 LINE",
"286 329 LINE"
);
}
);
width = 419;
}
);
leftKerningGroup = s;
rightKerningGroup = s;
unicode = 0073;
},
{
color = 3;
glyphname = t;
layers = (
{
anchors = (
{
name = bottom;
position = "{189, 0}";
},
{
name = center;
position = "{169, 234}";
},
{
name = topright;
position = "{323, 468}";
}
);
layerId = "E4D94E08-F159-4C87-90C4-095EDBFC645B";
name = Regular;
paths = (
{
closed = 1;
nodes = (
"303 91 LINE",
"273 80 OFFCURVE",
"236 68 OFFCURVE",
"211 68 CURVE SMOOTH",
"185 68 OFFCURVE",
"178 82 OFFCURVE",
"178 122 CURVE SMOOTH",
"178 447 LINE",
"178 589 LINE",
"131 589 LINE",
"89 455 LINE",
"89 69 LINE SMOOTH",
"89 27 OFFCURVE",
"147 -18 OFFCURVE",
"190 -15 CURVE",
"320 45 LINE"
);
},
{
closed = 1;
nodes = (
"112 394 LINE",
"156 444 LINE",
"133 469 LINE",
"98 465 OFFCURVE",
"60 458 OFFCURVE",
"20 440 CURVE",
"27 392 LINE"
);
},
{
closed = 1;
nodes = (
"107 391 LINE",
"275 391 LINE",
"322 439 LINE",
"318 468 LINE",
"107 468 LINE"
);
}
);
width = 343;
}
);
leftKerningGroup = t;
rightKerningGroup = t;
unicode = 0074;
},
{
color = 3;
glyphname = u;
layers = (
{
anchors = (
{
name = ogonek;
position = "{507, 12}";
},
{
name = top;
position = "{256, 468}";
}
);
layerId = "E4D94E08-F159-4C87-90C4-095EDBFC645B";
name = Regular;
paths = (
{
closed = 1;
nodes = (
"105 413 LINE",
"149 459 LINE",
"136 484 LINE",
"94 483 OFFCURVE",
"40 471 OFFCURVE",
"0 453 CURVE",
"12 406 LINE"
);
},
{
closed = 1;
nodes = (
"401 126 LINE",
"350 93 OFFCURVE",
"290 62 OFFCURVE",
"242 62 CURVE SMOOTH",
"197 62 OFFCURVE",
"176 90 OFFCURVE",
"176 160 CURVE SMOOTH",
"176 449 LINE",
"136 484 LINE",
"87 447 LINE",
"87 166 LINE SMOOTH",
"87 97 OFFCURVE",
"91 70 OFFCURVE",
"104 50 CURVE SMOOTH",
"120 25 OFFCURVE",
"154 -6 OFFCURVE",
"192 -15 CURVE",
"238 -15 OFFCURVE",
"345 25 OFFCURVE",
"419 83 CURVE"
);
},
{
closed = 1;
nodes = (
"400 413 LINE",
"444 459 LINE",
"431 484 LINE",
"389 483 OFFCURVE",
"335 471 OFFCURVE",
"295 453 CURVE",
"307 406 LINE"
);
},
{
closed = 1;
nodes = (
"529 71 OFFCURVE",
"511 66 OFFCURVE",
"497 66 CURVE SMOOTH",
"482 66 OFFCURVE",
"471 71 OFFCURVE",
"471 86 CURVE",
"471 449 LINE",
"431 484 LINE",
"382 447 LINE",
"382 82 LINE",
"382 68 LINE",
"391 29 OFFCURVE",
"435 -13 OFFCURVE",
"457 -15 CURVE",
"558 31 LINE",
"543 75 LINE"
);
}
);
width = 568;
}
);
leftKerningGroup = u;
rightKerningGroup = u;
rightMetricsKey = d;
unicode = 0075;
},
{
color = 3;
glyphname = v;
layers = (
{
layerId = "E4D94E08-F159-4C87-90C4-095EDBFC645B";
name = Regular;
paths = (
{
closed = 1;
nodes = (
"-10 419 LINE",
"111 412 LINE",
"130 468 LINE",
"-9 468 LINE"
);
},
{
closed = 1;
nodes = (
"112 468 LINE",
"98 397 LINE",
"132 407 OFFCURVE",
"165 418 OFFCURVE",
"197 432 CURVE",
"191 468 LINE"
);
},
{
closed = 1;
nodes = (
"228 -8 OFFCURVE",
"274 -8 OFFCURVE",
"305 3 CURVE",
"365 151 OFFCURVE",
"422 320 OFFCURVE",
"472 468 CURVE",
"375 468 LINE",
"344 345 OFFCURVE",
"302 189 OFFCURVE",
"260 66 CURVE",
"236 66 LINE",
"222 173 LINE",
"130 468 LINE",
"28 467 LINE",
"189 -2 LINE"
);
},
{
closed = 1;
nodes = (
"429 412 LINE",
"448 468 LINE",
"309 468 LINE",
"308 419 LINE"
);
},
{
closed = 1;
nodes = (
"430 468 LINE",
"416 397 LINE",
"450 407 OFFCURVE",
"483 418 OFFCURVE",
"515 432 CURVE",
"509 468 LINE"
);
}
);
width = 505;
}
);
leftKerningGroup = v;
rightKerningGroup = v;
unicode = 0076;
},
{
color = 3;
glyphname = w;
layers = (
{
anchors = (
{
name = top;
position = "{365, 468}";
}
);
layerId = "E4D94E08-F159-4C87-90C4-095EDBFC645B";
name = Regular;
paths = (
{
closed = 1;
nodes = (
"-10 419 LINE",
"111 412 LINE",
"124 468 LINE",
"-9 468 LINE"
);
},
{
closed = 1;
nodes = (
"112 468 LINE",
"98 397 LINE",
"132 407 OFFCURVE",
"165 418 OFFCURVE",
"197 432 CURVE",
"191 468 LINE"
);
},
{
closed = 1;
nodes = (
"703 468 LINE",
"615 468 LINE",
"502 59 LINE",
"495 59 LINE",
"476 171 LINE",
"381 461 LINE",
"293 438 LINE",
"444 -2 LINE",
"480 -10 OFFCURVE",
"531 -6 OFFCURVE",
"565 6 CURVE"
);
},
{
closed = 1;
nodes = (
"659 412 LINE",
"678 468 LINE",
"539 468 LINE",
"538 419 LINE"
);
},
{
closed = 1;
nodes = (
"663 468 LINE",
"649 397 LINE",
"683 407 OFFCURVE",
"716 418 OFFCURVE",
"748 432 CURVE",
"742 468 LINE"
);
},
{
closed = 1;
nodes = (
"356 359 LINE",
"244 59 LINE",
"236 59 LINE",
"213 171 LINE",
"127 468 LINE",
"30 467 LINE",
"174 -2 LINE",
"212 -8 OFFCURVE",
"258 -6 OFFCURVE",
"290 6 CURVE",
"360 176 LINE",
"378 275 LINE"
);
}
);
width = 738;
}
);
leftKerningGroup = v;
leftMetricsKey = v;
rightKerningGroup = v;
rightMetricsKey = v;
unicode = 0077;
},
{
color = 3;
glyphname = x;
layers = (
{
layerId = "E4D94E08-F159-4C87-90C4-095EDBFC645B";
name = Regular;
paths = (
{
closed = 1;
nodes = (
"31 419 LINE",
"144 412 LINE",
"173 468 LINE",
"32 468 LINE"
);
},
{
closed = 1;
nodes = (
"168 407 OFFCURVE",
"201 418 OFFCURVE",
"233 432 CURVE",
"227 468 LINE",
"148 468 LINE",
"134 397 LINE SMOOTH"
);
},
{
closed = 1;
nodes = (
"439 412 LINE",
"458 468 LINE",
"319 468 LINE",
"318 419 LINE"
);
},
{
closed = 1;
nodes = (
"422 468 LINE",
"408 397 LINE",
"442 407 OFFCURVE",
"475 418 OFFCURVE",
"507 432 CURVE",
"501 468 LINE"
);
},
{
closed = 1;
nodes = (
"409 0 LINE",
"507 0 LINE",
"153 468 LINE",
"70 439 LINE"
);
},
{
closed = 1;
nodes = (
"454 418 LINE",
"466 468 LINE",
"409 468 LINE",
"260 264 LINE",
"301 225 LINE"
);
},
{
closed = 1;
nodes = (
"21 0 LINE",
"99 0 LINE",
"114 0 LINE",
"267 208 LINE",
"226 254 LINE"
);
},
{
closed = 1;
nodes = (
"89 0 LINE",
"103 67 LINE",
"78 60 OFFCURVE",
"29 45 OFFCURVE",
"5 33 CURVE",
"10 0 LINE"
);
},
{
closed = 1;
nodes = (
"213 0 LINE",
"219 48 LINE",
"196 58 OFFCURVE",
"155 64 OFFCURVE",
"121 67 CURVE",
"110 0 LINE"
);
},
{
closed = 1;
nodes = (
"444 0 LINE",
"408 67 LINE",
"383 60 OFFCURVE",
"334 45 OFFCURVE",
"310 33 CURVE",
"315 0 LINE"
);
},
{
closed = 1;
nodes = (
"519 0 LINE",
"525 48 LINE",
"502 58 OFFCURVE",
"461 64 OFFCURVE",
"427 67 CURVE",
"416 0 LINE"
);
}
);
width = 540;
}
);
leftKerningGroup = x;
rightKerningGroup = x;
unicode = 0078;
},
{
color = 3;
glyphname = y;
layers = (
{
anchors = (
{
name = top;
position = "{255, 468}";
}
);
layerId = "E4D94E08-F159-4C87-90C4-095EDBFC645B";
name = Regular;
paths = (
{
closed = 1;
nodes = (
"-10 419 LINE",
"111 412 LINE",
"130 468 LINE",
"-9 468 LINE"
);
},
{
closed = 1;
nodes = (
"122 468 LINE",
"108 397 LINE",
"142 407 OFFCURVE",
"175 418 OFFCURVE",
"207 432 CURVE",
"201 468 LINE"
);
},
{
closed = 1;
nodes = (
"302 419 LINE",
"423 412 LINE",
"442 468 LINE",
"303 468 LINE"
);
},
{
closed = 1;
nodes = (
"428 468 LINE",
"414 397 LINE",
"448 407 OFFCURVE",
"481 418 OFFCURVE",
"513 432 CURVE",
"507 468 LINE"
);
},
{
closed = 1;
nodes = (
"221 -146 OFFCURVE",
"285 -53 OFFCURVE",
"332 56 CURVE",
"376 176 OFFCURVE",
"428 336 OFFCURVE",
"467 468 CURVE",
"373 468 LINE",
"349 346 OFFCURVE",
"303 181 OFFCURVE",
"261 67 CURVE",
"242 67 LINE",
"225 182 LINE",
"129 468 LINE",
"30 457 LINE",
"186 27 LINE",
"200 14 OFFCURVE",
"222 2 OFFCURVE",
"239 -4 CURVE",
"187 -62 OFFCURVE",
"124 -96 OFFCURVE",
"53 -126 CURVE",
"103 -217 LINE"
);
}
);
width = 503;
}
);
leftKerningGroup = v;
leftMetricsKey = v;
rightKerningGroup = y;
rightMetricsKey = v;
unicode = 0079;
},
{
color = 3;
glyphname = z;
layers = (
{
anchors = (
{
name = top;
position = "{245, 468}";
}
);
layerId = "E4D94E08-F159-4C87-90C4-095EDBFC645B";
name = Regular;
paths = (
{
closed = 1;
nodes = (
"54 400 LINE",
"348 409 LINE",
"391 468 LINE",
"50 468 LINE"
);
},
{
closed = 1;
nodes = (
"421 490 LINE",
"371 455 LINE",
"345 447 LINE",
"30 21 LINE",
"74 -15 LINE",
"128 34 LINE",
"162 64 LINE",
"455 460 LINE"
);
},
{
closed = 1;
nodes = (
"406 147 LINE",
"385 71 LINE",
"120 84 LINE",
"81 22 LINE",
"434 -10 LINE",
"445 27 OFFCURVE",
"455 81 OFFCURVE",
"457 140 CURVE"
);
},
{
closed = 1;
nodes = (
"108 302 LINE",
"122 420 LINE",
"50 468 LINE",
"45 418 OFFCURVE",
"48 352 OFFCURVE",
"59 302 CURVE"
);
}
);
width = 482;
}
);
leftKerningGroup = z;
rightKerningGroup = z;
unicode = 007A;
},
{
color = 3;
glyphname = braceleft;
layers = (
{
layerId = "E4D94E08-F159-4C87-90C4-095EDBFC645B";
name = Regular;
paths = (
{
closed = 1;
nodes = (
"329 -72 LINE",
"239 -60 LINE",
"239 149 LINE SMOOTH",
"239 201 OFFCURVE",
"226 246 OFFCURVE",
"189 295 CURVE",
"189 304 LINE",
"226 352 OFFCURVE",
"239 398 OFFCURVE",
"239 449 CURVE SMOOTH",
"239 656 LINE",
"332 656 LINE",
"326 729 LINE",
"197 715 OFFCURVE",
"144 640 OFFCURVE",
"144 561 CURVE SMOOTH",
"144 443 LINE SMOOTH",
"144 374 OFFCURVE",
"137 333 OFFCURVE",
"75 327 CURVE",
"69 268 LINE",
"139 262 OFFCURVE",
"144 223 OFFCURVE",
"144 142 CURVE SMOOTH",
"144 10 LINE SMOOTH",
"144 -60 OFFCURVE",
"211 -135 OFFCURVE",
"319 -145 CURVE"
);
}
);
width = 419;
}
);
unicode = 007B;
},
{
color = 3;
glyphname = bar;
layers = (
{
layerId = "E4D94E08-F159-4C87-90C4-095EDBFC645B";
name = Regular;
paths = (
{
closed = 1;
nodes = (
"184 -225 LINE",
"184 735 LINE",
"107 735 LINE",
"107 -225 LINE"
);
}
);
width = 293;
}
);
unicode = 007C;
},
{
color = 3;
glyphname = braceright;
layers = (
{
layerId = "E4D94E08-F159-4C87-90C4-095EDBFC645B";
name = Regular;
paths = (
{
closed = 1;
nodes = (
"210 -135 OFFCURVE",
"277 -60 OFFCURVE",
"277 10 CURVE SMOOTH",
"277 142 LINE SMOOTH",
"277 223 OFFCURVE",
"282 262 OFFCURVE",
"352 268 CURVE",
"346 327 LINE",
"284 333 OFFCURVE",
"277 374 OFFCURVE",
"277 443 CURVE SMOOTH",
"277 561 LINE SMOOTH",
"277 640 OFFCURVE",
"224 715 OFFCURVE",
"95 729 CURVE",
"89 656 LINE",
"182 656 LINE",
"182 449 LINE SMOOTH",
"182 398 OFFCURVE",
"195 352 OFFCURVE",
"232 304 CURVE",
"232 295 LINE",
"195 246 OFFCURVE",
"182 201 OFFCURVE",
"182 149 CURVE SMOOTH",
"182 -60 LINE",
"92 -72 LINE",
"102 -145 LINE"
);
}
);
width = 425;
}
);
unicode = 007D;
},
{
color = 3;
glyphname = cent;
layers = (
{
components = (
{
name = c;
transform = "{1, 0, 0, 0.916, 0, 29}";
}
);
layerId = "E4D94E08-F159-4C87-90C4-095EDBFC645B";
name = Regular;
paths = (
{
closed = 1;
nodes = (
"210 454 LINE",
"272 454 LINE",
"272 605 LINE",
"210 605 LINE"
);
},
{
closed = 1;
nodes = (
"210 -115 LINE",
"272 -115 LINE",
"272 36 LINE",
"210 36 LINE"
);
}
);
width = 415;
}
);
leftMetricsKey = c;
rightMetricsKey = c;
unicode = 00A2;
},
{
color = 3;
glyphname = sterling;
layers = (
{
layerId = "E4D94E08-F159-4C87-90C4-095EDBFC645B";
name = Regular;
paths = (
{
closed = 1;
nodes = (
"145 670 OFFCURVE",
"83 569 OFFCURVE",
"83 495 CURVE SMOOTH",
"83 387 OFFCURVE",
"217 240 OFFCURVE",
"40 0 CURVE",
"99 0 LINE",
"322 232 OFFCURVE",
"172 358 OFFCURVE",
"172 498 CURVE SMOOTH",
"172 532 OFFCURVE",
"181 583 OFFCURVE",
"213 608 CURVE",
"282 614 OFFCURVE",
"349 601 OFFCURVE",
"388 550 CURVE",
"439 639 LINE",
"399 652 OFFCURVE",
"347 670 OFFCURVE",
"287 670 CURVE SMOOTH"
);
},
{
closed = 1;
nodes = (
"76 57 OFFCURVE",
"40 46 OFFCURVE",
"10 32 CURVE",
"16 0 LINE",
"110 0 LINE",
"109 67 LINE"
);
},
{
closed = 1;
nodes = (
"151 66 LINE",
"89 0 LINE",
"462 0 LINE",
"445 79 LINE"
);
},
{
closed = 1;
nodes = (
"377 312 LINE",
"371 341 LINE",
"190 341 LINE",
"154 331 LINE",
"79 331 LINE",
"36 296 LINE",
"42 267 LINE",
"150 267 LINE",
"187 277 LINE",
"334 277 LINE"
);
},
{
closed = 1;
nodes = (
"440 531 OFFCURVE",
"442 606 OFFCURVE",
"439 639 CURVE",
"359 594 LINE",
"375 472 LINE",
"429 470 LINE"
);
},
{
closed = 1;
nodes = (
"414 175 LINE",
"384 40 LINE",
"462 0 LINE",
"469 43 OFFCURVE",
"472 109 OFFCURVE",
"470 171 CURVE"
);
}
);
width = 511;
}
);
unicode = 00A3;
},
{
color = 3;
glyphname = currency;
layers = (
{
layerId = "E4D94E08-F159-4C87-90C4-095EDBFC645B";
name = Regular;
paths = (
{
closed = 1;
nodes = (
"82 254 OFFCURVE",
"155 174 OFFCURVE",
"253 174 CURVE SMOOTH",
"340 174 OFFCURVE",
"426 238 OFFCURVE",
"426 358 CURVE SMOOTH",
"426 475 OFFCURVE",
"345 536 OFFCURVE",
"260 536 CURVE SMOOTH",
"169 536 OFFCURVE",
"82 467 OFFCURVE",
"82 356 CURVE SMOOTH"
);
},
{
closed = 1;
nodes = (
"296 234 OFFCURVE",
"282 233 OFFCURVE",
"271 233 CURVE SMOOTH",
"184 233 OFFCURVE",
"152 297 OFFCURVE",
"152 359 CURVE SMOOTH",
"152 407 OFFCURVE",
"171 452 OFFCURVE",
"196 471 CURVE",
"210 474 OFFCURVE",
"221 475 OFFCURVE",
"233 475 CURVE SMOOTH",
"328 475 OFFCURVE",
"355 405 OFFCURVE",
"355 347 CURVE SMOOTH",
"355 294 OFFCURVE",
"332 243 OFFCURVE",
"311 237 CURVE"
);
},
{
closed = 1;
nodes = (
"132 251 LINE",
"66 170 LINE",
"112 129 LINE",
"181 213 LINE"
);
},
{
closed = 1;
nodes = (
"330 212 LINE",
"404 131 LINE",
"448 174 LINE",
"374 255 LINE"
);
},
{
closed = 1;
nodes = (
"177 500 LINE",
"107 579 LINE",
"60 538 LINE",
"133 455 LINE"
);
},
{
closed = 1;
nodes = (
"380 454 LINE",
"450 539 LINE",
"402 578 LINE",
"333 495 LINE"
);
}
);
width = 510;
}
);
unicode = 00A4;
},
{
color = 3;
glyphname = yen;
layers = (
{
components = (
{
name = Y;
transform = "{1, 0, 0, 1, -20, 0}";
}
);
layerId = "E4D94E08-F159-4C87-90C4-095EDBFC645B";
name = Regular;
paths = (
{
closed = 1;
nodes = (
"459 263 LINE",
"453 292 LINE",
"149 292 LINE",
"106 267 LINE",
"112 238 LINE",
"416 238 LINE"
);
},
{
closed = 1;
nodes = (
"459 142 LINE",
"453 171 LINE",
"149 171 LINE",
"106 146 LINE",
"112 117 LINE",
"416 117 LINE"
);
}
);
width = 597;
}
);
leftMetricsKey = y;
rightMetricsKey = Y;
unicode = 00A5;
},
{
color = 3;
glyphname = brokenbar;
layers = (
{
layerId = "E4D94E08-F159-4C87-90C4-095EDBFC645B";
name = Regular;
paths = (
{
closed = 1;
nodes = (
"184 358 LINE",
"184 616 LINE",
"107 616 LINE",
"107 358 LINE"
);
},
{
closed = 1;
nodes = (
"184 -76 LINE",
"184 182 LINE",
"107 182 LINE",
"107 -76 LINE"
);
}
);
width = 293;
}
);
leftMetricsKey = bar;
rightMetricsKey = bar;
unicode = 00A6;
},
{
color = 3;
glyphname = section;
layers = (
{
layerId = "E4D94E08-F159-4C87-90C4-095EDBFC645B";
name = Regular;
paths = (
{
closed = 1;
nodes = (
"456 531 OFFCURVE",
"458 606 OFFCURVE",
"455 639 CURVE",
"375 594 LINE",
"391 472 LINE",
"445 470 LINE"
);
},
{
closed = 1;
nodes = (
"383 102 LINE",
"446 144 OFFCURVE",
"478 181 OFFCURVE",
"478 236 CURVE SMOOTH",
"478 338 OFFCURVE",
"367 378 OFFCURVE",
"296 404 CURVE SMOOTH",
"206 437 OFFCURVE",
"151 455 OFFCURVE",
"151 510 CURVE SMOOTH",
"151 539 OFFCURVE",
"166 572 OFFCURVE",
"190 594 CURVE",
"287 619 OFFCURVE",
"367 593 OFFCURVE",
"415 543 CURVE",
"455 639 LINE",
"415 652 OFFCURVE",
"354 670 OFFCURVE",
"290 670 CURVE SMOOTH",
"172 670 OFFCURVE",
"66 607 OFFCURVE",
"66 504 CURVE SMOOTH",
"66 416 OFFCURVE",
"142 373 OFFCURVE",
"240 337 CURVE SMOOTH",
"323 307 OFFCURVE",
"397 289 OFFCURVE",
"397 218 CURVE SMOOTH",
"397 187 OFFCURVE",
"382 170 OFFCURVE",
"350 141 CURVE"
);
},
{
closed = 1;
nodes = (
"146 414 LINE",
"104 386 OFFCURVE",
"57 340 OFFCURVE",
"57 274 CURVE SMOOTH",
"57 187 OFFCURVE",
"140 146 OFFCURVE",
"223 115 CURVE SMOOTH",
"309 83 OFFCURVE",
"390 67 OFFCURVE",
"390 2 CURVE SMOOTH",
"390 -18 OFFCURVE",
"382 -40 OFFCURVE",
"363 -61 CURVE",
"295 -82 OFFCURVE",
"185 -52 OFFCURVE",
"107 -3 CURVE",
"70 -88 LINE",
"128 -130 OFFCURVE",
"216 -147 OFFCURVE",
"270 -147 CURVE SMOOTH",
"376 -147 OFFCURVE",
"468 -81 OFFCURVE",
"468 16 CURVE SMOOTH",
"468 98 OFFCURVE",
"404 139 OFFCURVE",
"276 185 CURVE SMOOTH",
"186 217 OFFCURVE",
"133 237 OFFCURVE",
"133 290 CURVE SMOOTH",
"133 320 OFFCURVE",
"150 348 OFFCURVE",
"178 370 CURVE"
);
}
);
width = 518;
}
);
leftMetricsKey = S;
rightMetricsKey = S;
unicode = 00A7;
},
{
color = 3;
glyphname = copyright;
layers = (
{
layerId = "E4D94E08-F159-4C87-90C4-095EDBFC645B";
name = Regular;
paths = (
{
closed = 1;
nodes = (
"616 -19 OFFCURVE",
"767 140 OFFCURVE",
"767 332 CURVE SMOOTH",
"767 529 OFFCURVE",
"609 686 OFFCURVE",
"414 686 CURVE SMOOTH",
"220 686 OFFCURVE",
"62 530 OFFCURVE",
"62 331 CURVE SMOOTH",
"62 131 OFFCURVE",
"220 -19 OFFCURVE",
"415 -19 CURVE SMOOTH"
);
},
{
closed = 1;
nodes = (
"254 42 OFFCURVE",
"123 166 OFFCURVE",
"123 331 CURVE SMOOTH",
"123 495 OFFCURVE",
"254 625 OFFCURVE",
"415 625 CURVE SMOOTH",
"576 625 OFFCURVE",
"706 494 OFFCURVE",
"706 334 CURVE SMOOTH",
"706 173 OFFCURVE",
"576 42 OFFCURVE",
"413 42 CURVE SMOOTH"
);
},
{
closed = 1;
nodes = (
"548 232 LINE",
"506 213 OFFCURVE",
"470 205 OFFCURVE",
"439 205 CURVE SMOOTH",
"351 205 OFFCURVE",
"306 270 OFFCURVE",
"306 341 CURVE SMOOTH",
"306 388 OFFCURVE",
"326 437 OFFCURVE",
"367 472 CURVE",
"431 470 OFFCURVE",
"478 444 OFFCURVE",
"516 403 CURVE",
"575 457 LINE",
"535 509 OFFCURVE",
"483 529 OFFCURVE",
"426 529 CURVE SMOOTH",
"299 529 OFFCURVE",
"231 429 OFFCURVE",
"231 329 CURVE SMOOTH",
"231 232 OFFCURVE",
"295 135 OFFCURVE",
"429 133 CURVE",
"565 190 LINE"
);
}
);
width = 830;
}
);
unicode = 00A9;
},
{
color = 3;
glyphname = ordfeminine;
layers = (
{
layerId = "E4D94E08-F159-4C87-90C4-095EDBFC645B";
name = Regular;
paths = (
{
closed = 1;
nodes = (
"61 418 OFFCURVE",
"52 392 OFFCURVE",
"52 370 CURVE SMOOTH",
"52 326 OFFCURVE",
"88 287 OFFCURVE",
"160 290 CURVE",
"241 341 LINE",
"240 369 LINE",
"220 359 OFFCURVE",
"168 340 OFFCURVE",
"131 340 CURVE",
"123 347 OFFCURVE",
"118 355 OFFCURVE",
"118 368 CURVE SMOOTH",
"118 416 OFFCURVE",
"190 412 OFFCURVE",
"232 409 CURVE SMOOTH",
"244 408 LINE",
"247 447 LINE",
"92 442 LINE"
);
},
{
closed = 1;
nodes = (
"62 551 OFFCURVE",
"68 517 OFFCURVE",
"77 493 CURVE",
"119 498 LINE",
"123 570 LINE",
"139 575 OFFCURVE",
"164 578 OFFCURVE",
"197 579 CURVE",
"220 567 OFFCURVE",
"230 543 OFFCURVE",
"230 508 CURVE SMOOTH",
"230 354 LINE",
"232 346 LINE",
"239 318 OFFCURVE",
"269 291 OFFCURVE",
"286 290 CURVE",
"357 324 LINE",
"348 353 LINE",
"338 351 OFFCURVE",
"327 348 OFFCURVE",
"317 348 CURVE SMOOTH",
"307 348 OFFCURVE",
"300 352 OFFCURVE",
"300 362 CURVE",
"300 499 LINE SMOOTH",
"300 545 OFFCURVE",
"299 554 OFFCURVE",
"293 567 CURVE SMOOTH",
"281 591 OFFCURVE",
"249 626 OFFCURVE",
"212 626 CURVE SMOOTH",
"182 626 OFFCURVE",
"90 603 OFFCURVE",
"62 574 CURVE"
);
},
{
closed = 1;
nodes = (
"30 255 LINE",
"30 204 LINE",
"374 204 LINE",
"374 255 LINE"
);
}
);
width = 404;
}
);
unicode = 00AA;
},
{
color = 3;
glyphname = guillemetleft;
layers = (
{
layerId = "E4D94E08-F159-4C87-90C4-095EDBFC645B";
name = Regular;
paths = (
{
closed = 1;
nodes = (
"60 233 LINE",
"200 46 LINE",
"255 81 LINE",
"159 253 LINE",
"250 433 LINE",
"194 463 LINE",
"60 273 LINE"
);
},
{
closed = 1;
nodes = (
"251 233 LINE",
"391 46 LINE",
"446 81 LINE",
"350 253 LINE",
"441 433 LINE",
"385 463 LINE",
"251 273 LINE"
);
}
);
width = 506;
}
);
leftMetricsKey = guilsinglleft;
rightMetricsKey = guilsinglleft;
unicode = 00AB;
},
{
color = 3;
glyphname = logicalnot;
layers = (
{
layerId = "E4D94E08-F159-4C87-90C4-095EDBFC645B";
name = Regular;
paths = (
{
closed = 1;
nodes = (
"60 264 LINE",
"60 199 LINE",
"532 199 LINE",
"532 264 LINE"
);
},
{
closed = 1;
nodes = (
"532 264 LINE",
"455 264 LINE",
"455 0 LINE",
"532 0 LINE"
);
}
);
width = 592;
}
);
leftMetricsKey = minus;
rightMetricsKey = minus;
unicode = 00AC;
},
{
color = 3;
glyphname = softhyphen;
layers = (
{
layerId = "E4D94E08-F159-4C87-90C4-095EDBFC645B";
name = Regular;
paths = (
{
closed = 1;
nodes = (
"314 249 LINE",
"323 269 LINE",
"293 319 LINE",
"39 319 LINE",
"30 299 LINE",
"60 249 LINE"
);
}
);
width = 353;
}
);
unicode = 00AD;
},
{
color = 3;
glyphname = registered;
layers = (
{
layerId = "E4D94E08-F159-4C87-90C4-095EDBFC645B";
name = Regular;
paths = (
{
closed = 1;
nodes = (
"554 658 OFFCURVE",
"441 768 OFFCURVE",
"285 768 CURVE SMOOTH",
"130 768 OFFCURVE",
"16 660 OFFCURVE",
"16 504 CURVE SMOOTH",
"16 352 OFFCURVE",
"123 240 OFFCURVE",
"283 240 CURVE SMOOTH",
"441 240 OFFCURVE",
"554 348 OFFCURVE",
"554 503 CURVE SMOOTH"
);
},
{
closed = 1;
nodes = (
"512 368 OFFCURVE",
"415 281 OFFCURVE",
"281 281 CURVE SMOOTH",
"142 281 OFFCURVE",
"58 373 OFFCURVE",
"58 501 CURVE SMOOTH",
"58 634 OFFCURVE",
"150 729 OFFCURVE",
"285 729 CURVE SMOOTH",
"420 729 OFFCURVE",
"512 635 OFFCURVE",
"512 503 CURVE SMOOTH"
);
},
{
closed = 1;
nodes = (
"143 650 LINE",
"143 620 LINE",
"203 616 LINE",
"202 650 LINE"
);
},
{
closed = 1;
nodes = (
"181 373 LINE",
"237 373 LINE",
"237 650 LINE",
"181 650 LINE"
);
},
{
closed = 1;
nodes = (
"338 603 OFFCURVE",
"348 583 OFFCURVE",
"348 564 CURVE SMOOTH",
"348 536 OFFCURVE",
"329 512 OFFCURVE",
"260 512 CURVE SMOOTH",
"240 512 OFFCURVE",
"230 514 OFFCURVE",
"216 518 CURVE",
"214 476 LINE",
"281 476 LINE SMOOTH",
"373 476 OFFCURVE",
"408 521 OFFCURVE",
"408 564 CURVE SMOOTH",
"408 611 OFFCURVE",
"366 650 OFFCURVE",
"285 650 CURVE",
"228 650 LINE",
"225 609 LINE",
"305 616 LINE"
);
},
{
closed = 1;
nodes = (
"202 417 OFFCURVE",
"157 404 OFFCURVE",
"140 395 CURVE",
"144 373 LINE",
"193 373 LINE",
"202 417 LINE"
);
},
{
closed = 1;
nodes = (
"216 373 LINE",
"285 373 LINE",
"286 401 LINE",
"218 407 LINE"
);
},
{
closed = 1;
nodes = (
"273 504 LINE",
"352 373 LINE",
"421 373 LINE",
"330 509 LINE"
);
},
{
closed = 1;
nodes = (
"364 373 LINE",
"433 373 LINE",
"434 401 LINE",
"366 407 LINE"
);
}
);
width = 570;
}
);
unicode = 00AE;
},
{
color = 3;
glyphname = degree;
layers = (
{
layerId = "E4D94E08-F159-4C87-90C4-095EDBFC645B";
name = Regular;
paths = (
{
closed = 1;
nodes = (
"193 423 OFFCURVE",
"181 422 OFFCURVE",
"171 422 CURVE SMOOTH",
"117 422 OFFCURVE",
"88 466 OFFCURVE",
"88 511 CURVE SMOOTH",
"88 535 OFFCURVE",
"96 559 OFFCURVE",
"112 578 CURVE",
"127 584 OFFCURVE",
"140 587 OFFCURVE",
"153 587 CURVE SMOOTH",
"203 587 OFFCURVE",
"234 541 OFFCURVE",
"234 495 CURVE SMOOTH",
"234 470 OFFCURVE",
"225 445 OFFCURVE",
"205 427 CURVE"
);
},
{
closed = 1;
nodes = (
"30 426 OFFCURVE",
"92 374 OFFCURVE",
"164 374 CURVE SMOOTH",
"239 374 OFFCURVE",
"293 425 OFFCURVE",
"293 505 CURVE SMOOTH",
"293 579 OFFCURVE",
"235 637 OFFCURVE",
"160 637 CURVE SMOOTH",
"87 637 OFFCURVE",
"30 579 OFFCURVE",
"30 505 CURVE SMOOTH"
);
}
);
width = 353;
}
);
unicode = 00B0;
},
{
color = 3;
glyphname = plusminus;
layers = (
{
layerId = "E4D94E08-F159-4C87-90C4-095EDBFC645B";
name = Regular;
paths = (
{
closed = 1;
nodes = (
"304 383 LINE",
"304 563 LINE",
"227 563 LINE",
"227 383 LINE",
"60 383 LINE",
"60 321 LINE",
"227 321 LINE",
"227 138 LINE",
"304 138 LINE",
"304 321 LINE",
"471 321 LINE",
"471 383 LINE"
);
},
{
closed = 1;
nodes = (
"66 62 LINE",
"67 0 LINE",
"461 0 LINE",
"461 62 LINE"
);
}
);
width = 531;
}
);
leftMetricsKey = minus;
rightMetricsKey = minus;
unicode = 00B1;
},
{
color = 3;
glyphname = twosuperior;
layers = (
{
layerId = "E4D94E08-F159-4C87-90C4-095EDBFC645B";
name = Regular;
paths = (
{
closed = 1;
nodes = (
"71 632 LINE",
"88 712 LINE",
"25 717 LINE",
"23 692 OFFCURVE",
"26 657 OFFCURVE",
"31 632 CURVE"
);
},
{
closed = 1;
nodes = (
"34 426 LINE",
"245 426 LINE",
"256 493 LINE",
"101 472 LINE",
"99 478 LINE",
"192 547 OFFCURVE",
"241 602 OFFCURVE",
"241 655 CURVE SMOOTH",
"241 702 OFFCURVE",
"204 751 OFFCURVE",
"131 751 CURVE SMOOTH",
"90 751 OFFCURVE",
"54 736 OFFCURVE",
"25 717 CURVE",
"59 698 LINE",
"80 707 OFFCURVE",
"106 711 OFFCURVE",
"119 711 CURVE SMOOTH",
"150 711 OFFCURVE",
"176 691 OFFCURVE",
"176 654 CURVE SMOOTH",
"176 639 OFFCURVE",
"172 614 OFFCURVE",
"110 552 CURVE SMOOTH",
"20 463 LINE"
);
}
);
width = 279;
}
);
unicode = 00B2;
},
{
color = 3;
glyphname = threesuperior;
layers = (
{
layerId = "E4D94E08-F159-4C87-90C4-095EDBFC645B";
name = Regular;
paths = (
{
closed = 1;
nodes = (
"109 720 LINE",
"43 722 LINE",
"41 698 OFFCURVE",
"43 673 OFFCURVE",
"48 649 CURVE",
"83 648 LINE"
);
},
{
closed = 1;
nodes = (
"92 601 LINE",
"93 561 LINE",
"181 589 LINE",
"181 593 LINE",
"225 605 OFFCURVE",
"242 641 OFFCURVE",
"242 670 CURVE SMOOTH",
"242 717 OFFCURVE",
"196 751 OFFCURVE",
"139 751 CURVE SMOOTH",
"107 751 OFFCURVE",
"68 740 OFFCURVE",
"43 722 CURVE",
"61 698 LINE",
"81 708 OFFCURVE",
"101 713 OFFCURVE",
"120 713 CURVE SMOOTH",
"154 713 OFFCURVE",
"180 695 OFFCURVE",
"180 664 CURVE SMOOTH",
"180 640 OFFCURVE",
"163 601 OFFCURVE",
"97 601 CURVE SMOOTH"
);
},
{
closed = 1;
nodes = (
"30 442 LINE",
"67 425 OFFCURVE",
"108 416 OFFCURVE",
"142 416 CURVE SMOOTH",
"205 416 OFFCURVE",
"258 447 OFFCURVE",
"258 506 CURVE SMOOTH",
"258 559 OFFCURVE",
"216 597 OFFCURVE",
"163 592 CURVE",
"173 602 LINE",
"92 601 LINE",
"85 601 LINE",
"85 560 LINE",
"118 560 LINE SMOOTH",
"173 560 OFFCURVE",
"199 531 OFFCURVE",
"199 502 CURVE SMOOTH",
"199 488 OFFCURVE",
"193 474 OFFCURVE",
"181 464 CURVE",
"142 461 OFFCURVE",
"89 480 OFFCURVE",
"49 502 CURVE"
);
}
);
width = 287;
}
);
unicode = 00B3;
},
{
color = 3;
glyphname = foursuperior;
layers = (
{
layerId = "E4D94E08-F159-4C87-90C4-095EDBFC645B";
name = Regular;
paths = (
{
closed = 1;
nodes = (
"56 518 LINE",
"181 708 LINE",
"187 689 LINE",
"197 740 LINE",
"160 751 LINE",
"5 529 LINE",
"16 499 LINE",
"253 499 LINE",
"266 519 LINE",
"266 545 LINE",
"36 543 LINE"
);
},
{
closed = 1;
nodes = (
"148 426 LINE",
"211 426 LINE",
"211 740 LINE",
"160 751 LINE",
"166 705 LINE",
"148 631 LINE"
);
},
{
closed = 1;
nodes = (
"250 426 LINE",
"252 451 LINE",
"183 461 LINE",
"183 426 LINE"
);
},
{
closed = 1;
nodes = (
"163 426 LINE",
"168 468 LINE",
"143 461 OFFCURVE",
"117 453 OFFCURVE",
"95 442 CURVE",
"98 426 LINE"
);
}
);
width = 287;
}
);
unicode = 2074;
},
{
color = 3;
glyphname = micro;
layers = (
{
layerId = "E4D94E08-F159-4C87-90C4-095EDBFC645B";
name = Regular;
paths = (
{
closed = 1;
nodes = (
"502 71 OFFCURVE",
"484 66 OFFCURVE",
"470 66 CURVE SMOOTH",
"455 66 OFFCURVE",
"444 71 OFFCURVE",
"444 86 CURVE",
"444 488 LINE",
"404 488 OFFCURVE",
"368 475 OFFCURVE",
"355 468 CURVE",
"355 82 LINE",
"355 68 LINE",
"364 29 OFFCURVE",
"408 -13 OFFCURVE",
"430 -15 CURVE",
"531 31 LINE",
"516 75 LINE"
);
},
{
closed = 1;
nodes = (
"60 -225 LINE",
"103 -228 OFFCURVE",
"136 -222 OFFCURVE",
"159 -206 CURVE",
"112 33 LINE",
"126 7 OFFCURVE",
"153 -15 OFFCURVE",
"165 -15 CURVE",
"201 -15 OFFCURVE",
"308 18 OFFCURVE",
"402 83 CURVE",
"384 126 LINE",
"341 100 OFFCURVE",
"274 63 OFFCURVE",
"223 63 CURVE SMOOTH",
"181 63 OFFCURVE",
"149 87 OFFCURVE",
"149 160 CURVE SMOOTH",
"149 488 LINE",
"109 488 OFFCURVE",
"73 475 OFFCURVE",
"60 468 CURVE"
);
},
{
closed = 1;
nodes = (
"78 23 LINE",
"154 23 LINE",
"154 67 LINE",
"78 67 LINE"
);
}
);
width = 541;
}
);
rightMetricsKey = u;
unicode = 00B5;
},
{
color = 3;
glyphname = paragraph;
layers = (
{
layerId = "E4D94E08-F159-4C87-90C4-095EDBFC645B";
name = Regular;
paths = (
{
closed = 1;
nodes = (
"291 684 LINE",
"92 697 OFFCURVE",
"0 590 OFFCURVE",
"0 483 CURVE SMOOTH",
"0 401 OFFCURVE",
"55 324 OFFCURVE",
"158 289 CURVE",
"196 326 LINE",
"156 375 OFFCURVE",
"139 408 OFFCURVE",
"139 457 CURVE SMOOTH",
"139 578 OFFCURVE",
"240 614 OFFCURVE",
"378 604 CURVE SMOOTH",
"553 589 LINE",
"560 646 LINE"
);
},
{
closed = 1;
nodes = (
"280 -165 LINE",
"280 -91 LINE",
"280 -91 OFFCURVE",
"198 -108 OFFCURVE",
"150 -130 CURVE",
"156 -165 LINE"
);
},
{
closed = 1;
nodes = (
"574 -165 LINE",
"575 -118 LINE",
"437 -102 LINE",
"434 -165 LINE"
);
},
{
closed = 1;
nodes = (
"268 -165 LINE",
"333 -165 LINE",
"333 609 LINE",
"268 609 LINE"
);
},
{
closed = 1;
nodes = (
"413 -165 LINE",
"478 -165 LINE",
"478 609 LINE",
"413 609 LINE"
);
}
);
width = 610;
}
);
rightMetricsKey = l;
unicode = 00B6;
},
{
color = 3;
glyphname = periodcentered;
layers = (
{
layerId = "E4D94E08-F159-4C87-90C4-095EDBFC645B";
name = Regular;
paths = (
{
closed = 1;
nodes = (
"118 205 OFFCURVE",
"140 233 OFFCURVE",
"149 257 CURVE",
"136 274 OFFCURVE",
"108 300 OFFCURVE",
"84 309 CURVE",
"64 297 OFFCURVE",
"43 269 OFFCURVE",
"30 243 CURVE",
"44 223 OFFCURVE",
"76 199 OFFCURVE",
"97 191 CURVE"
);
}
);
width = 199;
}
);
unicode = 00B7;
},
{
color = 3;
glyphname = onesuperior;
layers = (
{
layerId = "E4D94E08-F159-4C87-90C4-095EDBFC645B";
name = Regular;
paths = (
{
closed = 1;
nodes = (
"107 693 LINE",
"119 734 LINE",
"111 751 LINE",
"0 682 LINE",
"15 654 LINE"
);
},
{
closed = 1;
nodes = (
"142 731 LINE",
"111 751 LINE",
"99 717 LINE"
);
},
{
closed = 1;
nodes = (
"79 426 LINE",
"142 426 LINE",
"142 731 LINE",
"79 724 LINE"
);
},
{
closed = 1;
nodes = (
"90 426 LINE",
"94 469 LINE",
"68 463 OFFCURVE",
"38 453 OFFCURVE",
"17 442 CURVE",
"20 426 LINE"
);
},
{
closed = 1;
nodes = (
"199 426 LINE",
"201 451 LINE",
"133 462 LINE",
"132 426 LINE"
);
}
);
width = 231;
}
);
unicode = 00B9;
},
{
color = 3;
glyphname = ordmasculine;
layers = (
{
layerId = "E4D94E08-F159-4C87-90C4-095EDBFC645B";
name = Regular;
paths = (
{
closed = 1;
nodes = (
"37 356 OFFCURVE",
"103 286 OFFCURVE",
"191 286 CURVE SMOOTH",
"269 286 OFFCURVE",
"344 340 OFFCURVE",
"344 453 CURVE SMOOTH",
"344 565 OFFCURVE",
"270 629 OFFCURVE",
"193 629 CURVE SMOOTH",
"117 629 OFFCURVE",
"37 568 OFFCURVE",
"37 457 CURVE SMOOTH"
);
},
{
closed = 1;
nodes = (
"224 333 OFFCURVE",
"213 332 OFFCURVE",
"204 332 CURVE SMOOTH",
"134 332 OFFCURVE",
"109 396 OFFCURVE",
"109 461 CURVE SMOOTH",
"109 513 OFFCURVE",
"125 563 OFFCURVE",
"145 578 CURVE",
"155 582 OFFCURVE",
"164 584 OFFCURVE",
"176 584 CURVE SMOOTH",
"252 584 OFFCURVE",
"271 497 OFFCURVE",
"271 439 CURVE SMOOTH",
"271 373 OFFCURVE",
"246 341 OFFCURVE",
"235 336 CURVE"
);
},
{
closed = 1;
nodes = (
"20 255 LINE",
"20 204 LINE",
"364 204 LINE",
"364 255 LINE"
);
}
);
width = 414;
}
);
unicode = 00BA;
},
{
color = 3;
glyphname = guillemetright;
layers = (
{
layerId = "E4D94E08-F159-4C87-90C4-095EDBFC645B";
name = Regular;
paths = (
{
closed = 1;
nodes = (
"446 273 LINE",
"312 463 LINE",
"256 433 LINE",
"347 253 LINE",
"251 81 LINE",
"306 46 LINE",
"446 233 LINE"
);
},
{
closed = 1;
nodes = (
"255 273 LINE",
"121 463 LINE",
"65 433 LINE",
"156 253 LINE",
"60 81 LINE",
"115 46 LINE",
"255 233 LINE"
);
}
);
width = 506;
}
);
leftMetricsKey = "=|";
rightMetricsKey = "=|guillemetleft";
unicode = 00BB;
},
{
color = 3;
glyphname = AE;
layers = (
{
anchors = (
{
name = top;
position = "{534, 650}";
}
);
layerId = "E4D94E08-F159-4C87-90C4-095EDBFC645B";
name = Regular;
paths = (
{
closed = 1;
nodes = (
"337 650 LINE",
"336 602 LINE",
"432 596 LINE",
"492 650 LINE"
);
},
{
closed = 1;
nodes = (
"848 650 LINE",
"455 650 LINE",
"530 586 LINE",
"831 573 LINE"
);
},
{
closed = 1;
nodes = (
"417 647 LINE",
"67 0 LINE",
"147 0 LINE",
"474 622 LINE"
);
},
{
closed = 1;
nodes = (
"461 650 LINE",
"461 0 LINE",
"554 0 LINE",
"554 650 LINE"
);
},
{
closed = 1;
nodes = (
"253 262 LINE",
"253 201 LINE",
"544 201 LINE",
"544 262 LINE"
);
},
{
closed = 1;
nodes = (
"109 70 OFFCURVE",
"37 49 OFFCURVE",
"10 35 CURVE",
"16 0 LINE",
"110 0 LINE",
"109 70 LINE"
);
},
{
closed = 1;
nodes = (
"134 0 LINE",
"274 0 LINE",
"275 47 LINE",
"137 63 LINE"
);
},
{
closed = 1;
nodes = (
"475 70 OFFCURVE",
"403 49 OFFCURVE",
"376 35 CURVE",
"382 0 LINE",
"476 0 LINE",
"475 70 LINE"
);
},
{
closed = 1;
nodes = (
"530 64 LINE",
"455 0 LINE",
"848 0 LINE",
"831 77 LINE"
);
},
{
closed = 1;
nodes = (
"543 353 LINE",
"543 294 LINE",
"783 284 LINE",
"783 371 LINE"
);
},
{
closed = 1;
nodes = (
"773 40 LINE",
"848 0 LINE",
"856 43 OFFCURVE",
"862 126 OFFCURVE",
"860 179 CURVE",
"807 183 LINE"
);
},
{
closed = 1;
nodes = (
"838 485 LINE",
"849 546 OFFCURVE",
"851 617 OFFCURVE",
"848 650 CURVE",
"768 605 LINE",
"784 485 LINE"
);
}
);
width = 909;
}
);
leftKerningGroup = A;
leftMetricsKey = A;
rightKerningGroup = E;
rightMetricsKey = E;
unicode = 00C6;
},
{
color = 3;
glyphname = multiply;
layers = (
{
layerId = "E4D94E08-F159-4C87-90C4-095EDBFC645B";
name = Regular;
paths = (
{
closed = 1;
nodes = (
"285 285 LINE",
"127 453 LINE",
"75 409 LINE",
"238 238 LINE",
"77 70 LINE",
"127 22 LINE",
"285 191 LINE",
"443 22 LINE",
"492 69 LINE",
"331 238 LINE",
"495 409 LINE",
"443 455 LINE"
);
}
);
width = 570;
}
);
unicode = 00D7;
},
{
color = 3;
glyphname = Oslash;
layers = (
{
components = (
{
name = O;
}
);
layerId = "E4D94E08-F159-4C87-90C4-095EDBFC645B";
name = Regular;
paths = (
{
closed = 1;
nodes = (
"179 -81 LINE",
"579 693 LINE",
"519 729 LINE",
"118 -47 LINE"
);
}
);
width = 692;
}
);
leftKerningGroup = O;
leftMetricsKey = O;
rightKerningGroup = O;
rightMetricsKey = O;
unicode = 00D8;
},
{
color = 3;
glyphname = Thorn;
layers = (
{
layerId = "E4D94E08-F159-4C87-90C4-095EDBFC645B";
name = Regular;
paths = (
{
closed = 1;
nodes = (
"39 650 LINE",
"38 603 LINE",
"176 587 LINE",
"179 650 LINE"
);
},
{
closed = 1;
nodes = (
"206 650 LINE",
"207 580 LINE",
"207 580 OFFCURVE",
"279 601 OFFCURVE",
"306 615 CURVE",
"300 650 LINE"
);
},
{
closed = 1;
nodes = (
"213 0 LINE",
"213 650 LINE",
"120 650 LINE",
"120 0 LINE"
);
},
{
closed = 1;
nodes = (
"130 0 LINE",
"129 70 LINE",
"129 70 OFFCURVE",
"57 49 OFFCURVE",
"30 35 CURVE",
"36 0 LINE"
);
},
{
closed = 1;
nodes = (
"309 0 LINE",
"310 47 LINE",
"172 63 LINE",
"169 0 LINE"
);
},
{
closed = 1;
nodes = (
"465 155 OFFCURVE",
"549 240 OFFCURVE",
"549 335 CURVE SMOOTH",
"549 421 OFFCURVE",
"479 517 OFFCURVE",
"320 517 CURVE SMOOTH",
"184 517 LINE",
"189 432 LINE",
"368 463 LINE",
"422 436 OFFCURVE",
"448 390 OFFCURVE",
"448 339 CURVE SMOOTH",
"448 276 OFFCURVE",
"407 219 OFFCURVE",
"273 219 CURVE SMOOTH",
"226 219 OFFCURVE",
"199 226 OFFCURVE",
"165 229 CURVE",
"162 155 LINE",
"300 155 LINE SMOOTH"
);
}
);
width = 591;
}
);
leftKerningGroup = I;
leftMetricsKey = I;
rightMetricsKey = P;
unicode = 00DE;
},
{
color = 3;
glyphname = germandbls;
layers = (
{
layerId = "E4D94E08-F159-4C87-90C4-095EDBFC645B";
name = Regular;
paths = (
{
closed = 1;
nodes = (
"171 686 OFFCURVE",
"83 623 OFFCURVE",
"83 479 CURVE SMOOTH",
"83 0 LINE",
"169 0 LINE",
"169 434 LINE",
"157 585 LINE",
"212 622 OFFCURVE",
"292 622 OFFCURVE",
"335 607 CURVE",
"407 505 OFFCURVE",
"290 409 OFFCURVE",
"247 325 CURVE",
"247 232 OFFCURVE",
"434 202 OFFCURVE",
"434 104 CURVE SMOOTH",
"434 84 OFFCURVE",
"426 64 OFFCURVE",
"412 44 CURVE",
"353 53 OFFCURVE",
"295 84 OFFCURVE",
"263 105 CURVE",
"225 21 LINE",
"267 -2 OFFCURVE",
"315 -16 OFFCURVE",
"360 -16 CURVE SMOOTH",
"447 -16 OFFCURVE",
"519 34 OFFCURVE",
"519 120 CURVE SMOOTH",
"519 255 OFFCURVE",
"344 277 OFFCURVE",
"317 353 CURVE",
"406 404 OFFCURVE",
"443 460 OFFCURVE",
"443 520 CURVE SMOOTH",
"443 604 OFFCURVE",
"370 686 OFFCURVE",
"264 686 CURVE SMOOTH"
);
},
{
closed = 1;
nodes = (
"107 394 LINE",
"150 444 LINE",
"128 468 LINE",
"93 465 OFFCURVE",
"55 458 OFFCURVE",
"15 440 CURVE",
"21 391 LINE"
);
},
{
closed = 1;
nodes = (
"99 0 LINE",
"113 67 LINE",
"88 60 OFFCURVE",
"39 45 OFFCURVE",
"15 33 CURVE",
"20 0 LINE"
);
}
);
width = 543;
}
);
leftKerningGroup = f;
leftMetricsKey = f;
unicode = 00DF;
},
{
color = 3;
glyphname = ae;
layers = (
{
anchors = (
{
name = bottom;
position = "{524, 0}";
},
{
name = ogonek;
position = "{703, 51}";
},
{
name = top;
position = "{524, 468}";
}
);
layerId = "E4D94E08-F159-4C87-90C4-095EDBFC645B";
name = Regular;
paths = (
{
closed = 1;
nodes = (
"65 379 OFFCURVE",
"74 334 OFFCURVE",
"92 301 CURVE",
"145 305 LINE",
"153 409 LINE",
"180 417 OFFCURVE",
"228 425 OFFCURVE",
"266 426 CURVE",
"302 408 OFFCURVE",
"315 381 OFFCURVE",
"315 319 CURVE SMOOTH",
"315 192 LINE",
"360 173 LINE",
"393 413 LINE",
"379 443 OFFCURVE",
"331 493 OFFCURVE",
"285 493 CURVE SMOOTH",
"245 493 OFFCURVE",
"123 455 OFFCURVE",
"63 421 CURVE"
);
},
{
closed = 1;
nodes = (
"70 183 OFFCURVE",
"50 142 OFFCURVE",
"50 104 CURVE SMOOTH",
"50 46 OFFCURVE",
"97 -26 OFFCURVE",
"207 -14 CURVE",
"370 69 LINE",
"368 117 LINE",
"337 102 OFFCURVE",
"228 56 OFFCURVE",
"170 58 CURVE",
"152 69 OFFCURVE",
"144 86 OFFCURVE",
"144 104 CURVE SMOOTH",
"144 168 OFFCURVE",
"246 171 OFFCURVE",
"320 164 CURVE",
"336 163 LINE",
"340 217 LINE",
"120 211 LINE"
);
},
{
closed = 1;
nodes = (
"401 262 LINE",
"666 257 LINE",
"723 313 LINE",
"712 328 LINE",
"401 314 LINE"
);
},
{
closed = 1;
nodes = (
"701 94 LINE",
"656 74 OFFCURVE",
"615 61 OFFCURVE",
"569 61 CURVE SMOOTH",
"481 61 OFFCURVE",
"404 110 OFFCURVE",
"404 249 CURVE SMOOTH",
"404 329 OFFCURVE",
"430 393 OFFCURVE",
"494 427 CURVE",
"582 433 OFFCURVE",
"648 366 OFFCURVE",
"638 278 CURVE",
"723 313 LINE",
"725 414 OFFCURVE",
"648 488 OFFCURVE",
"544 488 CURVE SMOOTH",
"479 488 OFFCURVE",
"424 459 OFFCURVE",
"385 415 CURVE",
"353 229 LINE",
"315 226 LINE",
"315 101 OFFCURVE",
"396 -15 OFFCURVE",
"560 -15 CURVE",
"716 51 LINE"
);
}
);
width = 746;
}
);
leftKerningGroup = a;
leftMetricsKey = a;
rightKerningGroup = e;
rightMetricsKey = e;
unicode = 00E6;
},
{
color = 3;
glyphname = eth;
layers = (
{
layerId = "E4D94E08-F159-4C87-90C4-095EDBFC645B";
name = Regular;
paths = (
{
closed = 1;
nodes = (
"190 722 LINE",
"279 619 OFFCURVE",
"316 550 OFFCURVE",
"356 434 CURVE",
"378 417 LINE",
"340 458 OFFCURVE",
"307 483 OFFCURVE",
"246 483 CURVE SMOOTH",
"117 483 OFFCURVE",
"20 372 OFFCURVE",
"20 230 CURVE SMOOTH",
"20 89 OFFCURVE",
"116 -24 OFFCURVE",
"245 -24 CURVE SMOOTH",
"369 -24 OFFCURVE",
"465 82 OFFCURVE",
"465 261 CURVE SMOOTH",
"465 390 OFFCURVE",
"415 588 OFFCURVE",
"258 761 CURVE"
);
},
{
closed = 1;
nodes = (
"167 33 OFFCURVE",
"107 135 OFFCURVE",
"107 233 CURVE SMOOTH",
"107 307 OFFCURVE",
"141 387 OFFCURVE",
"194 419 CURVE",
"271 420 OFFCURVE",
"329 385 OFFCURVE",
"394 320 CURVE",
"350 414 LINE",
"394 271 OFFCURVE",
"380 119 OFFCURVE",
"299 48 CURVE"
);
},
{
closed = 1;
nodes = (
"449 681 LINE",
"418 737 LINE",
"143 589 LINE",
"155 563 LINE",
"196 545 LINE"
);
}
);
width = 491;
}
);
leftKerningGroup = o;
leftMetricsKey = d;
unicode = 00F0;
},
{
color = 3;
glyphname = divide;
layers = (
{
layerId = "E4D94E08-F159-4C87-90C4-095EDBFC645B";
name = Regular;
paths = (
{
closed = 1;
nodes = (
"60 264 LINE",
"60 198 LINE",
"542 198 LINE",
"542 264 LINE"
);
},
{
closed = 1;
nodes = (
"370 48 OFFCURVE",
"367 91 OFFCURVE",
"300 117 CURVE",
"300 117 OFFCURVE",
"245 94 OFFCURVE",
"239 38 CURVE",
"239 38 OFFCURVE",
"254 -10 OFFCURVE",
"312 -21 CURVE",
"361 0 OFFCURVE",
"370 48 OFFCURVE",
"370 48 CURVE"
);
},
{
closed = 1;
nodes = (
"371 412 OFFCURVE",
"368 455 OFFCURVE",
"301 481 CURVE",
"301 481 OFFCURVE",
"246 458 OFFCURVE",
"240 402 CURVE",
"240 402 OFFCURVE",
"255 354 OFFCURVE",
"313 343 CURVE",
"362 365 OFFCURVE",
"371 412 OFFCURVE",
"371 412 CURVE"
);
}
);
width = 602;
}
);
leftMetricsKey = minus;
rightMetricsKey = minus;
unicode = 00F7;
},
{
color = 3;
glyphname = oslash;
layers = (
{
anchors = (
{
name = top;
position = "{242, 468}";
}
);
layerId = "E4D94E08-F159-4C87-90C4-095EDBFC645B";
name = Regular;
paths = (
{
closed = 1;
nodes = (
"102 -71 LINE",
"446 491 LINE",
"394 521 LINE",
"51 -38 LINE"
);
},
{
closed = 1;
nodes = (
"20 79 OFFCURVE",
"122 -20 OFFCURVE",
"248 -20 CURVE SMOOTH",
"365 -20 OFFCURVE",
"466 64 OFFCURVE",
"466 230 CURVE SMOOTH",
"466 393 OFFCURVE",
"369 488 OFFCURVE",
"246 488 CURVE SMOOTH",
"125 488 OFFCURVE",
"20 396 OFFCURVE",
"20 236 CURVE SMOOTH"
);
},
{
closed = 1;
nodes = (
"289 47 OFFCURVE",
"273 45 OFFCURVE",
"259 45 CURVE SMOOTH",
"158 45 OFFCURVE",
"115 142 OFFCURVE",
"115 247 CURVE SMOOTH",
"115 302 OFFCURVE",
"127 362 OFFCURVE",
"162 404 CURVE",
"179 416 OFFCURVE",
"207 426 OFFCURVE",
"238 426 CURVE SMOOTH",
"334 426 OFFCURVE",
"372 328 OFFCURVE",
"372 219 CURVE SMOOTH",
"372 166 OFFCURVE",
"363 89 OFFCURVE",
"307 52 CURVE"
);
}
);
width = 491;
}
);
leftKerningGroup = o;
leftMetricsKey = o;
rightKerningGroup = o;
rightMetricsKey = o;
unicode = 00F8;
},
{
color = 3;
glyphname = thorn;
layers = (
{
layerId = "E4D94E08-F159-4C87-90C4-095EDBFC645B";
name = Regular;
paths = (
{
closed = 1;
nodes = (
"-8 657 LINE",
"85 664 LINE",
"129 710 LINE",
"116 735 LINE",
"74 734 OFFCURVE",
"20 722 OFFCURVE",
"-20 704 CURVE"
);
},
{
closed = 1;
nodes = (
"116 735 LINE",
"66 698 LINE",
"66 24 LINE",
"156 47 LINE",
"156 699 LINE"
);
},
{
closed = 1;
nodes = (
"67 -204 LINE",
"156 -204 LINE",
"156 449 LINE",
"117 484 LINE",
"67 447 LINE"
);
},
{
closed = 1;
nodes = (
"85 -204 LINE",
"99 -137 LINE",
"74 -144 OFFCURVE",
"25 -159 OFFCURVE",
"1 -171 CURVE",
"6 -204 LINE"
);
},
{
closed = 1;
nodes = (
"232 -204 LINE",
"238 -156 LINE",
"215 -146 OFFCURVE",
"174 -140 OFFCURVE",
"140 -137 CURVE",
"139 -204 LINE"
);
},
{
closed = 1;
nodes = (
"130 334 LINE",
"181 370 OFFCURVE",
"233 403 OFFCURVE",
"281 403 CURVE SMOOTH",
"355 403 OFFCURVE",
"404 320 OFFCURVE",
"404 230 CURVE SMOOTH",
"404 158 OFFCURVE",
"373 83 OFFCURVE",
"319 50 CURVE",
"216 34 OFFCURVE",
"146 84 OFFCURVE",
"131 113 CURVE",
"69 24 LINE",
"130 -4 OFFCURVE",
"186 -19 OFFCURVE",
"240 -19 CURVE SMOOTH",
"391 -19 OFFCURVE",
"498 96 OFFCURVE",
"498 250 CURVE SMOOTH",
"498 390 OFFCURVE",
"409 509 OFFCURVE",
"276 481 CURVE",
"121 383 LINE"
);
}
);
width = 523;
}
);
leftKerningGroup = b;
leftMetricsKey = b;
rightKerningGroup = o;
rightMetricsKey = p;
unicode = 00FE;
},
{
color = 3;
glyphname = Dcroat;
layers = (
{
components = (
{
name = D;
}
);
layerId = "E4D94E08-F159-4C87-90C4-095EDBFC645B";
name = Regular;
paths = (
{
closed = 1;
nodes = (
"368 329 LINE",
"362 358 LINE",
"60 358 LINE",
"17 315 LINE",
"23 286 LINE",
"325 286 LINE"
);
}
);
width = 673;
}
);
leftKerningGroup = I;
rightKerningGroup = O;
rightMetricsKey = D;
unicode = 0110;
},
{
color = 3;
glyphname = dcroat;
layers = (
{
components = (
{
name = d;
}
);
layerId = "E4D94E08-F159-4C87-90C4-095EDBFC645B";
name = Regular;
paths = (
{
closed = 1;
nodes = (
"545 573 LINE",
"539 602 LINE",
"266 602 LINE",
"223 577 LINE",
"229 548 LINE",
"502 548 LINE"
);
}
);
width = 545;
}
);
leftKerningGroup = o;
leftMetricsKey = d;
rightKerningGroup = l;
unicode = 0111;
},
{
color = 3;
glyphname = eogonek;
layers = (
{
components = (
{
name = e;
}
);
layerId = "E4D94E08-F159-4C87-90C4-095EDBFC645B";
name = Regular;
paths = (
{
closed = 1;
nodes = (
"377 61 LINE",
"256 18 OFFCURVE",
"182 -56 OFFCURVE",
"182 -124 CURVE SMOOTH",
"182 -177 OFFCURVE",
"225 -230 OFFCURVE",
"300 -226 CURVE",
"416 -172 LINE",
"399 -133 LINE",
"305 -184 OFFCURVE",
"255 -150 OFFCURVE",
"255 -101 CURVE SMOOTH",
"255 -52 OFFCURVE",
"304 -6 OFFCURVE",
"374 28 CURVE SMOOTH",
"421 51 LINE"
);
}
);
width = 470;
}
);
leftKerningGroup = o;
leftMetricsKey = e;
rightKerningGroup = e;
unicode = 0119;
},
{
color = 3;
glyphname = Imacron;
layers = (
{
components = (
{
name = I;
transform = "{1, 0, 0, 1, 13, 0}";
}
);
layerId = "E4D94E08-F159-4C87-90C4-095EDBFC645B";
name = Regular;
paths = (
{
closed = 1;
nodes = (
"112 784 OFFCURVE",
"69 779 OFFCURVE",
"30 759 CURVE",
"36 715 LINE",
"284 715 LINE",
"331 749 LINE",
"326 784 LINE",
"143 784 LINE"
);
}
);
width = 361;
}
);
leftKerningGroup = I;
leftMetricsKey = I;
rightKerningGroup = I;
rightMetricsKey = I;
unicode = 012A;
},
{
color = 3;
glyphname = imacron;
layers = (
{
components = (
{
name = dotlessi;
transform = "{1, 0, 0, 1, 26, 0}";
}
);
layerId = "E4D94E08-F159-4C87-90C4-095EDBFC645B";
name = Regular;
paths = (
{
closed = 1;
nodes = (
"97 651 OFFCURVE",
"54 646 OFFCURVE",
"15 626 CURVE",
"21 582 LINE",
"249 582 LINE",
"296 616 LINE",
"291 651 LINE",
"128 651 LINE"
);
}
);
width = 316;
}
);
leftKerningGroup = n;
leftMetricsKey = i;
rightKerningGroup = i;
rightMetricsKey = i;
unicode = 012B;
},
{
color = 3;
glyphname = dotlessi;
layers = (
{
anchors = (
{
name = ogonek;
position = "{257, 10}";
},
{
name = top;
position = "{129, 468}";
}
);
layerId = "E4D94E08-F159-4C87-90C4-095EDBFC645B";
name = Regular;
paths = (
{
closed = 1;
nodes = (
"120 413 LINE",
"164 459 LINE",
"151 484 LINE",
"109 483 OFFCURVE",
"55 471 OFFCURVE",
"15 453 CURVE",
"27 406 LINE"
);
},
{
closed = 1;
nodes = (
"102 0 LINE",
"191 0 LINE",
"191 449 LINE",
"151 484 LINE",
"102 447 LINE"
);
},
{
closed = 1;
nodes = (
"250 0 LINE",
"256 48 LINE",
"233 58 OFFCURVE",
"192 64 OFFCURVE",
"158 67 CURVE",
"157 0 LINE"
);
},
{
closed = 1;
nodes = (
"115 0 LINE",
"129 67 LINE",
"104 60 OFFCURVE",
"55 45 OFFCURVE",
"31 33 CURVE",
"36 0 LINE"
);
}
);
width = 276;
}
);
leftKerningGroup = n;
leftMetricsKey = i;
rightKerningGroup = i;
rightMetricsKey = i;
unicode = 0131;
},
{
color = 3;
glyphname = Lslash;
layers = (
{
components = (
{
name = L;
transform = "{1, 0, 0, 1, 16, 0}";
}
);
layerId = "E4D94E08-F159-4C87-90C4-095EDBFC645B";
name = Regular;
paths = (
{
closed = 1;
nodes = (
"30 258 LINE",
"63 199 LINE",
"374 380 LINE",
"385 433 LINE",
"367 456 LINE"
);
}
);
width = 564;
}
);
leftKerningGroup = I;
leftMetricsKey = L;
rightKerningGroup = L;
rightMetricsKey = L;
unicode = 0141;
},
{
color = 3;
glyphname = lslash;
layers = (
{
components = (
{
name = l;
transform = "{1, 0, 0, 1, 20, 0}";
}
);
layerId = "E4D94E08-F159-4C87-90C4-095EDBFC645B";
name = Regular;
paths = (
{
closed = 1;
nodes = (
"15 318 LINE",
"45 265 LINE",
"312 415 LINE",
"313 458 LINE",
"291 475 LINE"
);
}
);
width = 358;
}
);
leftKerningGroup = l;
leftMetricsKey = l;
rightKerningGroup = l;
unicode = 0142;
},
{
color = 3;
glyphname = OE;
layers = (
{
layerId = "E4D94E08-F159-4C87-90C4-095EDBFC645B";
name = Regular;
paths = (
{
closed = 1;
nodes = (
"481 85 LINE",
"452 59 OFFCURVE",
"407 59 OFFCURVE",
"363 59 CURVE SMOOTH",
"210 59 OFFCURVE",
"144 191 OFFCURVE",
"144 326 CURVE SMOOTH",
"144 426 OFFCURVE",
"181 528 OFFCURVE",
"245 575 CURVE",
"278 587 OFFCURVE",
"316 593 OFFCURVE",
"355 593 CURVE SMOOTH",
"431 593 OFFCURVE",
"506 570 OFFCURVE",
"534 522 CURVE",
"545 622 LINE",
"495 650 OFFCURVE",
"433 663 OFFCURVE",
"375 663 CURVE SMOOTH",
"227 663 OFFCURVE",
"42 572 OFFCURVE",
"42 334 CURVE SMOOTH",
"42 89 OFFCURVE",
"196 -11 OFFCURVE",
"350 -11 CURVE SMOOTH",
"415 -11 OFFCURVE",
"479 -2 OFFCURVE",
"531 39 CURVE"
);
},
{
closed = 1;
nodes = (
"554 0 LINE",
"554 650 LINE",
"461 650 LINE",
"461 0 LINE"
);
},
{
closed = 1;
nodes = (
"825 573 LINE",
"842 650 LINE",
"449 650 LINE",
"524 586 LINE"
);
},
{
closed = 1;
nodes = (
"524 64 LINE",
"445 0 LINE",
"842 0 LINE",
"825 77 LINE"
);
},
{
closed = 1;
nodes = (
"767 40 LINE",
"842 0 LINE",
"850 43 OFFCURVE",
"856 126 OFFCURVE",
"854 179 CURVE",
"801 183 LINE"
);
},
{
closed = 1;
nodes = (
"832 485 LINE",
"843 546 OFFCURVE",
"845 617 OFFCURVE",
"842 650 CURVE",
"762 605 LINE",
"778 485 LINE"
);
},
{
closed = 1;
nodes = (
"535 353 LINE",
"535 294 LINE",
"775 284 LINE",
"775 371 LINE"
);
}
);
width = 903;
}
);
leftKerningGroup = O;
leftMetricsKey = O;
rightKerningGroup = E;
rightMetricsKey = E;
unicode = 0152;
},
{
color = 3;
glyphname = oe;
layers = (
{
anchors = (
{
name = bottom;
position = "{598, 0}";
},
{
name = ogonek;
position = "{777, 51}";
},
{
name = top;
position = "{598, 468}";
}
);
layerId = "E4D94E08-F159-4C87-90C4-095EDBFC645B";
name = Regular;
paths = (
{
closed = 1;
nodes = (
"289 47 OFFCURVE",
"273 45 OFFCURVE",
"259 45 CURVE SMOOTH",
"158 45 OFFCURVE",
"115 142 OFFCURVE",
"115 247 CURVE SMOOTH",
"115 302 OFFCURVE",
"127 362 OFFCURVE",
"162 404 CURVE",
"179 416 OFFCURVE",
"207 426 OFFCURVE",
"238 426 CURVE SMOOTH",
"334 426 OFFCURVE",
"373 328 OFFCURVE",
"373 220 CURVE SMOOTH",
"373 166 OFFCURVE",
"363 89 OFFCURVE",
"307 52 CURVE"
);
},
{
closed = 1;
nodes = (
"433 376 LINE",
"394 448 OFFCURVE",
"325 488 OFFCURVE",
"246 488 CURVE SMOOTH",
"125 488 OFFCURVE",
"20 396 OFFCURVE",
"20 236 CURVE SMOOTH",
"20 79 OFFCURVE",
"122 -20 OFFCURVE",
"248 -20 CURVE SMOOTH",
"324 -20 OFFCURVE",
"393 16 OFFCURVE",
"433 86 CURVE"
);
},
{
closed = 1;
nodes = (
"392 119 LINE",
"428 47 OFFCURVE",
"491 -15 OFFCURVE",
"611 -15 CURVE",
"767 51 LINE",
"752 94 LINE",
"707 74 OFFCURVE",
"665 61 OFFCURVE",
"623 61 CURVE SMOOTH",
"532 61 OFFCURVE",
"457 119 OFFCURVE",
"457 241 CURVE SMOOTH",
"457 313 OFFCURVE",
"483 394 OFFCURVE",
"545 427 CURVE",
"633 433 OFFCURVE",
"699 366 OFFCURVE",
"689 278 CURVE",
"774 313 LINE",
"776 414 OFFCURVE",
"699 488 OFFCURVE",
"595 488 CURVE SMOOTH",
"502 488 OFFCURVE",
"429 428 OFFCURVE",
"392 348 CURVE"
);
},
{
closed = 1;
nodes = (
"452 262 LINE",
"717 257 LINE",
"774 313 LINE",
"763 328 LINE",
"452 314 LINE"
);
}
);
width = 797;
}
);
leftKerningGroup = o;
leftMetricsKey = o;
rightKerningGroup = e;
rightMetricsKey = e;
unicode = 0153;
},
{
color = 3;
glyphname = pi;
layers = (
{
layerId = "E4D94E08-F159-4C87-90C4-095EDBFC645B";
name = Regular;
paths = (
{
closed = 1;
nodes = (
"100 457 OFFCURVE",
"55 417 OFFCURVE",
"30 379 CURVE",
"58 348 LINE",
"137 404 LINE",
"568 391 LINE",
"607 420 LINE",
"603 468 LINE",
"135 468 LINE"
);
},
{
closed = 1;
nodes = (
"526 0 LINE",
"492 442 LINE",
"426 439 LINE",
"430 28 LINE",
"464 -4 LINE"
);
},
{
closed = 1;
nodes = (
"84 -7 OFFCURVE",
"114 -13 OFFCURVE",
"140 -13 CURVE SMOOTH",
"244 -13 OFFCURVE",
"266 86 OFFCURVE",
"272 229 CURVE SMOOTH",
"281 448 LINE",
"192 450 LINE",
"183 198 LINE SMOOTH",
"181 146 OFFCURVE",
"179 67 OFFCURVE",
"170 42 CURVE",
"140 55 OFFCURVE",
"110 69 OFFCURVE",
"80 86 CURVE",
"47 6 LINE"
);
}
);
width = 637;
}
);
unicode = 03C0;
},
{
color = 3;
glyphname = endash;
layers = (
{
layerId = "E4D94E08-F159-4C87-90C4-095EDBFC645B";
name = Regular;
paths = (
{
closed = 1;
nodes = (
"123 296 OFFCURVE",
"79 287 OFFCURVE",
"40 267 CURVE",
"47 219 LINE",
"463 219 LINE",
"511 267 LINE",
"507 296 LINE",
"153 296 LINE"
);
}
);
width = 551;
}
);
leftMetricsKey = hyphen;
rightMetricsKey = hyphen;
unicode = 2013;
},
{
color = 3;
glyphname = emdash;
layers = (
{
layerId = "E4D94E08-F159-4C87-90C4-095EDBFC645B";
name = Regular;
paths = (
{
closed = 1;
nodes = (
"123 296 OFFCURVE",
"79 287 OFFCURVE",
"40 267 CURVE",
"47 219 LINE",
"886 219 LINE",
"933 267 LINE",
"930 296 LINE",
"154 296 LINE"
);
}
);
width = 973;
}
);
leftMetricsKey = hyphen;
rightMetricsKey = hyphen;
unicode = 2014;
},
{
color = 3;
glyphname = quoteleft;
layers = (
{
layerId = "E4D94E08-F159-4C87-90C4-095EDBFC645B";
name = Regular;
paths = (
{
closed = 1;
nodes = (
"149 758 LINE",
"74 716 OFFCURVE",
"30 649 OFFCURVE",
"30 586 CURVE SMOOTH",
"30 548 OFFCURVE",
"47 514 OFFCURVE",
"101 492 CURVE",
"134 506 OFFCURVE",
"159 538 OFFCURVE",
"162 572 CURVE",
"110 612 LINE",
"113 649 OFFCURVE",
"140 693 OFFCURVE",
"178 720 CURVE"
);
}
);
width = 218;
}
);
unicode = 2018;
},
{
color = 3;
glyphname = quoteright;
layers = (
{
layerId = "E4D94E08-F159-4C87-90C4-095EDBFC645B";
name = Regular;
paths = (
{
closed = 1;
nodes = (
"69 492 LINE",
"143 533 OFFCURVE",
"189 599 OFFCURVE",
"189 661 CURVE SMOOTH",
"189 698 OFFCURVE",
"171 736 OFFCURVE",
"117 758 CURVE",
"84 744 OFFCURVE",
"59 712 OFFCURVE",
"56 678 CURVE",
"108 638 LINE",
"105 601 OFFCURVE",
"78 557 OFFCURVE",
"40 530 CURVE"
);
}
);
width = 219;
}
);
unicode = 2019;
},
{
color = 3;
glyphname = dagger;
layers = (
{
layerId = "E4D94E08-F159-4C87-90C4-095EDBFC645B";
name = Regular;
paths = (
{
closed = 1;
nodes = (
"207 657 LINE",
"223 -180 LINE",
"284 -180 LINE",
"303 685 LINE",
"241 689 LINE"
);
},
{
closed = 1;
nodes = (
"481 439 LINE",
"475 468 LINE",
"93 468 LINE",
"50 425 LINE",
"56 396 LINE",
"438 396 LINE"
);
}
);
width = 531;
}
);
unicode = 2020;
},
{
color = 3;
glyphname = daggerdbl;
layers = (
{
layerId = "E4D94E08-F159-4C87-90C4-095EDBFC645B";
name = Regular;
paths = (
{
closed = 1;
nodes = (
"216 657 LINE",
"232 -180 LINE",
"293 -180 LINE",
"312 685 LINE",
"250 689 LINE"
);
},
{
closed = 1;
nodes = (
"490 439 LINE",
"484 468 LINE",
"102 468 LINE",
"59 425 LINE",
"65 396 LINE",
"447 396 LINE"
);
},
{
closed = 1;
nodes = (
"481 162 LINE",
"475 191 LINE",
"93 191 LINE",
"50 148 LINE",
"56 119 LINE",
"438 119 LINE"
);
}
);
width = 540;
}
);
leftMetricsKey = dagger;
rightMetricsKey = dagger;
unicode = 2021;
},
{
color = 3;
glyphname = bullet;
layers = (
{
layerId = "E4D94E08-F159-4C87-90C4-095EDBFC645B";
name = Regular;
paths = (
{
closed = 1;
nodes = (
"304 327 OFFCURVE",
"260 370 OFFCURVE",
"197 392 CURVE",
"137 363 OFFCURVE",
"98 313 OFFCURVE",
"85 245 CURVE",
"108 189 OFFCURVE",
"154 151 OFFCURVE",
"218 136 CURVE",
"277 164 OFFCURVE",
"314 207 OFFCURVE",
"326 264 CURVE"
);
}
);
width = 411;
}
);
unicode = 2022;
},
{
color = 3;
glyphname = ellipsis;
layers = (
{
layerId = "E4D94E08-F159-4C87-90C4-095EDBFC645B";
name = Regular;
paths = (
{
closed = 1;
nodes = (
"221 86 OFFCURVE",
"194 111 OFFCURVE",
"154 126 CURVE",
"118 108 OFFCURVE",
"96 81 OFFCURVE",
"90 43 CURVE",
"104 10 OFFCURVE",
"130 -11 OFFCURVE",
"166 -18 CURVE",
"196 -4 OFFCURVE",
"217 20 OFFCURVE",
"227 54 CURVE"
);
},
{
closed = 1;
nodes = (
"521 86 OFFCURVE",
"494 111 OFFCURVE",
"454 126 CURVE",
"418 108 OFFCURVE",
"396 81 OFFCURVE",
"390 43 CURVE",
"404 10 OFFCURVE",
"430 -11 OFFCURVE",
"466 -18 CURVE",
"496 -4 OFFCURVE",
"517 20 OFFCURVE",
"527 54 CURVE"
);
},
{
closed = 1;
nodes = (
"821 86 OFFCURVE",
"794 111 OFFCURVE",
"754 126 CURVE",
"718 108 OFFCURVE",
"696 81 OFFCURVE",
"690 43 CURVE",
"704 10 OFFCURVE",
"730 -11 OFFCURVE",
"766 -18 CURVE",
"796 -4 OFFCURVE",
"817 20 OFFCURVE",
"827 54 CURVE"
);
}
);
width = 927;
}
);
leftMetricsKey = period;
rightMetricsKey = period;
unicode = 2026;
},
{
color = 3;
glyphname = perthousand;
layers = (
{
layerId = "E4D94E08-F159-4C87-90C4-095EDBFC645B";
name = Regular;
paths = (
{
closed = 1;
nodes = (
"220 -38 LINE",
"629 538 LINE",
"576 574 LINE",
"168 0 LINE"
);
},
{
closed = 1;
nodes = (
"231 344 OFFCURVE",
"223 343 OFFCURVE",
"215 343 CURVE SMOOTH",
"158 343 OFFCURVE",
"129 393 OFFCURVE",
"129 443 CURVE SMOOTH",
"129 472 OFFCURVE",
"138 500 OFFCURVE",
"157 519 CURVE",
"169 523 OFFCURVE",
"180 525 OFFCURVE",
"190 525 CURVE SMOOTH",
"243 525 OFFCURVE",
"273 474 OFFCURVE",
"273 424 CURVE SMOOTH",
"273 394 OFFCURVE",
"263 365 OFFCURVE",
"240 346 CURVE"
);
},
{
closed = 1;
nodes = (
"60 350 OFFCURVE",
"127 284 OFFCURVE",
"204 284 CURVE SMOOTH",
"285 284 OFFCURVE",
"343 349 OFFCURVE",
"343 435 CURVE SMOOTH",
"343 514 OFFCURVE",
"280 587 OFFCURVE",
"200 587 CURVE SMOOTH",
"122 587 OFFCURVE",
"60 514 OFFCURVE",
"60 435 CURVE SMOOTH"
);
},
{
closed = 1;
nodes = (
"651 33 OFFCURVE",
"643 32 OFFCURVE",
"635 32 CURVE SMOOTH",
"578 32 OFFCURVE",
"549 82 OFFCURVE",
"549 132 CURVE SMOOTH",
"549 161 OFFCURVE",
"558 189 OFFCURVE",
"577 208 CURVE",
"589 212 OFFCURVE",
"600 214 OFFCURVE",
"610 214 CURVE SMOOTH",
"663 214 OFFCURVE",
"693 163 OFFCURVE",
"693 113 CURVE SMOOTH",
"693 83 OFFCURVE",
"683 54 OFFCURVE",
"660 35 CURVE"
);
},
{
closed = 1;
nodes = (
"480 39 OFFCURVE",
"547 -27 OFFCURVE",
"624 -27 CURVE SMOOTH",
"705 -27 OFFCURVE",
"763 38 OFFCURVE",
"763 124 CURVE SMOOTH",
"763 203 OFFCURVE",
"700 276 OFFCURVE",
"620 276 CURVE SMOOTH",
"542 276 OFFCURVE",
"480 203 OFFCURVE",
"480 124 CURVE SMOOTH"
);
},
{
closed = 1;
nodes = (
"1006 33 OFFCURVE",
"998 32 OFFCURVE",
"990 32 CURVE SMOOTH",
"933 32 OFFCURVE",
"904 82 OFFCURVE",
"904 132 CURVE SMOOTH",
"904 161 OFFCURVE",
"913 189 OFFCURVE",
"932 208 CURVE",
"944 212 OFFCURVE",
"955 214 OFFCURVE",
"965 214 CURVE SMOOTH",
"1018 214 OFFCURVE",
"1048 163 OFFCURVE",
"1048 113 CURVE SMOOTH",
"1048 83 OFFCURVE",
"1038 54 OFFCURVE",
"1015 35 CURVE"
);
},
{
closed = 1;
nodes = (
"835 39 OFFCURVE",
"902 -27 OFFCURVE",
"979 -27 CURVE SMOOTH",
"1060 -27 OFFCURVE",
"1118 38 OFFCURVE",
"1118 124 CURVE SMOOTH",
"1118 203 OFFCURVE",
"1055 276 OFFCURVE",
"975 276 CURVE SMOOTH",
"897 276 OFFCURVE",
"835 203 OFFCURVE",
"835 124 CURVE SMOOTH"
);
}
);
width = 1178;
}
);
leftMetricsKey = percent;
rightMetricsKey = percent;
unicode = 2030;
},
{
color = 3;
glyphname = guilsinglleft;
layers = (
{
layerId = "E4D94E08-F159-4C87-90C4-095EDBFC645B";
name = Regular;
paths = (
{
closed = 1;
nodes = (
"60 233 LINE",
"200 46 LINE",
"255 81 LINE",
"149 253 LINE",
"250 433 LINE",
"194 463 LINE",
"60 273 LINE"
);
}
);
width = 315;
}
);
unicode = 2039;
},
{
color = 3;
glyphname = guilsinglright;
layers = (
{
layerId = "E4D94E08-F159-4C87-90C4-095EDBFC645B";
name = Regular;
paths = (
{
closed = 1;
nodes = (
"121 463 LINE",
"65 433 LINE",
"166 253 LINE",
"60 81 LINE",
"115 46 LINE",
"255 233 LINE",
"255 273 LINE"
);
}
);
width = 315;
}
);
leftMetricsKey = "=|";
rightMetricsKey = "=|guilsinglleft";
unicode = 203A;
},
{
color = 3;
glyphname = fraction;
layers = (
{
layerId = "E4D94E08-F159-4C87-90C4-095EDBFC645B";
name = Regular;
paths = (
{
closed = 1;
nodes = (
"-182 20 LINE",
"390 619 LINE",
"346 664 LINE",
"-228 64 LINE"
);
}
);
width = 122;
}
);
unicode = 2044;
},
{
color = 3;
glyphname = euro;
layers = (
{
anchors = (
{
name = bottom;
position = "{400, 0}";
},
{
name = top;
position = "{400, 650}";
}
);
layerId = "E4D94E08-F159-4C87-90C4-095EDBFC645B";
name = Regular;
paths = (
{
closed = 1;
nodes = (
"554 105 LINE",
"409 63 LINE",
"241 72 OFFCURVE",
"186 183 OFFCURVE",
"186 317 CURVE SMOOTH",
"186 445 OFFCURVE",
"237 562 OFFCURVE",
"322 612 CURVE",
"399 621 OFFCURVE",
"478 588 OFFCURVE",
"551 527 CURVE",
"572 609 LINE",
"524 648 OFFCURVE",
"464 670 OFFCURVE",
"390 670 CURVE SMOOTH",
"175 670 OFFCURVE",
"84 483 OFFCURVE",
"84 312 CURVE SMOOTH",
"84 130 OFFCURVE",
"188 -12 OFFCURVE",
"387 -20 CURVE",
"572 57 LINE"
);
},
{
closed = 1;
nodes = (
"553 468 LINE",
"561 499 OFFCURVE",
"570 558 OFFCURVE",
"572 609 CURVE",
"492 574 LINE",
"498 468 LINE"
);
},
{
closed = 1;
nodes = (
"526 392 LINE",
"520 411 LINE",
"29 411 LINE",
"-5 375 LINE",
"1 356 LINE",
"493 356 LINE"
);
},
{
closed = 1;
nodes = (
"486 245 LINE",
"480 264 LINE",
"1 264 LINE",
"-32 228 LINE",
"-26 209 LINE",
"452 209 LINE"
);
}
);
width = 597;
}
);
rightMetricsKey = C;
unicode = 20AC;
},
{
color = 3;
glyphname = ruble;
layers = (
{
layerId = "E4D94E08-F159-4C87-90C4-095EDBFC645B";
name = Regular;
paths = (
{
closed = 1;
nodes = (
"45 650 LINE",
"192 593 LINE",
"381 602 LINE",
"433 577 OFFCURVE",
"459 516 OFFCURVE",
"459 454 CURVE SMOOTH",
"459 378 OFFCURVE",
"417 303 OFFCURVE",
"310 303 CURVE SMOOTH",
"178 303 LINE",
"175 245 LINE",
"333 245 LINE SMOOTH",
"485 245 OFFCURVE",
"561 349 OFFCURVE",
"561 451 CURVE SMOOTH",
"561 554 OFFCURVE",
"483 658 OFFCURVE",
"324 658 CURVE SMOOTH"
);
},
{
closed = 1;
nodes = (
"96 57 OFFCURVE",
"60 46 OFFCURVE",
"30 32 CURVE",
"36 0 LINE",
"130 0 LINE",
"129 67 LINE"
);
},
{
closed = 1;
nodes = (
"184 0 LINE",
"324 0 LINE",
"325 47 LINE",
"187 63 LINE"
);
},
{
closed = 1;
nodes = (
"115 650 LINE",
"115 0 LINE",
"208 0 LINE",
"208 650 LINE"
);
},
{
closed = 1;
nodes = (
"45 650 LINE",
"44 602 LINE",
"140 596 LINE",
"138 650 LINE"
);
},
{
closed = 1;
nodes = (
"361 159 LINE",
"357 188 LINE",
"73 188 LINE",
"30 163 LINE",
"36 134 LINE",
"320 134 LINE"
);
},
{
closed = 1;
nodes = (
"363 270 LINE",
"357 303 LINE",
"73 303 LINE",
"30 274 LINE",
"36 245 LINE",
"320 245 LINE"
);
}
);
width = 603;
}
);
leftKerningGroup = I;
leftMetricsKey = P;
rightMetricsKey = P;
unicode = 20BD;
},
{
color = 3;
glyphname = trademark;
layers = (
{
anchors = (
{
name = bottom;
position = "{337, 0}";
},
{
name = center;
position = "{146, 143}";
},
{
name = top;
position = "{337, 286}";
}
);
layerId = "E4D94E08-F159-4C87-90C4-095EDBFC645B";
name = Regular;
paths = (
{
closed = 1;
nodes = (
"113 735 LINE",
"113 449 LINE",
"180 449 LINE",
"180 735 LINE"
);
},
{
closed = 1;
nodes = (
"102 478 OFFCURVE",
"83 471 OFFCURVE",
"70 463 CURVE",
"73 449 LINE",
"118 449 LINE",
"118 484 LINE"
);
},
{
closed = 1;
nodes = (
"164 449 LINE",
"225 449 LINE",
"226 471 LINE",
"165 480 LINE"
);
},
{
closed = 1;
nodes = (
"173 735 OFFCURVE",
"121 735 OFFCURVE",
"10 738 CURVE",
"17 695 LINE",
"146 703 LINE",
"275 695 LINE",
"282 738 LINE"
);
},
{
closed = 1;
nodes = (
"275 636 LINE",
"281 660 OFFCURVE",
"284 720 OFFCURVE",
"282 738 CURVE",
"223 725 LINE",
"238 636 LINE SMOOTH"
);
},
{
closed = 1;
nodes = (
"68 725 LINE",
"10 738 LINE",
"8 720 OFFCURVE",
"11 660 OFFCURVE",
"17 636 CURVE",
"54 636 LINE"
);
},
{
closed = 1;
nodes = (
"309 735 LINE",
"309 713 LINE",
"369 704 LINE",
"371 735 LINE"
);
},
{
closed = 1;
nodes = (
"345 735 LINE",
"338 449 LINE",
"387 449 LINE",
"389 599 LINE",
"380 695 LINE",
"425 735 LINE"
);
},
{
closed = 1;
nodes = (
"328 478 OFFCURVE",
"312 471 OFFCURVE",
"300 463 CURVE",
"302 449 LINE",
"344 449 LINE",
"343 484 LINE"
);
},
{
closed = 1;
nodes = (
"362 449 LINE",
"424 449 LINE",
"424 471 LINE SMOOTH",
"364 480 LINE"
);
},
{
closed = 1;
nodes = (
"367 715 LINE",
"464 446 LINE",
"515 456 LINE",
"511 495 LINE",
"425 735 LINE"
);
},
{
closed = 1;
nodes = (
"483 465 LINE",
"515 456 LINE",
"612 719 LINE",
"582 735 LINE"
);
},
{
closed = 1;
nodes = (
"582 735 LINE",
"598 698 LINE",
"591 599 LINE",
"593 449 LINE",
"656 449 LINE",
"651 735 LINE"
);
},
{
closed = 1;
nodes = (
"644 735 LINE",
"644 700 LINE",
"660 706 OFFCURVE",
"675 713 OFFCURVE",
"688 721 CURVE",
"685 735 LINE"
);
},
{
closed = 1;
nodes = (
"582 478 OFFCURVE",
"566 471 OFFCURVE",
"554 463 CURVE",
"556 449 LINE",
"598 449 LINE",
"597 484 LINE"
);
},
{
closed = 1;
nodes = (
"635 449 LINE",
"697 449 LINE",
"697 471 LINE",
"636 480 LINE"
);
}
);
width = 727;
}
);
leftMetricsKey = T;
rightMetricsKey = M;
unicode = 2122;
},
{
color = 3;
glyphname = Ohm;
layers = (
{
layerId = "E4D94E08-F159-4C87-90C4-095EDBFC645B";
name = Regular;
paths = (
{
closed = 1;
nodes = (
"439 16 LINE",
"590 79 OFFCURVE",
"666 217 OFFCURVE",
"666 357 CURVE SMOOTH",
"666 516 OFFCURVE",
"556 670 OFFCURVE",
"357 670 CURVE SMOOTH",
"150 670 OFFCURVE",
"42 503 OFFCURVE",
"42 348 CURVE SMOOTH",
"42 205 OFFCURVE",
"125 82 OFFCURVE",
"290 18 CURVE",
"327 67 LINE",
"204 117 OFFCURVE",
"143 245 OFFCURVE",
"143 364 CURVE SMOOTH",
"143 492 OFFCURVE",
"214 611 OFFCURVE",
"351 611 CURVE SMOOTH",
"498 611 OFFCURVE",
"573 486 OFFCURVE",
"573 353 CURVE SMOOTH",
"573 238 OFFCURVE",
"518 117 OFFCURVE",
"405 63 CURVE"
);
},
{
closed = 1;
nodes = (
"224 61 OFFCURVE",
"132 52 OFFCURVE",
"68 32 CURVE",
"74 0 LINE",
"327 0 LINE",
"327 67 LINE"
);
},
{
closed = 1;
nodes = (
"405 0 LINE",
"646 0 LINE",
"647 47 LINE",
"405 63 LINE"
);
}
);
width = 704;
}
);
leftMetricsKey = O;
rightMetricsKey = O;
unicode = 2126;
},
{
color = 3;
glyphname = partialdiff;
layers = (
{
layerId = "E4D94E08-F159-4C87-90C4-095EDBFC645B";
name = Regular;
paths = (
{
closed = 1;
nodes = (
"479 422 LINE",
"341 469 LINE",
"210 469 OFFCURVE",
"93 353 OFFCURVE",
"93 197 CURVE SMOOTH",
"93 70 OFFCURVE",
"170 -34 OFFCURVE",
"302 -34 CURVE SMOOTH",
"465 -34 OFFCURVE",
"544 123 OFFCURVE",
"544 294 CURVE SMOOTH",
"544 503 OFFCURVE",
"427 699 OFFCURVE",
"213 761 CURVE",
"196 708 LINE",
"361 657 OFFCURVE",
"459 471 OFFCURVE",
"459 297 CURVE SMOOTH",
"459 172 OFFCURVE",
"409 57 OFFCURVE",
"310 30 CURVE",
"227 33 OFFCURVE",
"180 100 OFFCURVE",
"180 187 CURVE SMOOTH",
"180 313 OFFCURVE",
"279 447 OFFCURVE",
"477 384 CURVE"
);
}
);
width = 600;
}
);
unicode = 2202;
},
{
color = 3;
glyphname = increment;
layers = (
{
layerId = "E4D94E08-F159-4C87-90C4-095EDBFC645B";
name = Regular;
paths = (
{
closed = 1;
nodes = (
"40 29 LINE",
"46 0 LINE",
"593 0 LINE",
"632 19 LINE",
"628 54 LINE",
"113 54 LINE"
);
},
{
closed = 1;
nodes = (
"40 29 LINE",
"103 0 LINE",
"348 622 LINE",
"294 647 LINE"
);
},
{
closed = 1;
nodes = (
"294 647 LINE",
"549 0 LINE",
"628 54 LINE",
"373 674 LINE"
);
}
);
width = 672;
}
);
unicode = 2206;
},
{
color = 3;
glyphname = product;
layers = (
{
layerId = "E4D94E08-F159-4C87-90C4-095EDBFC645B";
name = Regular;
paths = (
{
closed = 1;
nodes = (
"92 735 OFFCURVE",
"62 721 OFFCURVE",
"30 700 CURVE",
"36 671 LINE",
"711 671 LINE",
"750 700 LINE",
"746 735 LINE",
"123 735 LINE"
);
},
{
closed = 1;
nodes = (
"157 680 LINE",
"157 -100 LINE",
"250 -100 LINE",
"250 680 LINE"
);
},
{
closed = 1;
nodes = (
"535 680 LINE",
"535 -100 LINE",
"628 -100 LINE",
"628 680 LINE"
);
},
{
closed = 1;
nodes = (
"138 -43 OFFCURVE",
"102 -54 OFFCURVE",
"72 -68 CURVE",
"78 -100 LINE",
"172 -100 LINE",
"171 -33 LINE"
);
},
{
closed = 1;
nodes = (
"206 -100 LINE",
"346 -100 LINE",
"347 -53 LINE",
"209 -37 LINE"
);
},
{
closed = 1;
nodes = (
"516 -43 OFFCURVE",
"480 -54 OFFCURVE",
"450 -68 CURVE",
"456 -100 LINE",
"550 -100 LINE",
"549 -33 LINE"
);
},
{
closed = 1;
nodes = (
"584 -100 LINE",
"724 -100 LINE",
"725 -53 LINE",
"587 -37 LINE"
);
}
);
width = 780;
}
);
leftMetricsKey = H;
rightMetricsKey = H;
unicode = 220F;
},
{
color = 3;
glyphname = summation;
layers = (
{
layerId = "E4D94E08-F159-4C87-90C4-095EDBFC645B";
name = Regular;
paths = (
{
closed = 1;
nodes = (
"528 735 LINE",
"31 735 LINE",
"30 687 LINE",
"170 671 LINE",
"511 658 LINE"
);
},
{
closed = 1;
nodes = (
"518 580 LINE",
"529 641 OFFCURVE",
"531 702 OFFCURVE",
"528 735 CURVE",
"448 690 LINE",
"464 582 LINE"
);
},
{
closed = 1;
nodes = (
"30 687 LINE",
"235 265 LINE",
"314 304 LINE",
"114 718 LINE"
);
},
{
closed = 1;
nodes = (
"30 -52 LINE",
"95 -72 LINE",
"314 304 LINE",
"252 327 LINE"
);
},
{
closed = 1;
nodes = (
"170 -36 LINE",
"30 -52 LINE",
"31 -100 LINE",
"548 -100 LINE",
"531 -23 LINE"
);
},
{
closed = 1;
nodes = (
"468 -55 LINE",
"548 -100 LINE",
"551 -67 OFFCURVE",
"549 -6 OFFCURVE",
"538 55 CURVE",
"484 53 LINE"
);
}
);
width = 579;
}
);
unicode = 2211;
},
{
color = 3;
glyphname = minus;
layers = (
{
layerId = "E4D94E08-F159-4C87-90C4-095EDBFC645B";
name = Regular;
paths = (
{
closed = 1;
nodes = (
"60 264 LINE",
"60 199 LINE",
"542 199 LINE",
"542 264 LINE"
);
}
);
width = 602;
}
);
unicode = 2212;
},
{
color = 3;
glyphname = bulletoperator;
layers = (
{
layerId = "E4D94E08-F159-4C87-90C4-095EDBFC645B";
name = Regular;
paths = (
{
closed = 1;
nodes = (
"118 192 OFFCURVE",
"140 220 OFFCURVE",
"149 244 CURVE",
"136 261 OFFCURVE",
"108 287 OFFCURVE",
"84 296 CURVE",
"64 284 OFFCURVE",
"43 256 OFFCURVE",
"30 230 CURVE",
"44 210 OFFCURVE",
"76 186 OFFCURVE",
"97 178 CURVE"
);
}
);
width = 199;
}
);
unicode = 2219;
},
{
color = 3;
glyphname = radical;
layers = (
{
layerId = "E4D94E08-F159-4C87-90C4-095EDBFC645B";
name = Regular;
paths = (
{
closed = 1;
nodes = (
"212 468 LINE",
"371 -33 LINE",
"329 -32 LINE",
"524 751 LINE",
"595 722 LINE",
"397 -60 LINE",
"365 -74 OFFCURVE",
"344 -79 OFFCURVE",
"308 -77 CURVE",
"137 431 LINE",
"193 402 LINE",
"59 315 LINE",
"20 360 LINE",
"150 468 LINE"
);
}
);
width = 684;
}
);
unicode = 221A;
},
{
color = 3;
glyphname = infinity;
layers = (
{
layerId = "E4D94E08-F159-4C87-90C4-095EDBFC645B";
name = Regular;
paths = (
{
closed = 1;
nodes = (
"114 509 OFFCURVE",
"31 440 OFFCURVE",
"31 339 CURVE SMOOTH",
"31 232 OFFCURVE",
"123 172 OFFCURVE",
"200 172 CURVE SMOOTH",
"265 172 OFFCURVE",
"332 213 OFFCURVE",
"380 309 CURVE",
"342 338 LINE",
"311 286 OFFCURVE",
"272 253 OFFCURVE",
"213 253 CURVE SMOOTH",
"148 253 OFFCURVE",
"110 294 OFFCURVE",
"110 345 CURVE SMOOTH",
"110 373 OFFCURVE",
"122 402 OFFCURVE",
"142 424 CURVE",
"217 460 OFFCURVE",
"285 408 OFFCURVE",
"350 307 CURVE",
"396 244 OFFCURVE",
"448 168 OFFCURVE",
"549 168 CURVE SMOOTH",
"637 168 OFFCURVE",
"716 227 OFFCURVE",
"716 331 CURVE SMOOTH",
"716 434 OFFCURVE",
"639 508 OFFCURVE",
"555 508 CURVE SMOOTH",
"493 508 OFFCURVE",
"419 466 OFFCURVE",
"371 380 CURVE",
"409 341 LINE",
"446 395 OFFCURVE",
"492 432 OFFCURVE",
"539 432 CURVE SMOOTH",
"597 432 OFFCURVE",
"629 377 OFFCURVE",
"629 325 CURVE SMOOTH",
"629 293 OFFCURVE",
"616 262 OFFCURVE",
"595 242 CURVE",
"516 220 OFFCURVE",
"481 264 OFFCURVE",
"394 378 CURVE SMOOTH",
"345 442 OFFCURVE",
"290 509 OFFCURVE",
"202 509 CURVE SMOOTH"
);
}
);
width = 737;
}
);
unicode = 221E;
},
{
color = 3;
glyphname = integral;
layers = (
{
layerId = "E4D94E08-F159-4C87-90C4-095EDBFC645B";
name = Regular;
paths = (
{
closed = 1;
nodes = (
"237 -104 OFFCURVE",
"158 -174 OFFCURVE",
"75 -176 CURVE SMOOTH",
"33 -178 OFFCURVE",
"-10 -162 OFFCURVE",
"-44 -127 CURVE",
"12 -47 LINE",
"12 -47 OFFCURVE",
"86 -113 OFFCURVE",
"163 -88 CURVE",
"48 562 LINE",
"48 680 OFFCURVE",
"125 748 OFFCURVE",
"207 751 CURVE SMOOTH",
"249 752 OFFCURVE",
"292 736 OFFCURVE",
"326 701 CURVE",
"270 621 LINE",
"270 621 OFFCURVE",
"199 687 OFFCURVE",
"122 662 CURVE",
"237 12 LINE"
);
}
);
width = 282;
}
);
unicode = 222B;
},
{
color = 3;
glyphname = notequal;
layers = (
{
components = (
{
name = equal;
}
);
layerId = "E4D94E08-F159-4C87-90C4-095EDBFC645B";
name = Regular;
paths = (
{
closed = 1;
nodes = (
"170 -28 LINE",
"477 468 LINE",
"427 496 LINE",
"120 1 LINE"
);
}
);
width = 592;
}
);
leftMetricsKey = minus;
rightMetricsKey = minus;
unicode = 2260;
},
{
color = 3;
glyphname = lessequal;
layers = (
{
layerId = "E4D94E08-F159-4C87-90C4-095EDBFC645B";
name = Regular;
paths = (
{
closed = 1;
nodes = (
"94 385 LINE",
"102 315 LINE",
"471 127 LINE",
"504 185 LINE",
"179 348 LINE",
"178 354 LINE",
"507 539 LINE",
"472 593 LINE"
);
},
{
closed = 1;
nodes = (
"60 65 LINE",
"60 0 LINE",
"542 0 LINE",
"542 65 LINE"
);
}
);
width = 602;
}
);
leftMetricsKey = minus;
rightMetricsKey = minus;
unicode = 2264;
},
{
color = 3;
glyphname = greaterequal;
layers = (
{
layerId = "E4D94E08-F159-4C87-90C4-095EDBFC645B";
name = Regular;
paths = (
{
closed = 1;
nodes = (
"95 539 LINE",
"424 354 LINE",
"423 348 LINE",
"98 185 LINE",
"131 127 LINE",
"500 315 LINE",
"508 385 LINE",
"130 593 LINE"
);
},
{
closed = 1;
nodes = (
"60 0 LINE",
"542 0 LINE",
"542 65 LINE",
"60 65 LINE"
);
}
);
width = 602;
}
);
leftMetricsKey = minus;
rightMetricsKey = minus;
unicode = 2265;
},
{
color = 3;
glyphname = lozenge;
layers = (
{
layerId = "E4D94E08-F159-4C87-90C4-095EDBFC645B";
name = Regular;
paths = (
{
closed = 1;
nodes = (
"108 413 LINE",
"50 368 LINE",
"258 -8 LINE",
"328 0 LINE",
"516 367 LINE",
"454 410 LINE",
"295 87 LINE",
"289 86 LINE"
);
},
{
closed = 1;
nodes = (
"458 322 LINE",
"516 367 LINE",
"308 743 LINE",
"238 735 LINE",
"50 368 LINE",
"112 325 LINE",
"271 648 LINE",
"277 649 LINE"
);
}
);
width = 566;
}
);
unicode = 25CA;
},
{
color = 3;
glyphname = f_b.liga;
layers = (
{
components = (
{
name = b;
transform = "{1, 0, 0, 1, 344, 0}";
}
);
layerId = "E4D94E08-F159-4C87-90C4-095EDBFC645B";
name = Regular;
paths = (
{
closed = 1;
nodes = (
"460 735 LINE",
"269 735 LINE SMOOTH",
"177 735 OFFCURVE",
"83 674 OFFCURVE",
"83 546 CURVE SMOOTH",
"83 0 LINE",
"172 0 LINE",
"172 435 LINE",
"178 458 LINE",
"154 657 LINE",
"445 657 LINE"
);
},
{
closed = 1;
nodes = (
"107 394 LINE",
"150 444 LINE",
"128 468 LINE",
"93 465 OFFCURVE",
"55 458 OFFCURVE",
"15 440 CURVE",
"21 391 LINE SMOOTH"
);
},
{
closed = 1;
nodes = (
"128 391 LINE",
"238 391 LINE",
"285 440 LINE",
"282 468 LINE",
"128 468 LINE"
);
},
{
closed = 1;
nodes = (
"99 0 LINE",
"113 67 LINE",
"88 60 OFFCURVE",
"39 45 OFFCURVE",
"15 33 CURVE",
"20 0 LINE"
);
},
{
closed = 1;
nodes = (
"257 0 LINE",
"263 48 LINE",
"240 58 OFFCURVE",
"199 64 OFFCURVE",
"165 67 CURVE",
"164 0 LINE"
);
}
);
width = 864;
}
);
leftKerningGroup = f;
leftMetricsKey = f;
rightKerningGroup = o;
rightMetricsKey = b;
},
{
color = 3;
glyphname = f_h.liga;
layers = (
{
components = (
{
name = h;
transform = "{1, 0, 0, 1, 326, 0}";
}
);
layerId = "E4D94E08-F159-4C87-90C4-095EDBFC645B";
name = Regular;
paths = (
{
closed = 1;
nodes = (
"107 394 LINE",
"150 444 LINE",
"128 468 LINE",
"93 465 OFFCURVE",
"55 458 OFFCURVE",
"15 440 CURVE",
"21 391 LINE"
);
},
{
closed = 1;
nodes = (
"99 0 LINE",
"113 67 LINE",
"88 60 OFFCURVE",
"39 45 OFFCURVE",
"15 33 CURVE",
"20 0 LINE"
);
},
{
closed = 1;
nodes = (
"257 0 LINE",
"263 48 LINE",
"240 58 OFFCURVE",
"199 64 OFFCURVE",
"165 67 CURVE",
"164 0 LINE"
);
},
{
closed = 1;
nodes = (
"128 391 LINE",
"238 391 LINE",
"285 440 LINE",
"282 468 LINE",
"128 468 LINE"
);
},
{
closed = 1;
nodes = (
"477 735 LINE",
"269 735 LINE SMOOTH",
"177 735 OFFCURVE",
"83 674 OFFCURVE",
"83 546 CURVE SMOOTH",
"83 0 LINE",
"172 0 LINE",
"172 435 LINE",
"178 458 LINE",
"154 657 LINE",
"460 657 LINE"
);
}
);
width = 914;
}
);
leftKerningGroup = f;
leftMetricsKey = f;
rightKerningGroup = n;
rightMetricsKey = h;
},
{
color = 3;
glyphname = f_k.liga;
layers = (
{
components = (
{
name = k;
transform = "{1, 0, 0, 1, 323, 0}";
}
);
layerId = "E4D94E08-F159-4C87-90C4-095EDBFC645B";
name = Regular;
paths = (
{
closed = 1;
nodes = (
"107 394 LINE",
"150 444 LINE",
"128 468 LINE",
"93 465 OFFCURVE",
"55 458 OFFCURVE",
"15 440 CURVE",
"21 391 LINE"
);
},
{
closed = 1;
nodes = (
"128 468 LINE",
"128 391 LINE",
"238 391 LINE",
"285 440 LINE",
"282 468 LINE"
);
},
{
closed = 1;
nodes = (
"99 0 LINE",
"113 67 LINE",
"88 60 OFFCURVE",
"39 45 OFFCURVE",
"15 33 CURVE",
"20 0 LINE"
);
},
{
closed = 1;
nodes = (
"257 0 LINE",
"263 48 LINE",
"240 58 OFFCURVE",
"199 64 OFFCURVE",
"165 67 CURVE",
"164 0 LINE"
);
},
{
closed = 1;
nodes = (
"474 735 LINE",
"269 735 LINE SMOOTH",
"177 735 OFFCURVE",
"83 674 OFFCURVE",
"83 546 CURVE SMOOTH",
"83 0 LINE",
"172 0 LINE",
"172 435 LINE",
"178 458 LINE",
"154 657 LINE",
"460 657 LINE"
);
}
);
width = 887;
}
);
leftKerningGroup = f;
leftMetricsKey = f;
rightKerningGroup = k;
rightMetricsKey = k;
},
{
color = 3;
glyphname = f_l.liga;
layers = (
{
components = (
{
name = l;
transform = "{1, 0, 0, 1, 326, 0}";
}
);
layerId = "E4D94E08-F159-4C87-90C4-095EDBFC645B";
name = Regular;
paths = (
{
closed = 1;
nodes = (
"107 394 LINE",
"150 444 LINE",
"128 468 LINE",
"93 465 OFFCURVE",
"55 458 OFFCURVE",
"15 440 CURVE",
"21 391 LINE"
);
},
{
closed = 1;
nodes = (
"128 468 LINE",
"128 391 LINE",
"238 391 LINE",
"285 440 LINE",
"282 468 LINE"
);
},
{
closed = 1;
nodes = (
"99 0 LINE",
"113 67 LINE",
"88 60 OFFCURVE",
"39 45 OFFCURVE",
"15 33 CURVE",
"20 0 LINE"
);
},
{
closed = 1;
nodes = (
"257 0 LINE",
"263 48 LINE",
"240 58 OFFCURVE",
"199 64 OFFCURVE",
"165 67 CURVE",
"164 0 LINE"
);
},
{
closed = 1;
nodes = (
"477 735 LINE",
"269 735 LINE SMOOTH",
"177 735 OFFCURVE",
"83 674 OFFCURVE",
"83 546 CURVE SMOOTH",
"83 0 LINE",
"172 0 LINE",
"172 435 LINE",
"178 458 LINE",
"154 657 LINE",
"460 657 LINE"
);
}
);
width = 624;
}
);
leftKerningGroup = f;
leftMetricsKey = f;
rightKerningGroup = l;
rightMetricsKey = l;
},
{
color = 3;
glyphname = acutecomb;
layers = (
{
anchors = (
{
name = _top;
position = "{0, 468}";
}
);
layerId = "E4D94E08-F159-4C87-90C4-095EDBFC645B";
name = Regular;
paths = (
{
closed = 1;
nodes = (
"25 583 OFFCURVE",
"72 624 OFFCURVE",
"132 674 CURVE",
"59 734 LINE",
"-83 574 LINE",
"-31 531 LINE"
);
}
);
width = 0;
}
);
unicode = 0301;
},
{
color = 3;
glyphname = brevecomb;
layers = (
{
anchors = (
{
name = _top;
position = "{-1, 468}";
}
);
layerId = "E4D94E08-F159-4C87-90C4-095EDBFC645B";
name = Regular;
paths = (
{
closed = 1;
nodes = (
"71 712 LINE",
"70 655 OFFCURVE",
"44 619 OFFCURVE",
"0 619 CURVE SMOOTH",
"-36 619 OFFCURVE",
"-67 642 OFFCURVE",
"-78 715 CURVE",
"-144 703 LINE",
"-133 595 OFFCURVE",
"-63 551 OFFCURVE",
"6 551 CURVE SMOOTH",
"82 551 OFFCURVE",
"142 603 OFFCURVE",
"146 704 CURVE"
);
}
);
width = 0;
}
);
unicode = 0306;
},
{
color = 3;
glyphname = caroncomb;
layers = (
{
anchors = (
{
name = _top;
position = "{0, 468}";
}
);
layerId = "E4D94E08-F159-4C87-90C4-095EDBFC645B";
name = Regular;
paths = (
{
closed = 1;
nodes = (
"-178 685 LINE",
"-44 541 LINE",
"37 543 LINE",
"156 701 LINE",
"105 743 LINE",
"-1 607 LINE",
"-115 742 LINE"
);
}
);
width = 0;
}
);
unicode = 030C;
},
{
color = 3;
glyphname = acutecomb.case;
layers = (
{
anchors = (
{
name = _top;
position = "{1, 650}";
}
);
layerId = "E4D94E08-F159-4C87-90C4-095EDBFC645B";
name = Regular;
paths = (
{
closed = 1;
nodes = (
"-74 692 LINE",
"9 727 OFFCURVE",
"82 758 OFFCURVE",
"166 790 CURVE",
"116 874 LINE",
"-109 749 LINE"
);
}
);
width = 0;
}
);
},
{
color = 3;
glyphname = brevecomb.case;
layers = (
{
anchors = (
{
name = _top;
position = "{-1, 650}";
}
);
layerId = "E4D94E08-F159-4C87-90C4-095EDBFC645B";
name = Regular;
paths = (
{
closed = 1;
nodes = (
"70 851 LINE",
"66 797 OFFCURVE",
"36 770 OFFCURVE",
"-2 770 CURVE SMOOTH",
"-45 770 OFFCURVE",
"-69 804 OFFCURVE",
"-76 853 CURVE",
"-145 840 LINE",
"-130 752 OFFCURVE",
"-68 702 OFFCURVE",
"4 702 CURVE SMOOTH",
"78 702 OFFCURVE",
"139 753 OFFCURVE",
"145 843 CURVE"
);
}
);
width = 0;
}
);
},
{
color = 3;
glyphname = caroncomb.case;
layers = (
{
anchors = (
{
name = _top;
position = "{-1, 650}";
}
);
layerId = "E4D94E08-F159-4C87-90C4-095EDBFC645B";
name = Regular;
paths = (
{
closed = 1;
nodes = (
"-178 810 LINE",
"-42 703 LINE",
"39 705 LINE",
"173 825 LINE",
"133 877 LINE",
"1 769 LINE",
"-123 871 LINE"
);
}
);
width = 0;
}
);
},
{
color = 3;
glyphname = circumflexcomb.case;
layers = (
{
anchors = (
{
name = _top;
position = "{-1, 650}";
}
);
layerId = "E4D94E08-F159-4C87-90C4-095EDBFC645B";
name = Regular;
paths = (
{
closed = 1;
nodes = (
"-142 696 LINE",
"0 801 LINE",
"146 696 LINE",
"188 738 LINE",
"42 873 LINE",
"-47 873 LINE",
"-186 738 LINE"
);
}
);
width = 0;
}
);
},
{
color = 3;
glyphname = gravecomb.case;
layers = (
{
anchors = (
{
name = _top;
position = "{-2, 650}";
}
);
layerId = "E4D94E08-F159-4C87-90C4-095EDBFC645B";
name = Regular;
paths = (
{
closed = 1;
nodes = (
"-84 874 LINE",
"-134 790 LINE",
"-50 758 OFFCURVE",
"23 727 OFFCURVE",
"106 692 CURVE",
"141 749 LINE"
);
}
);
width = 0;
}
);
},
{
color = 3;
glyphname = hungarumlautcomb.case;
layers = (
{
anchors = (
{
name = _top;
position = "{-0, 468}";
}
);
layerId = "E4D94E08-F159-4C87-90C4-095EDBFC645B";
name = Regular;
paths = (
{
closed = 1;
nodes = (
"-89 531 LINE",
"-31 584 OFFCURVE",
"27 634 OFFCURVE",
"86 683 CURVE",
"4 733 LINE",
"-140 575 LINE"
);
},
{
closed = 1;
nodes = (
"91 531 LINE",
"149 584 OFFCURVE",
"207 634 OFFCURVE",
"266 683 CURVE",
"184 733 LINE",
"40 575 LINE"
);
}
);
width = 0;
}
);
},
{
color = 3;
glyphname = macroncomb.case;
layers = (
{
anchors = (
{
name = _top;
position = "{1, 650}";
}
);
layerId = "E4D94E08-F159-4C87-90C4-095EDBFC645B";
name = Regular;
paths = (
{
closed = 1;
nodes = (
"-103 811 OFFCURVE",
"-146 806 OFFCURVE",
"-185 786 CURVE",
"-179 742 LINE",
"159 742 LINE",
"206 776 LINE",
"201 811 LINE",
"-72 811 LINE"
);
}
);
width = 0;
}
);
},
{
color = 3;
glyphname = ogonekcomb.case;
layers = (
{
anchors = (
{
name = _ogonek;
position = "{-1, 10}";
}
);
layerId = "E4D94E08-F159-4C87-90C4-095EDBFC645B";
name = Regular;
paths = (
{
closed = 1;
nodes = (
"-38 26 LINE",
"-135 -18 OFFCURVE",
"-193 -83 OFFCURVE",
"-193 -143 CURVE SMOOTH",
"-193 -196 OFFCURVE",
"-150 -249 OFFCURVE",
"-75 -245 CURVE",
"41 -191 LINE",
"24 -152 LINE",
"-70 -203 OFFCURVE",
"-120 -169 OFFCURVE",
"-120 -120 CURVE SMOOTH",
"-120 -71 OFFCURVE",
"-71 -25 OFFCURVE",
"-1 9 CURVE SMOOTH"
);
}
);
width = 0;
}
);
},
{
color = 3;
glyphname = tildecomb.case;
layers = (
{
anchors = (
{
name = _top;
position = "{-1, 650}";
}
);
layerId = "E4D94E08-F159-4C87-90C4-095EDBFC645B";
name = Regular;
paths = (
{
closed = 1;
nodes = (
"-168 721 LINE",
"-133 760 OFFCURVE",
"-106 784 OFFCURVE",
"-87 784 CURVE SMOOTH",
"-52 784 OFFCURVE",
"70 703 OFFCURVE",
"112 703 CURVE SMOOTH",
"139 703 OFFCURVE",
"165 736 OFFCURVE",
"221 821 CURVE",
"193 846 LINE",
"109 776 LINE",
"3 831 OFFCURVE",
"-53 862 OFFCURVE",
"-86 862 CURVE SMOOTH",
"-124 862 OFFCURVE",
"-158 818 OFFCURVE",
"-204 749 CURVE"
);
}
);
width = 0;
}
);
},
{
color = 3;
glyphname = cedillacomb;
layers = (
{
anchors = (
{
name = _bottom;
position = "{0, 0}";
}
);
layerId = "E4D94E08-F159-4C87-90C4-095EDBFC645B";
name = Regular;
paths = (
{
closed = 1;
nodes = (
"37 6 LINE",
"-12 6 LINE",
"-75 -66 LINE",
"-48 -105 LINE",
"66 -96 OFFCURVE",
"55 -190 OFFCURVE",
"-79 -231 CURVE",
"-66 -265 LINE",
"40 -243 OFFCURVE",
"100 -208 OFFCURVE",
"110 -157 CURVE SMOOTH",
"119 -113 OFFCURVE",
"84 -59 OFFCURVE",
"-5 -59 CURVE"
);
}
);
width = 0;
}
);
unicode = 0327;
},
{
color = 3;
glyphname = circumflexcomb;
layers = (
{
anchors = (
{
name = _top;
position = "{0, 468}";
}
);
layerId = "E4D94E08-F159-4C87-90C4-095EDBFC645B";
name = Regular;
paths = (
{
closed = 1;
nodes = (
"-115 535 LINE",
"1 644 LINE",
"127 538 LINE",
"170 579 LINE",
"45 717 LINE",
"-36 717 LINE",
"-161 573 LINE"
);
}
);
width = 0;
}
);
unicode = 0302;
},
{
color = 3;
glyphname = commaaccentcomb;
layers = (
{
anchors = (
{
name = _bottom;
position = "{0, 0}";
}
);
layerId = "E4D94E08-F159-4C87-90C4-095EDBFC645B";
name = Regular;
paths = (
{
closed = 1;
nodes = (
"-59 -124 LINE",
"-20 -152 OFFCURVE",
"-30 -189 OFFCURVE",
"-68 -239 CURVE",
"-26 -264 LINE",
"19 -215 OFFCURVE",
"83 -108 OFFCURVE",
"1 -59 CURVE",
"-61 -99 LINE"
);
}
);
width = 0;
}
);
unicode = 0326;
},
{
color = 3;
glyphname = dieresiscomb;
layers = (
{
anchors = (
{
name = _top;
position = "{0, 468}";
}
);
layerId = "E4D94E08-F159-4C87-90C4-095EDBFC645B";
name = Regular;
paths = (
{
closed = 1;
nodes = (
"-48 644 OFFCURVE",
"-74 666 OFFCURVE",
"-105 677 CURVE",
"-133 663 OFFCURVE",
"-157 638 OFFCURVE",
"-160 604 CURVE",
"-148 576 OFFCURVE",
"-127 559 OFFCURVE",
"-95 551 CURVE",
"-67 563 OFFCURVE",
"-50 584 OFFCURVE",
"-42 614 CURVE"
);
},
{
closed = 1;
nodes = (
"155 644 OFFCURVE",
"129 666 OFFCURVE",
"98 677 CURVE",
"70 663 OFFCURVE",
"46 638 OFFCURVE",
"43 604 CURVE",
"55 576 OFFCURVE",
"76 559 OFFCURVE",
"108 551 CURVE",
"136 563 OFFCURVE",
"153 584 OFFCURVE",
"161 614 CURVE"
);
}
);
width = 0;
}
);
unicode = 0308;
},
{
color = 3;
glyphname = dotaccentcomb;
layers = (
{
anchors = (
{
name = _top;
position = "{0, 468}";
}
);
layerId = "E4D94E08-F159-4C87-90C4-095EDBFC645B";
name = Regular;
paths = (
{
closed = 1;
nodes = (
"56 638 OFFCURVE",
"26 666 OFFCURVE",
"-5 677 CURVE",
"-33 663 OFFCURVE",
"-56 638 OFFCURVE",
"-60 604 CURVE",
"-48 575 OFFCURVE",
"-26 558 OFFCURVE",
"6 551 CURVE",
"33 564 OFFCURVE",
"51 585 OFFCURVE",
"58 614 CURVE"
);
}
);
width = 0;
}
);
unicode = 0307;
},
{
color = 3;
glyphname = dotbelowcomb;
layers = (
{
anchors = (
{
name = _bottom;
position = "{0, 0}";
}
);
layerId = "E4D94E08-F159-4C87-90C4-095EDBFC645B";
name = Regular;
paths = (
{
closed = 1;
nodes = (
"56 -138 OFFCURVE",
"26 -110 OFFCURVE",
"-5 -99 CURVE",
"-33 -113 OFFCURVE",
"-56 -138 OFFCURVE",
"-60 -172 CURVE",
"-48 -201 OFFCURVE",
"-26 -218 OFFCURVE",
"6 -225 CURVE",
"33 -212 OFFCURVE",
"51 -191 OFFCURVE",
"58 -162 CURVE"
);
}
);
width = 0;
}
);
unicode = 0323;
},
{
color = 3;
glyphname = gravecomb;
layers = (
{
anchors = (
{
name = _top;
position = "{0, 468}";
}
);
layerId = "E4D94E08-F159-4C87-90C4-095EDBFC645B";
name = Regular;
paths = (
{
closed = 1;
nodes = (
"86 574 LINE",
"-56 734 LINE",
"-129 674 LINE",
"-69 625 OFFCURVE",
"-22 584 OFFCURVE",
"34 531 CURVE"
);
}
);
width = 0;
}
);
unicode = 0300;
},
{
color = 3;
glyphname = hungarumlautcomb;
layers = (
{
anchors = (
{
name = _top;
position = "{-0, 468}";
}
);
layerId = "E4D94E08-F159-4C87-90C4-095EDBFC645B";
name = Regular;
paths = (
{
closed = 1;
nodes = (
"-88 532 LINE",
"-36 590 OFFCURVE",
"17 646 OFFCURVE",
"71 700 CURVE",
"-16 742 LINE",
"-143 570 LINE"
);
},
{
closed = 1;
nodes = (
"93 532 LINE",
"145 590 OFFCURVE",
"198 646 OFFCURVE",
"252 700 CURVE",
"165 742 LINE",
"38 570 LINE"
);
}
);
width = 0;
}
);
unicode = 030B;
},
{
color = 3;
glyphname = macronbelowcomb;
layers = (
{
anchors = (
{
name = _bottom;
position = "{0, 0}";
}
);
layerId = "E4D94E08-F159-4C87-90C4-095EDBFC645B";
name = Regular;
paths = (
{
closed = 1;
nodes = (
"-97 -156 OFFCURVE",
"-140 -161 OFFCURVE",
"-179 -181 CURVE",
"-173 -225 LINE",
"125 -225 LINE",
"172 -191 LINE",
"167 -156 LINE",
"-66 -156 LINE"
);
}
);
width = 0;
}
);
unicode = 0331;
},
{
color = 3;
glyphname = macroncomb;
layers = (
{
anchors = (
{
name = _top;
position = "{1, 468}";
}
);
layerId = "E4D94E08-F159-4C87-90C4-095EDBFC645B";
name = Regular;
paths = (
{
closed = 1;
nodes = (
"-77 631 OFFCURVE",
"-120 626 OFFCURVE",
"-159 606 CURVE",
"-153 562 LINE",
"145 562 LINE",
"192 596 LINE",
"187 631 LINE",
"-46 631 LINE"
);
}
);
width = 0;
}
);
unicode = 0304;
},
{
color = 3;
glyphname = ogonekcomb;
layers = (
{
anchors = (
{
name = _ogonek;
position = "{0, 9}";
}
);
layerId = "E4D94E08-F159-4C87-90C4-095EDBFC645B";
name = Regular;
paths = (
{
closed = 1;
nodes = (
"-37 26 LINE",
"-134 -18 OFFCURVE",
"-192 -83 OFFCURVE",
"-192 -143 CURVE SMOOTH",
"-192 -196 OFFCURVE",
"-149 -249 OFFCURVE",
"-74 -245 CURVE",
"42 -191 LINE",
"25 -152 LINE",
"-69 -203 OFFCURVE",
"-119 -169 OFFCURVE",
"-119 -120 CURVE SMOOTH",
"-119 -71 OFFCURVE",
"-70 -25 OFFCURVE",
"0 9 CURVE SMOOTH"
);
}
);
width = 0;
}
);
unicode = 0328;
},
{
color = 3;
glyphname = ringcomb;
layers = (
{
anchors = (
{
name = _top;
position = "{0, 650}";
}
);
layerId = "E4D94E08-F159-4C87-90C4-095EDBFC645B";
name = Regular;
paths = (
{
closed = 1;
nodes = (
"-108 754 OFFCURVE",
"-57 711 OFFCURVE",
"4 711 CURVE SMOOTH",
"65 711 OFFCURVE",
"109 755 OFFCURVE",
"109 817 CURVE SMOOTH",
"109 881 OFFCURVE",
"61 928 OFFCURVE",
"0 928 CURVE SMOOTH",
"-62 928 OFFCURVE",
"-108 880 OFFCURVE",
"-108 819 CURVE SMOOTH"
);
},
{
closed = 1;
nodes = (
"-57 842 OFFCURVE",
"-32 867 OFFCURVE",
"1 867 CURVE SMOOTH",
"33 867 OFFCURVE",
"58 842 OFFCURVE",
"58 808 CURVE SMOOTH",
"58 775 OFFCURVE",
"35 752 OFFCURVE",
"2 752 CURVE SMOOTH",
"-30 752 OFFCURVE",
"-57 775 OFFCURVE",
"-57 809 CURVE SMOOTH"
);
}
);
width = 0;
}
);
unicode = 030A;
},
{
color = 3;
glyphname = tildecomb;
layers = (
{
anchors = (
{
name = _top;
position = "{0, 468}";
}
);
layerId = "E4D94E08-F159-4C87-90C4-095EDBFC645B";
name = Regular;
paths = (
{
closed = 1;
nodes = (
"-144 554 LINE",
"-97 607 OFFCURVE",
"-73 626 OFFCURVE",
"-60 626 CURVE SMOOTH",
"-32 626 OFFCURVE",
"51 544 OFFCURVE",
"90 544 CURVE SMOOTH",
"122 544 OFFCURVE",
"157 599 OFFCURVE",
"197 668 CURVE",
"162 694 LINE",
"88 617 LINE",
"30 659 OFFCURVE",
"-34 704 OFFCURVE",
"-57 704 CURVE",
"-94 704 OFFCURVE",
"-130 660 OFFCURVE",
"-180 583 CURVE"
);
}
);
width = 0;
}
);
unicode = 0303;
},
{
color = 3;
glyphname = caroncomb.calt;
layers = (
{
anchors = (
{
name = _topright;
position = "{0, 609}";
}
);
layerId = "E4D94E08-F159-4C87-90C4-095EDBFC645B";
name = Regular;
paths = (
{
closed = 1;
nodes = (
"2 692 LINE",
"50 663 OFFCURVE",
"29 604 OFFCURVE",
"-13 549 CURVE",
"21 516 LINE",
"97 589 OFFCURVE",
"149 696 OFFCURVE",
"83 762 CURVE",
"0 719 LINE"
);
}
);
width = 0;
}
);
},
{
glyphname = dvA;
lastChange = "2016-03-11 15:46:11 +0000";
layers = (
{
anchors = (
{
name = abvmBINDU;
position = "{607, 630}";
},
{
name = abvmCANDRABINDU;
position = "{592, 630}";
}
);
layerId = "E4D94E08-F159-4C87-90C4-095EDBFC645B";
name = Regular;
paths = (
{
closed = 1;
nodes = (
"20 268 LINE",
"118 65 OFFCURVE",
"226 22 OFFCURVE",
"305 22 CURVE SMOOTH",
"407 22 OFFCURVE",
"470 92 OFFCURVE",
"470 177 CURVE SMOOTH",
"470 247 OFFCURVE",
"427 327 OFFCURVE",
"332 364 CURVE",
"308 369 LINE",
"261 377 OFFCURVE",
"211 369 OFFCURVE",
"168 335 CURVE",
"213 256 LINE",
"358 331 LINE",
"275 317 LINE",
"363 316 OFFCURVE",
"398 256 OFFCURVE",
"398 203 CURVE SMOOTH",
"398 146 OFFCURVE",
"356 94 OFFCURVE",
"281 94 CURVE SMOOTH",
"193 94 OFFCURVE",
"126 164 OFFCURVE",
"65 295 CURVE"
);
},
{
closed = 1;
nodes = (
"147 472 LINE",
"204 526 OFFCURVE",
"279 559 OFFCURVE",
"328 554 CURVE",
"347 542 OFFCURVE",
"362 516 OFFCURVE",
"362 489 CURVE SMOOTH",
"362 447 OFFCURVE",
"327 385 OFFCURVE",
"222 353 CURVE",
"302 310 LINE",
"390 343 OFFCURVE",
"429 410 OFFCURVE",
"429 465 CURVE SMOOTH",
"429 541 OFFCURVE",
"353 615 OFFCURVE",
"264 615 CURVE SMOOTH",
"204 615 OFFCURVE",
"142 581 OFFCURVE",
"98 539 CURVE"
);
},
{
closed = 1;
nodes = (
"377 290 LINE",
"469 231 OFFCURVE",
"531 220 OFFCURVE",
"579 244 CURVE",
"579 329 LINE",
"536 288 OFFCURVE",
"454 283 OFFCURVE",
"386 324 CURVE"
);
},
{
closed = 1;
nodes = (
"763 538 LINE",
"772 558 LINE",
"742 608 LINE",
"455 608 LINE",
"446 588 LINE",
"476 538 LINE"
);
},
{
closed = 1;
nodes = (
"569 5 LINE",
"628 -33 LINE",
"652 -26 LINE",
"652 500 LINE",
"594 551 LINE",
"569 562 LINE"
);
}
);
width = 742;
}
);
unicode = 0905;
},
{
glyphname = dvI;
lastChange = "2016-03-11 15:46:11 +0000";
layers = (
{
anchors = (
{
name = abvmBINDU;
position = "{388, 630}";
},
{
name = abvmCANDRABINDU;
position = "{368, 630}";
}
);
layerId = "E4D94E08-F159-4C87-90C4-095EDBFC645B";
name = Regular;
paths = (
{
closed = 1;
nodes = (
"173 24 LINE",
"316 -200 LINE",
"392 -142 LINE",
"216 32 LINE"
);
},
{
closed = 1;
nodes = (
"559 538 LINE",
"568 558 LINE",
"538 608 LINE",
"-21 608 LINE",
"-30 588 LINE",
"0 538 LINE"
);
},
{
closed = 1;
nodes = (
"360 394 LINE",
"438 383 LINE",
"438 500 LINE",
"380 551 LINE",
"360 562 LINE"
);
},
{
closed = 1;
nodes = (
"91 42 LINE",
"144 1 OFFCURVE",
"211 -18 OFFCURVE",
"275 -18 CURVE SMOOTH",
"390 -18 OFFCURVE",
"496 43 OFFCURVE",
"496 145 CURVE SMOOTH",
"496 215 OFFCURVE",
"440 275 OFFCURVE",
"368 303 CURVE",
"165 252 LINE",
"140 274 OFFCURVE",
"124 293 OFFCURVE",
"124 318 CURVE SMOOTH",
"124 360 OFFCURVE",
"170 383 OFFCURVE",
"230 383 CURVE SMOOTH",
"438 383 LINE",
"364 464 LINE",
"204 464 LINE SMOOTH",
"99 464 OFFCURVE",
"53 410 OFFCURVE",
"53 356 CURVE SMOOTH",
"53 283 OFFCURVE",
"138 189 OFFCURVE",
"239 174 CURVE",
"407 219 LINE",
"453 129 OFFCURVE",
"358 29 OFFCURVE",
"188 42 CURVE",
"244 18 LINE",
"161 153 LINE",
"118 153 LINE"
);
}
);
width = 538;
}
);
leftKerningGroup = Dda;
rightKerningGroup = Da;
unicode = 0907;
},
{
glyphname = dvU;
lastChange = "2016-03-11 15:46:12 +0000";
layers = (
{
anchors = (
{
name = abvmBINDU;
position = "{327, 630}";
},
{
name = abvmCANDRABINDU;
position = "{319, 630}";
}
);
layerId = "E4D94E08-F159-4C87-90C4-095EDBFC645B";
name = Regular;
paths = (
{
closed = 1;
nodes = (
"297 546 LINE",
"336 526 OFFCURVE",
"353 493 OFFCURVE",
"353 459 CURVE SMOOTH",
"353 407 OFFCURVE",
"314 366 OFFCURVE",
"223 344 CURVE",
"301 298 LINE",
"400 332 OFFCURVE",
"428 386 OFFCURVE",
"428 435 CURVE SMOOTH",
"428 497 OFFCURVE",
"384 542 OFFCURVE",
"338 565 CURVE"
);
},
{
closed = 1;
nodes = (
"553 538 LINE",
"562 558 LINE",
"532 608 LINE",
"-21 608 LINE",
"-30 588 LINE",
"0 538 LINE"
);
},
{
closed = 1;
nodes = (
"15 242 LINE",
"116 30 OFFCURVE",
"224 -18 OFFCURVE",
"308 -18 CURVE SMOOTH",
"413 -18 OFFCURVE",
"488 56 OFFCURVE",
"488 149 CURVE SMOOTH",
"488 231 OFFCURVE",
"430 314 OFFCURVE",
"334 350 CURVE",
"309 356 LINE",
"260 363 OFFCURVE",
"211 357 OFFCURVE",
"167 322 CURVE",
"211 242 LINE",
"357 317 LINE",
"277 301 LINE",
"367 300 OFFCURVE",
"411 232 OFFCURVE",
"411 173 CURVE SMOOTH",
"411 106 OFFCURVE",
"356 64 OFFCURVE",
"289 64 CURVE SMOOTH",
"196 64 OFFCURVE",
"119 146 OFFCURVE",
"61 270 CURVE"
);
}
);
width = 532;
}
);
unicode = 0909;
},
{
glyphname = dvUu;
lastChange = "2016-03-11 15:46:11 +0000";
layers = (
{
anchors = (
{
name = abvmBINDU;
position = "{350, 630}";
},
{
name = abvmCANDRABINDU;
position = "{355, 630}";
}
);
components = (
{
name = dvU;
}
);
layerId = "E4D94E08-F159-4C87-90C4-095EDBFC645B";
name = Regular;
paths = (
{
closed = 1;
nodes = (
"756 538 LINE",
"765 558 LINE",
"735 608 LINE",
"169 608 LINE",
"160 588 LINE",
"190 538 LINE"
);
},
{
closed = 1;
nodes = (
"615 46 LINE",
"686 99 OFFCURVE",
"731 154 OFFCURVE",
"731 224 CURVE SMOOTH",
"731 308 OFFCURVE",
"666 379 OFFCURVE",
"585 379 CURVE SMOOTH",
"527 379 OFFCURVE",
"474 342 OFFCURVE",
"418 282 CURVE",
"471 219 LINE",
"520 282 OFFCURVE",
"573 314 OFFCURVE",
"614 314 CURVE SMOOTH",
"651 314 OFFCURVE",
"670 289 OFFCURVE",
"670 262 CURVE SMOOTH",
"670 215 OFFCURVE",
"615 155 OFFCURVE",
"557 111 CURVE"
);
}
);
width = 735;
}
);
rightKerningGroup = Ka;
unicode = 090A;
},
{
glyphname = dvVocalicR;
lastChange = "2016-03-11 15:46:11 +0000";
layers = (
{
anchors = (
{
name = abvmBINDU;
position = "{444, 630}";
},
{
name = abvmCANDRABINDU;
position = "{439, 630}";
},
{
name = abvmTOP;
position = "{448, 468}";
},
{
name = blwmBOTTOM;
position = "{380, 5}";
}
);
components = (
{
name = dvTRa;
transform = "{1, 0, 0, 1, 15, 0}";
}
);
layerId = "E4D94E08-F159-4C87-90C4-095EDBFC645B";
name = Regular;
paths = (
{
closed = 1;
nodes = (
"620 62 LINE",
"660 10 LINE",
"743 29 OFFCURVE",
"780 91 OFFCURVE",
"780 143 CURVE SMOOTH",
"780 197 OFFCURVE",
"741 255 OFFCURVE",
"691 315 CURVE",
"667 270 LINE",
"695 242 OFFCURVE",
"712 207 OFFCURVE",
"712 175 CURVE SMOOTH",
"712 136 OFFCURVE",
"688 101 OFFCURVE",
"627 84 CURVE"
);
},
{
closed = 1;
nodes = (
"487 201 LINE",
"508 192 OFFCURVE",
"531 188 OFFCURVE",
"552 188 CURVE SMOOTH",
"627 188 OFFCURVE",
"695 237 OFFCURVE",
"707 292 CURVE",
"672 338 LINE",
"666 282 OFFCURVE",
"619 247 OFFCURVE",
"565 247 CURVE SMOOTH",
"539 247 OFFCURVE",
"512 255 OFFCURVE",
"487 272 CURVE"
);
},
{
closed = 1;
nodes = (
"663 299 LINE",
"690 269 LINE",
"719 301 OFFCURVE",
"723 360 OFFCURVE",
"702 397 CURVE",
"609 400 LINE",
"590 366 LINE",
"671 268 LINE"
);
},
{
closed = 1;
nodes = (
"830 538 LINE",
"839 558 LINE",
"809 608 LINE",
"524 608 LINE",
"515 588 LINE",
"545 538 LINE"
);
}
);
width = 809;
}
);
unicode = 090B;
},
{
glyphname = dvVocalicR.ss06;
lastChange = "2016-03-11 15:46:11 +0000";
layers = (
{
anchors = (
{
name = abvmBINDU;
position = "{444, 630}";
},
{
name = abvmCANDRABINDU;
position = "{439, 630}";
},
{
name = abvmTOP;
position = "{448, 468}";
},
{
name = blwmBOTTOM;
position = "{380, 5}";
}
);
components = (
{
name = dvTRa;
transform = "{1, 0, 0, 1, 15, 0}";
}
);
layerId = "E4D94E08-F159-4C87-90C4-095EDBFC645B";
name = Regular;
paths = (
{
closed = 1;
nodes = (
"800 177 LINE",
"694 328 LINE",
"667 280 LINE",
"758 156 LINE"
);
},
{
closed = 1;
nodes = (
"477 211 LINE",
"498 202 OFFCURVE",
"531 198 OFFCURVE",
"552 198 CURVE SMOOTH",
"627 198 OFFCURVE",
"695 247 OFFCURVE",
"707 302 CURVE",
"672 348 LINE",
"666 285 OFFCURVE",
"611 255 OFFCURVE",
"558 255 CURVE SMOOTH",
"528 255 OFFCURVE",
"498 264 OFFCURVE",
"477 282 CURVE"
);
},
{
closed = 1;
nodes = (
"663 309 LINE",
"690 279 LINE",
"719 311 OFFCURVE",
"723 370 OFFCURVE",
"702 407 CURVE",
"609 410 LINE",
"590 376 LINE",
"669 276 LINE"
);
},
{
closed = 1;
nodes = (
"868 538 LINE",
"877 558 LINE",
"847 608 LINE",
"524 608 LINE",
"515 588 LINE",
"545 538 LINE"
);
},
{
closed = 1;
nodes = (
"755 212 LINE",
"620 177 OFFCURVE",
"596 117 OFFCURVE",
"596 75 CURVE SMOOTH",
"596 -2 OFFCURVE",
"672 -61 OFFCURVE",
"746 -61 CURVE SMOOTH",
"789 -61 OFFCURVE",
"841 -41 OFFCURVE",
"882 1 CURVE",
"838 67 LINE",
"801 31 OFFCURVE",
"746 3 OFFCURVE",
"708 3 CURVE SMOOTH",
"678 3 OFFCURVE",
"656 20 OFFCURVE",
"656 47 CURVE SMOOTH",
"656 86 OFFCURVE",
"704 115 OFFCURVE",
"784 141 CURVE",
"800 177 LINE"
);
}
);
width = 847;
}
);
},
{
glyphname = dvVocalicRr;
lastChange = "2016-03-11 15:46:11 +0000";
layers = (
{
anchors = (
{
name = abvmBINDU;
position = "{444, 630}";
},
{
name = abvmCANDRABINDU;
position = "{439, 630}";
},
{
name = abvmTOP;
position = "{448, 468}";
},
{
name = blwmBOTTOM;
position = "{380, 5}";
}
);
components = (
{
name = dvTRa;
transform = "{1, 0, 0, 1, 15, 0}";
}
);
layerId = "E4D94E08-F159-4C87-90C4-095EDBFC645B";
name = Regular;
paths = (
{
closed = 1;
nodes = (
"800 177 LINE",
"694 328 LINE",
"667 280 LINE",
"758 156 LINE"
);
},
{
closed = 1;
nodes = (
"477 211 LINE",
"498 202 OFFCURVE",
"531 198 OFFCURVE",
"552 198 CURVE SMOOTH",
"627 198 OFFCURVE",
"695 247 OFFCURVE",
"707 302 CURVE",
"672 348 LINE",
"666 285 OFFCURVE",
"611 255 OFFCURVE",
"558 255 CURVE SMOOTH",
"528 255 OFFCURVE",
"498 264 OFFCURVE",
"477 282 CURVE"
);
},
{
closed = 1;
nodes = (
"663 309 LINE",
"690 279 LINE",
"719 311 OFFCURVE",
"723 370 OFFCURVE",
"702 407 CURVE",
"609 410 LINE",
"590 376 LINE",
"669 276 LINE"
);
},
{
closed = 1;
nodes = (
"868 538 LINE",
"877 558 LINE",
"847 608 LINE",
"524 608 LINE",
"515 588 LINE",
"545 538 LINE"
);
},
{
closed = 1;
nodes = (
"807 91 LINE",
"670 54 OFFCURVE",
"651 4 OFFCURVE",
"651 -25 CURVE SMOOTH",
"651 -79 OFFCURVE",
"718 -142 OFFCURVE",
"793 -142 CURVE SMOOTH",
"838 -142 OFFCURVE",
"885 -120 OFFCURVE",
"922 -81 CURVE",
"883 -19 LINE",
"846 -54 OFFCURVE",
"788 -86 OFFCURVE",
"747 -86 CURVE SMOOTH",
"720 -86 OFFCURVE",
"710 -72 OFFCURVE",
"710 -59 CURVE SMOOTH",
"710 -35 OFFCURVE",
"745 -1 OFFCURVE",
"841 19 CURVE",
"850 41 LINE"
);
},
{
closed = 1;
nodes = (
"700 18 LINE",
"664 26 OFFCURVE",
"646 40 OFFCURVE",
"646 61 CURVE SMOOTH",
"646 102 OFFCURVE",
"712 121 OFFCURVE",
"784 141 CURVE",
"800 177 LINE",
"755 208 LINE",
"617 175 OFFCURVE",
"581 125 OFFCURVE",
"581 81 CURVE SMOOTH",
"581 33 OFFCURVE",
"624 6 OFFCURVE",
"685 -20 CURVE"
);
}
);
width = 847;
}
);
unicode = 0960;
},
{
glyphname = dvVocalicL;
lastChange = "2016-03-11 15:46:11 +0000";
layers = (
{
anchors = (
{
name = abvmBINDU;
position = "{458, 630}";
},
{
name = abvmCANDRABINDU;
position = "{443, 630}";
},
{
name = abvmTOP;
position = "{468, 468}";
},
{
name = blwmBOTTOM;
position = "{338, 5}";
}
);
layerId = "E4D94E08-F159-4C87-90C4-095EDBFC645B";
name = Regular;
paths = (
{
closed = 1;
nodes = (
"361 287 LINE",
"252 403 LINE",
"231 416 OFFCURVE",
"206 423 OFFCURVE",
"180 423 CURVE SMOOTH",
"109 423 OFFCURVE",
"35 367 OFFCURVE",
"35 272 CURVE SMOOTH",
"35 182 OFFCURVE",
"102 79 OFFCURVE",
"270 -39 CURVE",
"304 5 LINE",
"205 73 OFFCURVE",
"119 150 OFFCURVE",
"119 235 CURVE SMOOTH",
"119 291 OFFCURVE",
"157 337 OFFCURVE",
"212 337 CURVE SMOOTH",
"244 337 OFFCURVE",
"283 322 OFFCURVE",
"316 283 CURVE",
"347 247 LINE"
);
},
{
closed = 1;
nodes = (
"704 538 LINE",
"713 558 LINE",
"683 608 LINE",
"-21 608 LINE",
"-30 588 LINE",
"0 538 LINE"
);
},
{
closed = 1;
nodes = (
"432 399 LINE",
"515 394 LINE",
"515 500 LINE",
"457 551 LINE",
"432 562 LINE"
);
},
{
closed = 1;
nodes = (
"647 5 LINE",
"622 -41 OFFCURVE",
"588 -87 OFFCURVE",
"546 -87 CURVE SMOOTH",
"517 -87 OFFCURVE",
"493 -66 OFFCURVE",
"493 -34 CURVE SMOOTH",
"493 44 OFFCURVE",
"633 124 OFFCURVE",
"633 246 CURVE SMOOTH",
"633 329 OFFCURVE",
"567 416 OFFCURVE",
"466 416 CURVE SMOOTH",
"376 416 OFFCURVE",
"271 348 OFFCURVE",
"291 164 CURVE",
"352 118 LINE",
"370 125 LINE",
"354 258 OFFCURVE",
"408 361 OFFCURVE",
"481 361 CURVE SMOOTH",
"528 361 OFFCURVE",
"555 318 OFFCURVE",
"555 270 CURVE SMOOTH",
"555 164 OFFCURVE",
"425 99 OFFCURVE",
"425 6 CURVE SMOOTH",
"425 -70 OFFCURVE",
"510 -146 OFFCURVE",
"583 -146 CURVE SMOOTH",
"635 -146 OFFCURVE",
"681 -108 OFFCURVE",
"708 -46 CURVE"
);
}
);
width = 683;
}
);
leftKerningGroup = La;
rightKerningGroup = LaMAR;
unicode = 090C;
},
{
glyphname = dvVocalicLl;
lastChange = "2016-03-11 15:46:11 +0000";
layers = (
{
anchors = (
{
name = abvmBINDU;
position = "{458, 630}";
},
{
name = abvmCANDRABINDU;
position = "{443, 630}";
},
{
name = abvmTOP;
position = "{468, 468}";
},
{
name = blwmBOTTOM;
position = "{338, 5}";
}
);
layerId = "E4D94E08-F159-4C87-90C4-095EDBFC645B";
name = Regular;
paths = (
{
closed = 1;
nodes = (
"361 287 LINE",
"252 403 LINE",
"231 416 OFFCURVE",
"206 423 OFFCURVE",
"180 423 CURVE SMOOTH",
"109 423 OFFCURVE",
"35 367 OFFCURVE",
"35 272 CURVE SMOOTH",
"35 182 OFFCURVE",
"102 79 OFFCURVE",
"270 -39 CURVE",
"304 5 LINE",
"205 73 OFFCURVE",
"119 150 OFFCURVE",
"119 235 CURVE SMOOTH",
"119 291 OFFCURVE",
"157 337 OFFCURVE",
"212 337 CURVE SMOOTH",
"244 337 OFFCURVE",
"283 322 OFFCURVE",
"316 283 CURVE",
"347 247 LINE"
);
},
{
closed = 1;
nodes = (
"704 538 LINE",
"713 558 LINE",
"683 608 LINE",
"-21 608 LINE",
"-30 588 LINE",
"0 538 LINE"
);
},
{
closed = 1;
nodes = (
"432 399 LINE",
"515 394 LINE",
"515 500 LINE",
"457 551 LINE",
"432 562 LINE"
);
},
{
closed = 1;
nodes = (
"544 -87 LINE",
"516 -86 OFFCURVE",
"493 -65 OFFCURVE",
"493 -34 CURVE SMOOTH",
"493 44 OFFCURVE",
"633 124 OFFCURVE",
"633 246 CURVE SMOOTH",
"633 329 OFFCURVE",
"567 416 OFFCURVE",
"466 416 CURVE SMOOTH",
"376 416 OFFCURVE",
"271 348 OFFCURVE",
"291 164 CURVE",
"352 118 LINE",
"370 125 LINE",
"354 258 OFFCURVE",
"408 361 OFFCURVE",
"481 361 CURVE SMOOTH",
"528 361 OFFCURVE",
"555 318 OFFCURVE",
"555 269 CURVE SMOOTH",
"555 161 OFFCURVE",
"425 101 OFFCURVE",
"425 -1 CURVE SMOOTH",
"425 -55 OFFCURVE",
"461 -97 OFFCURVE",
"525 -122 CURVE"
);
},
{
closed = 1;
nodes = (
"709 -98 LINE",
"668 -166 OFFCURVE",
"626 -191 OFFCURVE",
"597 -191 CURVE SMOOTH",
"574 -191 OFFCURVE",
"562 -175 OFFCURVE",
"562 -159 CURVE SMOOTH",
"562 -139 OFFCURVE",
"580 -101 OFFCURVE",
"664 -63 CURVE",
"667 -39 LINE",
"613 -2 LINE",
"511 -57 OFFCURVE",
"496 -101 OFFCURVE",
"496 -127 CURVE SMOOTH",
"496 -172 OFFCURVE",
"543 -243 OFFCURVE",
"626 -243 CURVE SMOOTH",
"673 -243 OFFCURVE",
"724 -220 OFFCURVE",
"761 -148 CURVE"
);
}
);
width = 683;
}
);
leftKerningGroup = La;
rightKerningGroup = LaMAR;
unicode = 0961;
},
{
glyphname = dvE;
lastChange = "2016-03-11 15:46:11 +0000";
layers = (
{
anchors = (
{
name = abvmBINDU;
position = "{290, 630}";
},
{
name = abvmCANDRABINDU;
position = "{305, 630}";
}
);
layerId = "E4D94E08-F159-4C87-90C4-095EDBFC645B";
name = Regular;
paths = (
{
closed = 1;
nodes = (
"390 239 LINE",
"309 194 LINE",
"341 140 LINE",
"456 179 OFFCURVE",
"473 227 OFFCURVE",
"473 367 CURVE SMOOTH",
"473 500 LINE",
"411 554 LINE",
"390 563 LINE"
);
},
{
closed = 1;
nodes = (
"576 538 LINE",
"585 558 LINE",
"555 608 LINE",
"-21 608 LINE",
"-30 588 LINE",
"0 538 LINE"
);
},
{
closed = 1;
nodes = (
"543 -166 LINE",
"559 -144 OFFCURVE",
"571 -120 OFFCURVE",
"571 -88 CURVE SMOOTH",
"571 -33 OFFCURVE",
"534 7 OFFCURVE",
"423 60 CURVE SMOOTH",
"161 185 LINE",
"161 500 LINE",
"100 554 LINE",
"78 563 LINE",
"78 299 LINE",
"78 195 OFFCURVE",
"143 126 OFFCURVE",
"229 86 CURVE SMOOTH",
"441 -17 LINE SMOOTH",
"489 -46 OFFCURVE",
"495 -75 OFFCURVE",
"463 -123 CURVE"
);
}
);
width = 555;
}
);
unicode = 090F;
},
{
glyphname = dvOE;
layers = (
{
components = (
{
name = dvA;
}
);
layerId = "E4D94E08-F159-4C87-90C4-095EDBFC645B";
name = Regular;
paths = (
{
closed = 1;
nodes = (
"573 775 LINE",
"573 575 LINE",
"607 553 LINE",
"631 560 LINE",
"631 775 LINE"
);
}
);
width = 742;
}
);
unicode = 0973;
},
{
glyphname = dvOOE;
layers = (
{
components = (
{
name = dvAa;
}
);
layerId = "E4D94E08-F159-4C87-90C4-095EDBFC645B";
name = Regular;
paths = (
{
closed = 1;
nodes = (
"836 775 LINE",
"836 575 LINE",
"870 553 LINE",
"894 560 LINE",
"894 775 LINE"
);
}
);
width = 1005;
}
);
unicode = 0974;
},
{
glyphname = dvKa;
lastChange = "2016-03-11 15:46:12 +0000";
layers = (
{
anchors = (
{
name = abvmBINDU;
position = "{370, 630}";
},
{
name = abvmCANDRABINDU;
position = "{380, 630}";
},
{
name = abvmCANDRABINDU2;
position = "{645, 630}";
},
{
name = abvmTOP;
position = "{380, 468}";
},
{
name = blwmBOTTOM;
position = "{310, 5}";
}
);
layerId = "E4D94E08-F159-4C87-90C4-095EDBFC645B";
name = Regular;
paths = (
{
closed = 1;
nodes = (
"218 436 LINE",
"130 463 OFFCURVE",
"25 400 OFFCURVE",
"25 297 CURVE SMOOTH",
"25 188 OFFCURVE",
"141 103 OFFCURVE",
"230 103 CURVE SMOOTH",
"288 103 OFFCURVE",
"335 139 OFFCURVE",
"367 190 CURVE",
"342 276 LINE",
"301 192 OFFCURVE",
"198 143 OFFCURVE",
"124 187 CURVE",
"69 267 OFFCURVE",
"116 369 OFFCURVE",
"217 369 CURVE SMOOTH",
"265 369 OFFCURVE",
"308 346 OFFCURVE",
"351 319 CURVE",
"354 371 LINE"
);
},
{
closed = 1;
nodes = (
"746 538 LINE",
"755 558 LINE",
"725 608 LINE",
"-21 608 LINE",
"-30 588 LINE",
"0 538 LINE"
);
},
{
closed = 1;
nodes = (
"322 5 LINE",
"381 -33 LINE",
"405 -26 LINE",
"405 500 LINE",
"347 551 LINE",
"322 562 LINE"
);
},
{
closed = 1;
nodes = (
"384 198 LINE",
"446 285 OFFCURVE",
"500 327 OFFCURVE",
"555 327 CURVE SMOOTH",
"607 327 OFFCURVE",
"625 290 OFFCURVE",
"625 257 CURVE SMOOTH",
"625 198 OFFCURVE",
"569 142 OFFCURVE",
"482 81 CURVE",
"543 12 LINE",
"631 71 OFFCURVE",
"690 143 OFFCURVE",
"690 228 CURVE SMOOTH",
"690 323 OFFCURVE",
"616 401 OFFCURVE",
"531 401 CURVE SMOOTH",
"461 401 OFFCURVE",
"395 347 OFFCURVE",
"362 286 CURVE"
);
}
);
width = 725;
}
);
leftKerningGroup = Ka;
rightKerningGroup = Ka;
unicode = 0915;
},
{
color = 5;
glyphname = dvKha;
lastChange = "2016-03-11 15:46:12 +0000";
layers = (
{
anchors = (
{
name = abvmBINDU;
position = "{474, 630}";
},
{
name = abvmCANDRABINDU;
position = "{492, 630}";
},
{
name = abvmCANDRABINDU2;
position = "{802, 630}";
},
{
name = abvmTOP;
position = "{647, 468}";
},
{
name = blwmBOTTOM;
position = "{597, -40}";
}
);
layerId = "E4D94E08-F159-4C87-90C4-095EDBFC645B";
name = Regular;
paths = (
{
closed = 1;
nodes = (
"619 288 LINE",
"609 200 OFFCURVE",
"505 172 OFFCURVE",
"434 206 CURVE",
"375 270 OFFCURVE",
"409 378 OFFCURVE",
"514 378 CURVE SMOOTH",
"550 378 OFFCURVE",
"589 365 OFFCURVE",
"623 337 CURVE",
"645 375 LINE",
"513 447 LINE",
"420 467 OFFCURVE",
"337 394 OFFCURVE",
"337 312 CURVE SMOOTH",
"337 220 OFFCURVE",
"440 126 OFFCURVE",
"536 126 CURVE SMOOTH",
"599 126 OFFCURVE",
"639 167 OFFCURVE",
"670 231 CURVE"
);
},
{
closed = 1;
nodes = (
"803 538 LINE",
"812 558 LINE",
"782 608 LINE",
"216 608 LINE",
"207 588 LINE",
"239 538 LINE"
);
},
{
closed = 1;
nodes = (
"609 5 LINE",
"668 -33 LINE",
"692 -26 LINE",
"692 500 LINE",
"634 551 LINE",
"609 562 LINE"
);
},
{
closed = 1;
nodes = (
"419 538 LINE",
"428 558 LINE",
"398 608 LINE",
"-21 608 LINE",
"-30 588 LINE",
"0 538 LINE"
);
},
{
closed = 1;
nodes = (
"287 502 LINE",
"240 543 LINE",
"205 554 LINE",
"206 398 LINE SMOOTH",
"207 310 OFFCURVE",
"163 279 OFFCURVE",
"87 269 CURVE",
"157 166 LINE",
"225 248 LINE SMOOTH",
"260 291 OFFCURVE",
"287 322 OFFCURVE",
"287 379 CURVE SMOOTH"
);
},
{
closed = 1;
nodes = (
"594 85 OFFCURVE",
"523 44 OFFCURVE",
"430 44 CURVE",
"325 44 OFFCURVE",
"198 111 OFFCURVE",
"148 242 CURVE",
"223 331 LINE",
"81 331 LINE",
"59 281 LINE",
"126 96 OFFCURVE",
"290 -20 OFFCURVE",
"436 -20 CURVE",
"523 -20 OFFCURVE",
"604 12 OFFCURVE",
"655 83 CURVE",
"638 149 LINE"
);
}
);
width = 782;
}
);
leftKerningGroup = Ra;
unicode = 0916;
},
{
glyphname = dvGa;
lastChange = "2016-03-11 15:46:12 +0000";
layers = (
{
anchors = (
{
name = abvmBINDU;
position = "{335, 630}";
},
{
name = abvmCANDRABINDU;
position = "{340, 630}";
},
{
name = abvmCANDRABINDU2;
position = "{610, 630}";
},
{
name = abvmTOP;
position = "{455, 468}";
},
{
name = blwmBOTTOM;
position = "{405, 5}";
}
);
layerId = "E4D94E08-F159-4C87-90C4-095EDBFC645B";
name = Regular;
paths = (
{
closed = 1;
nodes = (
"45 272 LINE",
"64 217 OFFCURVE",
"125 158 OFFCURVE",
"177 128 CURVE",
"225 148 LINE",
"225 276 LINE",
"164 311 LINE",
"73 311 LINE"
);
},
{
closed = 1;
nodes = (
"417 5 LINE",
"476 -33 LINE",
"500 -26 LINE",
"500 500 LINE",
"442 551 LINE",
"417 562 LINE"
);
},
{
closed = 1;
nodes = (
"611 538 LINE",
"620 558 LINE",
"590 608 LINE",
"-21 608 LINE",
"-30 588 LINE",
"0 538 LINE"
);
},
{
closed = 1;
nodes = (
"142 263 LINE",
"225 232 LINE",
"225 500 LINE",
"167 551 LINE",
"142 562 LINE"
);
}
);
width = 590;
}
);
leftKerningGroup = Ma;
unicode = 0917;
},
{
glyphname = dvGha;
lastChange = "2016-03-11 15:46:11 +0000";
layers = (
{
anchors = (
{
name = abvmBINDU;
position = "{345, 630}";
},
{
name = abvmCANDRABINDU;
position = "{370, 630}";
},
{
name = abvmCANDRABINDU2;
position = "{670, 630}";
},
{
name = abvmTOP;
position = "{515, 468}";
},
{
name = blwmBOTTOM;
position = "{465, 5}";
}
);
layerId = "E4D94E08-F159-4C87-90C4-095EDBFC645B";
name = Regular;
paths = (
{
closed = 1;
nodes = (
"113 585 LINE",
"72 558 OFFCURVE",
"52 524 OFFCURVE",
"52 488 CURVE SMOOTH",
"52 424 OFFCURVE",
"113 357 OFFCURVE",
"223 322 CURVE",
"236 364 LINE",
"169 380 OFFCURVE",
"133 421 OFFCURVE",
"133 463 CURVE SMOOTH",
"133 494 OFFCURVE",
"152 526 OFFCURVE",
"192 549 CURVE"
);
},
{
closed = 1;
nodes = (
"379 341 LINE",
"330 399 LINE",
"185 420 OFFCURVE",
"119 335 OFFCURVE",
"119 267 CURVE SMOOTH",
"119 213 OFFCURVE",
"159 162 OFFCURVE",
"199 131 CURVE SMOOTH",
"235 103 OFFCURVE",
"286 79 OFFCURVE",
"345 79 CURVE SMOOTH",
"405 79 OFFCURVE",
"471 104 OFFCURVE",
"513 174 CURVE",
"485 276 LINE",
"442 156 OFFCURVE",
"285 128 OFFCURVE",
"229 158 CURVE",
"153 229 OFFCURVE",
"211 350 OFFCURVE",
"369 321 CURVE"
);
},
{
closed = 1;
nodes = (
"477 5 LINE",
"536 -33 LINE",
"560 -26 LINE",
"560 500 LINE",
"502 551 LINE",
"477 562 LINE"
);
},
{
closed = 1;
nodes = (
"671 538 LINE",
"680 558 LINE",
"650 608 LINE",
"-21 608 LINE",
"-30 588 LINE",
"0 538 LINE"
);
}
);
width = 650;
}
);
leftKerningGroup = Gha;
unicode = 0918;
},
{
glyphname = dvNga;
lastChange = "2016-03-11 15:46:12 +0000";
layers = (
{
anchors = (
{
name = abvmBINDU;
position = "{432, 630}";
},
{
name = abvmCANDRABINDU;
position = "{417, 630}";
},
{
name = abvmCANDRABINDU2;
position = "{637, 630}";
},
{
name = abvmTOP;
position = "{451, 468}";
},
{
name = blwmBOTTOM;
position = "{344, -26}";
}
);
layerId = "E4D94E08-F159-4C87-90C4-095EDBFC645B";
name = Regular;
paths = (
{
closed = 1;
nodes = (
"638 232 OFFCURVE",
"662 262 OFFCURVE",
"671 286 CURVE",
"657 304 OFFCURVE",
"628 331 OFFCURVE",
"603 341 CURVE",
"583 328 OFFCURVE",
"560 299 OFFCURVE",
"547 272 CURVE",
"562 251 OFFCURVE",
"594 226 OFFCURVE",
"617 217 CURVE"
);
},
{
closed = 1;
nodes = (
"46 207 LINE",
"166 29 OFFCURVE",
"266 -26 OFFCURVE",
"364 -26 CURVE SMOOTH",
"474 -26 OFFCURVE",
"540 45 OFFCURVE",
"540 125 CURVE SMOOTH",
"540 203 OFFCURVE",
"477 279 OFFCURVE",
"387 300 CURVE",
"216 246 LINE",
"193 263 OFFCURVE",
"177 283 OFFCURVE",
"177 308 CURVE SMOOTH",
"177 350 OFFCURVE",
"222 373 OFFCURVE",
"280 373 CURVE SMOOTH",
"478 373 LINE",
"407 454 LINE",
"254 454 LINE SMOOTH",
"157 454 OFFCURVE",
"106 402 OFFCURVE",
"106 346 CURVE SMOOTH",
"106 271 OFFCURVE",
"196 179 OFFCURVE",
"288 165 CURVE",
"449 218 LINE",
"498 157 OFFCURVE",
"446 53 OFFCURVE",
"328 53 CURVE SMOOTH",
"242 53 OFFCURVE",
"166 109 OFFCURVE",
"82 236 CURVE"
);
},
{
closed = 1;
nodes = (
"409 384 LINE",
"487 373 LINE",
"487 500 LINE",
"429 551 LINE",
"409 562 LINE"
);
},
{
closed = 1;
nodes = (
"688 538 LINE",
"697 558 LINE",
"667 608 LINE",
"-21 608 LINE",
"-30 588 LINE",
"0 538 LINE"
);
}
);
width = 667;
}
);
leftKerningGroup = Dda;
rightKerningGroup = Nga;
unicode = 0919;
},
{
glyphname = dvCa;
lastChange = "2016-03-11 15:46:12 +0000";
layers = (
{
anchors = (
{
name = abvmBINDU;
position = "{519, 630}";
},
{
name = abvmCANDRABINDU;
position = "{504, 630}";
},
{
name = abvmCANDRABINDU2;
position = "{674, 630}";
},
{
name = abvmTOP;
position = "{519, 468}";
},
{
name = blwmBOTTOM;
position = "{469, 5}";
}
);
layerId = "E4D94E08-F159-4C87-90C4-095EDBFC645B";
name = Regular;
paths = (
{
closed = 1;
nodes = (
"194 407 LINE",
"153 382 OFFCURVE",
"126 339 OFFCURVE",
"126 288 CURVE SMOOTH",
"126 229 OFFCURVE",
"163 180 OFFCURVE",
"203 149 CURVE SMOOTH",
"238 122 OFFCURVE",
"291 95 OFFCURVE",
"352 95 CURVE SMOOTH",
"432 95 OFFCURVE",
"508 141 OFFCURVE",
"549 238 CURVE",
"490 290 LINE",
"446 177 OFFCURVE",
"314 144 OFFCURVE",
"234 174 CURVE",
"187 224 OFFCURVE",
"206 334 OFFCURVE",
"273 360 CURVE"
);
},
{
closed = 1;
nodes = (
"481 5 LINE",
"540 -33 LINE",
"564 -26 LINE",
"564 500 LINE",
"506 551 LINE",
"481 562 LINE"
);
},
{
closed = 1;
nodes = (
"675 538 LINE",
"684 558 LINE",
"654 608 LINE",
"-21 608 LINE",
"-30 588 LINE",
"0 538 LINE"
);
},
{
closed = 1;
nodes = (
"156 357 LINE",
"180 353 LINE",
"397 353 LINE",
"406 373 LINE",
"376 423 LINE",
"17 423 LINE",
"8 403 LINE",
"36 357 LINE"
);
}
);
width = 654;
}
);
unicode = 091A;
},
{
glyphname = dvCha;
lastChange = "2016-03-11 15:46:11 +0000";
layers = (
{
anchors = (
{
name = abvmBINDU;
position = "{380, 630}";
},
{
name = abvmCANDRABINDU;
position = "{405, 630}";
},
{
name = abvmCANDRABINDU2;
position = "{675, 630}";
},
{
name = abvmTOP;
position = "{533, 468}";
},
{
name = blwmBOTTOM;
position = "{375, -30}";
}
);
layerId = "E4D94E08-F159-4C87-90C4-095EDBFC645B";
name = Regular;
paths = (
{
closed = 1;
nodes = (
"378 217 LINE",
"332 275 LINE",
"217 302 OFFCURVE",
"127 238 OFFCURVE",
"127 157 CURVE SMOOTH",
"127 65 OFFCURVE",
"241 -40 OFFCURVE",
"385 -40 CURVE SMOOTH",
"552 -40 OFFCURVE",
"682 101 OFFCURVE",
"682 262 CURVE SMOOTH",
"682 395 OFFCURVE",
"593 487 OFFCURVE",
"497 487 CURVE SMOOTH",
"424 487 OFFCURVE",
"378 432 OFFCURVE",
"378 370 CURVE SMOOTH",
"378 300 OFFCURVE",
"434 237 OFFCURVE",
"579 148 CURVE",
"600 189 LINE",
"501 242 OFFCURVE",
"458 289 OFFCURVE",
"458 343 CURVE SMOOTH",
"458 412 OFFCURVE",
"527 449 OFFCURVE",
"585 404 CURVE",
"602 382 OFFCURVE",
"610 338 OFFCURVE",
"610 299 CURVE SMOOTH",
"610 147 OFFCURVE",
"485 25 OFFCURVE",
"329 25 CURVE SMOOTH",
"297 25 OFFCURVE",
"277 30 OFFCURVE",
"258 36 CURVE",
"225 59 OFFCURVE",
"210 91 OFFCURVE",
"210 121 CURVE SMOOTH",
"210 174 OFFCURVE",
"259 219 OFFCURVE",
"365 196 CURVE"
);
},
{
closed = 1;
nodes = (
"492 434 LINE",
"570 423 LINE",
"570 500 LINE",
"512 551 LINE",
"492 562 LINE"
);
},
{
closed = 1;
nodes = (
"756 538 LINE",
"765 558 LINE",
"735 608 LINE",
"-21 608 LINE",
"-30 588 LINE",
"0 538 LINE"
);
},
{
closed = 1;
nodes = (
"315 410 LINE",
"273 474 LINE",
"187 474 LINE SMOOTH",
"82 474 OFFCURVE",
"40 418 OFFCURVE",
"40 361 CURVE SMOOTH",
"40 306 OFFCURVE",
"79 261 OFFCURVE",
"146 216 CURVE",
"199 229 LINE",
"137 270 OFFCURVE",
"115 295 OFFCURVE",
"115 328 CURVE SMOOTH",
"115 377 OFFCURVE",
"162 393 OFFCURVE",
"221 393 CURVE SMOOTH",
"303 393 LINE"
);
}
);
width = 735;
}
);
rightKerningGroup = Cha;
unicode = 091B;
},
{
glyphname = dvJa;
lastChange = "2016-03-11 15:46:12 +0000";
layers = (
{
anchors = (
{
name = abvmBINDU;
position = "{532, 630}";
},
{
name = abvmCANDRABINDU;
position = "{517, 630}";
},
{
name = abvmCANDRABINDU2;
position = "{687, 630}";
},
{
name = abvmTOP;
position = "{532, 468}";
},
{
name = blwmBOTTOM;
position = "{482, 5}";
}
);
layerId = "E4D94E08-F159-4C87-90C4-095EDBFC645B";
name = Regular;
paths = (
{
closed = 1;
nodes = (
"13 390 LINE",
"68 193 OFFCURVE",
"154 51 OFFCURVE",
"276 51 CURVE SMOOTH",
"347 51 OFFCURVE",
"408 99 OFFCURVE",
"408 180 CURVE SMOOTH",
"408 269 OFFCURVE",
"333 368 OFFCURVE",
"202 386 CURVE",
"193 386 LINE",
"193 365 LINE",
"284 324 LINE",
"365 241 OFFCURVE",
"336 137 OFFCURVE",
"251 137 CURVE SMOOTH",
"165 137 OFFCURVE",
"111 245 OFFCURVE",
"63 406 CURVE"
);
},
{
closed = 1;
nodes = (
"521 412 LINE",
"193 412 LINE",
"193 373 LINE",
"303 336 LINE",
"518 336 LINE"
);
},
{
closed = 1;
nodes = (
"494 5 LINE",
"553 -33 LINE",
"577 -26 LINE",
"577 500 LINE",
"519 551 LINE",
"494 562 LINE"
);
},
{
closed = 1;
nodes = (
"688 538 LINE",
"697 558 LINE",
"667 608 LINE",
"-21 608 LINE",
"-30 588 LINE",
"0 538 LINE"
);
}
);
width = 667;
}
);
leftKerningGroup = Ja;
unicode = 091C;
},
{
glyphname = dvJha;
lastChange = "2016-03-11 15:46:11 +0000";
layers = (
{
anchors = (
{
name = abvmBINDU;
position = "{510, 630}";
},
{
name = abvmCANDRABINDU;
position = "{525, 630}";
},
{
name = abvmCANDRABINDU2;
position = "{805, 630}";
},
{
name = abvmTOP;
position = "{650, 468}";
},
{
name = blwmBOTTOM;
position = "{600, 5}";
}
);
components = (
{
name = dvI;
}
);
layerId = "E4D94E08-F159-4C87-90C4-095EDBFC645B";
name = Regular;
paths = (
{
closed = 1;
nodes = (
"612 5 LINE",
"671 -33 LINE",
"695 -26 LINE",
"695 500 LINE",
"637 551 LINE",
"612 562 LINE"
);
},
{
closed = 1;
nodes = (
"806 538 LINE",
"815 558 LINE",
"785 608 LINE",
"489 608 LINE",
"480 588 LINE",
"510 538 LINE"
);
},
{
closed = 1;
nodes = (
"359 279 LINE",
"492 197 OFFCURVE",
"560 183 OFFCURVE",
"622 212 CURVE",
"619 301 LINE",
"563 255 OFFCURVE",
"463 261 OFFCURVE",
"368 303 CURVE"
);
}
);
width = 785;
}
);
leftKerningGroup = Dda;
unicode = 091D;
},
{
glyphname = dvJha.NEP;
lastChange = "2016-03-11 15:46:11 +0000";
layers = (
{
anchors = (
{
name = abvmBINDU;
position = "{518, 630}";
},
{
name = abvmCANDRABINDU;
position = "{503, 630}";
},
{
name = abvmCANDRABINDU2;
position = "{743, 630}";
},
{
name = abvmTOP;
position = "{512, 468}";
},
{
name = blwmBOTTOM;
position = "{458, 5}";
}
);
layerId = "E4D94E08-F159-4C87-90C4-095EDBFC645B";
name = Regular;
paths = (
{
closed = 1;
nodes = (
"106 269 LINE",
"130 214 OFFCURVE",
"196 144 OFFCURVE",
"243 115 CURVE",
"291 135 LINE",
"291 273 LINE",
"224 308 LINE",
"133 308 LINE"
);
},
{
closed = 1;
nodes = (
"470 5 LINE",
"529 -33 LINE",
"553 -26 LINE",
"553 500 LINE",
"495 551 LINE",
"470 562 LINE"
);
},
{
closed = 1;
nodes = (
"854 538 LINE",
"863 558 LINE",
"833 608 LINE",
"343 608 LINE",
"334 588 LINE",
"364 538 LINE"
);
},
{
closed = 1;
nodes = (
"499 308 LINE",
"171 308 LINE",
"202 232 LINE",
"521 232 LINE"
);
},
{
closed = 1;
nodes = (
"70 631 OFFCURVE",
"20 598 OFFCURVE",
"20 542 CURVE SMOOTH",
"20 507 OFFCURVE",
"39 459 OFFCURVE",
"124 406 CURVE",
"150 441 LINE",
"63 489 OFFCURVE",
"93 580 OFFCURVE",
"169 573 CURVE",
"200 550 OFFCURVE",
"205 519 OFFCURVE",
"205 481 CURVE SMOOTH",
"205 274 LINE",
"286 243 LINE",
"286 448 LINE",
"283 538 OFFCURVE",
"207 631 OFFCURVE",
"121 631 CURVE SMOOTH"
);
},
{
closed = 1;
nodes = (
"540 245 LINE",
"663 245 LINE",
"727 245 OFFCURVE",
"752 216 OFFCURVE",
"752 177 CURVE SMOOTH",
"752 135 OFFCURVE",
"724 84 OFFCURVE",
"644 29 CURVE",
"699 -40 LINE",
"776 13 OFFCURVE",
"816 76 OFFCURVE",
"816 145 CURVE SMOOTH",
"816 244 OFFCURVE",
"732 320 OFFCURVE",
"636 320 CURVE",
"518 320 LINE"
);
}
);
width = 833;
}
);
leftKerningGroup = Ma;
rightKerningGroup = Ka;
},
{
glyphname = dvNya;
lastChange = "2016-03-11 15:46:12 +0000";
layers = (
{
anchors = (
{
name = abvmBINDU;
position = "{620, 630}";
},
{
name = abvmCANDRABINDU;
position = "{605, 630}";
},
{
name = abvmCANDRABINDU2;
position = "{775, 630}";
},
{
name = abvmTOP;
position = "{620, 468}";
},
{
name = blwmBOTTOM;
position = "{570, 5}";
}
);
layerId = "E4D94E08-F159-4C87-90C4-095EDBFC645B";
name = Regular;
paths = (
{
closed = 1;
nodes = (
"226 310 LINE",
"338 403 LINE",
"290 394 LINE",
"361 397 OFFCURVE",
"410 344 OFFCURVE",
"410 284 CURVE SMOOTH",
"410 225 OFFCURVE",
"362 170 OFFCURVE",
"282 170 CURVE SMOOTH",
"185 170 OFFCURVE",
"114 251 OFFCURVE",
"42 363 CURVE",
"2 333 LINE",
"102 167 OFFCURVE",
"215 90 OFFCURVE",
"316 90 CURVE SMOOTH",
"403 90 OFFCURVE",
"489 146 OFFCURVE",
"489 251 CURVE SMOOTH",
"489 358 OFFCURVE",
"399 443 OFFCURVE",
"301 443 CURVE SMOOTH",
"256 443 OFFCURVE",
"208 425 OFFCURVE",
"167 386 CURVE"
);
},
{
closed = 1;
nodes = (
"582 5 LINE",
"641 -33 LINE",
"665 -26 LINE",
"665 500 LINE",
"607 551 LINE",
"582 562 LINE"
);
},
{
closed = 1;
nodes = (
"776 538 LINE",
"785 558 LINE",
"755 608 LINE",
"-21 608 LINE",
"-30 588 LINE",
"0 538 LINE"
);
},
{
closed = 1;
nodes = (
"417 281 LINE",
"509 222 OFFCURVE",
"571 211 OFFCURVE",
"619 235 CURVE",
"619 320 LINE",
"576 279 OFFCURVE",
"494 274 OFFCURVE",
"426 315 CURVE"
);
}
);
width = 755;
}
);
unicode = 091E;
},
{
glyphname = dvTta;
lastChange = "2016-03-11 15:46:12 +0000";
layers = (
{
anchors = (
{
name = abvmBINDU;
position = "{356, 630}";
},
{
name = abvmCANDRABINDU;
position = "{351, 630}";
},
{
name = abvmCANDRABINDU2;
position = "{541, 630}";
},
{
name = abvmTOP;
position = "{372, 468}";
},
{
name = blwmBOTTOM;
position = "{319, 5}";
}
);
layerId = "E4D94E08-F159-4C87-90C4-095EDBFC645B";
name = Regular;
paths = (
{
closed = 1;
nodes = (
"446 159 LINE",
"387 79 OFFCURVE",
"275 53 OFFCURVE",
"186 84 CURVE",
"146 116 OFFCURVE",
"125 160 OFFCURVE",
"125 200 CURVE SMOOTH",
"125 258 OFFCURVE",
"168 309 OFFCURVE",
"259 309 CURVE SMOOTH",
"413 309 LINE",
"336 392 LINE",
"253 392 LINE SMOOTH",
"113 392 OFFCURVE",
"48 322 OFFCURVE",
"48 232 CURVE SMOOTH",
"48 90 OFFCURVE",
"207 -5 OFFCURVE",
"319 -5 CURVE SMOOTH",
"386 -5 OFFCURVE",
"460 28 OFFCURVE",
"506 94 CURVE"
);
},
{
closed = 1;
nodes = (
"330 351 LINE",
"413 310 LINE",
"413 500 LINE",
"355 551 LINE",
"330 562 LINE"
);
},
{
closed = 1;
nodes = (
"562 538 LINE",
"571 558 LINE",
"541 608 LINE",
"-21 608 LINE",
"-30 588 LINE",
"0 538 LINE"
);
}
);
width = 541;
}
);
leftKerningGroup = Da;
rightKerningGroup = Tta;
unicode = 091F;
},
{
glyphname = dvTtha;
lastChange = "2016-03-11 15:46:11 +0000";
layers = (
{
anchors = (
{
name = abvmBINDU;
position = "{363, 630}";
},
{
name = abvmCANDRABINDU;
position = "{348, 630}";
},
{
name = abvmCANDRABINDU2;
position = "{548, 630}";
},
{
name = abvmTOP;
position = "{373, 468}";
},
{
name = blwmBOTTOM;
position = "{338, -2}";
}
);
layerId = "E4D94E08-F159-4C87-90C4-095EDBFC645B";
name = Regular;
paths = (
{
closed = 1;
nodes = (
"382 321 LINE",
"426 277 OFFCURVE",
"447 232 OFFCURVE",
"447 189 CURVE SMOOTH",
"447 115 OFFCURVE",
"387 52 OFFCURVE",
"294 52 CURVE SMOOTH",
"264 52 OFFCURVE",
"232 59 OFFCURVE",
"195 75 CURVE",
"153 107 OFFCURVE",
"130 153 OFFCURVE",
"130 196 CURVE SMOOTH",
"130 257 OFFCURVE",
"176 311 OFFCURVE",
"275 311 CURVE SMOOTH",
"416 311 LINE",
"342 393 LINE",
"257 393 LINE SMOOTH",
"128 393 OFFCURVE",
"53 327 OFFCURVE",
"53 229 CURVE SMOOTH",
"53 90 OFFCURVE",
"202 -12 OFFCURVE",
"338 -12 CURVE SMOOTH",
"446 -12 OFFCURVE",
"528 52 OFFCURVE",
"528 151 CURVE SMOOTH",
"528 220 OFFCURVE",
"488 303 OFFCURVE",
"394 362 CURVE"
);
},
{
closed = 1;
nodes = (
"332 332 LINE",
"415 321 LINE",
"415 500 LINE",
"357 551 LINE",
"332 562 LINE"
);
},
{
closed = 1;
nodes = (
"599 538 LINE",
"608 558 LINE",
"578 608 LINE",
"-21 608 LINE",
"-30 588 LINE",
"0 538 LINE"
);
}
);
width = 578;
}
);
leftKerningGroup = Da;
rightKerningGroup = Tta;
unicode = 0920;
},
{
glyphname = dvDda;
lastChange = "2016-03-11 15:46:11 +0000";
layers = (
{
anchors = (
{
name = abvmBINDU;
position = "{438, 630}";
},
{
name = abvmCANDRABINDU;
position = "{432, 630}";
},
{
name = abvmCANDRABINDU2;
position = "{583, 630}";
},
{
name = abvmTOP;
position = "{448, 468}";
},
{
name = blwmBOTTOM;
position = "{338, -38}";
}
);
layerId = "E4D94E08-F159-4C87-90C4-095EDBFC645B";
name = Regular;
paths = (
{
closed = 1;
nodes = (
"35 199 LINE",
"156 14 OFFCURVE",
"262 -38 OFFCURVE",
"359 -38 CURVE SMOOTH",
"469 -38 OFFCURVE",
"540 30 OFFCURVE",
"540 114 CURVE SMOOTH",
"540 196 OFFCURVE",
"473 271 OFFCURVE",
"383 290 CURVE",
"212 236 LINE",
"187 256 OFFCURVE",
"175 281 OFFCURVE",
"175 303 CURVE SMOOTH",
"175 338 OFFCURVE",
"205 368 OFFCURVE",
"270 368 CURVE SMOOTH",
"487 368 LINE",
"413 454 LINE",
"263 454 LINE SMOOTH",
"148 454 OFFCURVE",
"102 394 OFFCURVE",
"102 338 CURVE SMOOTH",
"102 261 OFFCURVE",
"188 169 OFFCURVE",
"288 155 CURVE",
"448 208 LINE",
"496 142 OFFCURVE",
"446 42 OFFCURVE",
"326 42 CURVE SMOOTH",
"245 42 OFFCURVE",
"157 88 OFFCURVE",
"72 226 CURVE"
);
},
{
closed = 1;
nodes = (
"409 379 LINE",
"487 368 LINE",
"487 500 LINE",
"429 551 LINE",
"409 562 LINE"
);
},
{
closed = 1;
nodes = (
"614 538 LINE",
"623 558 LINE",
"593 608 LINE",
"-21 608 LINE",
"-30 588 LINE",
"0 538 LINE"
);
}
);
width = 593;
}
);
leftKerningGroup = Dda;
rightKerningGroup = Da;
unicode = 0921;
},
{
glyphname = dvDdha;
lastChange = "2016-03-11 15:46:11 +0000";
layers = (
{
anchors = (
{
name = abvmBINDU;
position = "{404, 630}";
},
{
name = abvmCANDRABINDU;
position = "{397, 630}";
},
{
name = abvmCANDRABINDU2;
position = "{558, 630}";
},
{
name = abvmTOP;
position = "{406, 468}";
},
{
name = blwmBOTTOM;
position = "{352, -20}";
}
);
layerId = "E4D94E08-F159-4C87-90C4-095EDBFC645B";
name = Regular;
paths = (
{
closed = 1;
nodes = (
"386 32 LINE",
"361 66 OFFCURVE",
"348 92 OFFCURVE",
"348 124 CURVE SMOOTH",
"348 177 OFFCURVE",
"383 204 OFFCURVE",
"415 204 CURVE SMOOTH",
"446 204 OFFCURVE",
"468 178 OFFCURVE",
"468 144 CURVE SMOOTH",
"468 86 OFFCURVE",
"401 45 OFFCURVE",
"320 45 CURVE SMOOTH",
"272 45 OFFCURVE",
"233 59 OFFCURVE",
"197 72 CURVE",
"151 111 OFFCURVE",
"128 162 OFFCURVE",
"128 208 CURVE SMOOTH",
"128 274 OFFCURVE",
"176 341 OFFCURVE",
"276 341 CURVE SMOOTH",
"447 341 LINE",
"384 424 LINE",
"266 424 LINE SMOOTH",
"118 424 OFFCURVE",
"50 332 OFFCURVE",
"50 241 CURVE SMOOTH",
"50 114 OFFCURVE",
"182 -30 OFFCURVE",
"352 -30 CURVE SMOOTH",
"475 -30 OFFCURVE",
"523 46 OFFCURVE",
"523 109 CURVE SMOOTH",
"523 176 OFFCURVE",
"468 264 OFFCURVE",
"382 264 CURVE SMOOTH",
"318 264 OFFCURVE",
"270 215 OFFCURVE",
"270 151 CURVE SMOOTH",
"270 125 OFFCURVE",
"278 100 OFFCURVE",
"294 76 CURVE",
"373 23 LINE"
);
},
{
closed = 1;
nodes = (
"369 352 LINE",
"447 341 LINE",
"447 500 LINE",
"389 551 LINE",
"369 562 LINE"
);
},
{
closed = 1;
nodes = (
"579 538 LINE",
"588 558 LINE",
"558 608 LINE",
"-21 608 LINE",
"-30 588 LINE",
"0 538 LINE"
);
}
);
width = 558;
}
);
leftKerningGroup = Da;
rightKerningGroup = Tta;
unicode = 0922;
},
